<svg width="40" height="40" viewBox="0 0 40 40" fill="none" xmlns="http://www.w3.org/2000/svg">
<path d="M10 2H30C34.4183 2 38 5.58172 38 10V30C38 34.4183 34.4183 38 30 38H10C5.58172 38 2 34.4183 2 30V10C2 5.58172 5.58172 2 10 2Z" stroke="#43EFC9" stroke-width="4" stroke-linecap="round" stroke-linejoin="round"/>
<path d="M27.9135 18.8265C28.1603 20.491 27.876 22.191 27.101 23.6846C26.326 25.1782 25.0998 26.3893 23.5967 27.1459C22.0937 27.9024 20.3904 28.1657 18.729 27.8984C17.0677 27.6311 15.533 26.8467 14.3432 25.6568C13.1533 24.467 12.3689 22.9323 12.1016 21.271C11.8343 19.6096 12.0976 17.9063 12.8541 16.4033C13.6106 14.9002 14.8218 13.674 16.3154 12.899C17.809 12.124 19.509 11.8397 21.1735 12.0865C22.8713 12.3383 24.4432 13.1295 25.6568 14.3432C26.8705 15.5568 27.6617 17.1287 27.9135 18.8265Z" stroke="#43EFC9" stroke-width="4" stroke-linecap="round" stroke-linejoin="round"/>
<path d="M31.9784 8.70664C32.0401 9.12276 31.969 9.54774 31.7752 9.92114C31.5815 10.2945 31.2749 10.5973 30.8992 10.7865C30.5234 10.9756 30.0976 11.0414 29.6823 10.9746C29.2669 10.9078 28.8832 10.7117 28.5858 10.4142C28.2883 10.1168 28.0922 9.73307 28.0254 9.31774C27.9586 8.90241 28.0244 8.47658 28.2135 8.10082C28.4027 7.72506 28.7055 7.41851 29.0789 7.22476C29.4523 7.03101 29.8772 6.95993 30.2934 7.02164C30.7178 7.08458 31.1108 7.28237 31.4142 7.58579C31.7176 7.88921 31.9154 8.28217 31.9784 8.70664Z" fill="#43EFC9"/>
</svg>
