<svg width="80" height="80" viewBox="0 0 80 80" fill="none" xmlns="http://www.w3.org/2000/svg">
<path d="M65.7692 58.68H14.2308C11.8952 58.6775 10.0025 56.827 10 54.5435V25.1365C10.0025 22.853 11.8952 21.0025 14.2308 21H65.7692C68.1048 21.0025 69.9975 22.853 70 25.1365V54.5435C69.9975 56.827 68.1048 58.6775 65.7692 58.68ZM14.2308 23.2563C13.1687 23.2563 12.3077 24.0981 12.3077 25.1365V54.5435C12.3077 55.5819 13.1687 56.4237 14.2308 56.4237H65.7692C66.8313 56.4237 67.6923 55.5819 67.6923 54.5435V25.1365C67.6923 24.0981 66.8313 23.2563 65.7692 23.2563H14.2308Z" fill="white"/>
<path d="M32.9431 53.7225V51.8631C32.9431 51.1627 32.4936 50.6915 31.7781 50.6855C31.4036 50.6795 31.0095 50.7971 30.7368 51.2099C30.5323 50.8817 30.2124 50.6855 29.7577 50.6855C29.4115 50.667 29.0813 50.8328 28.8894 51.1215V50.7559H28.2444V53.7188H28.8954V52.0796C28.8954 51.565 29.1808 51.2923 29.6206 51.2923C30.0483 51.2923 30.2656 51.571 30.2656 52.0729V53.721H30.9166V52.0796C30.9166 51.565 31.2163 51.2923 31.6418 51.2923C32.0815 51.2923 32.2928 51.571 32.2928 52.0729V53.721L32.9431 53.7225ZM36.575 52.2415V50.7596H35.9299V51.1215C35.7254 50.8548 35.4153 50.6877 34.9942 50.6877C34.1634 50.6877 33.5132 51.3387 33.5132 52.2437C33.5132 53.1487 34.1642 53.7997 34.9942 53.7997C35.416 53.7997 35.7254 53.6326 35.9299 53.3659V53.7255H36.575V52.2415ZM34.1777 52.2415C34.1777 51.7208 34.5185 51.293 35.0767 51.293C35.6101 51.293 35.9689 51.7021 35.9689 52.2415C35.9689 52.7808 35.6093 53.1899 35.0767 53.1899C34.517 53.1891 34.1762 52.7614 34.1762 52.2407L34.1777 52.2415ZM50.3684 50.6817C50.5861 50.6796 50.8022 50.72 51.0044 50.8008C51.1928 50.8761 51.3646 50.9876 51.5101 51.129C51.6534 51.2695 51.767 51.4374 51.8442 51.6227C52.005 52.0195 52.005 52.4634 51.8442 52.8603C51.767 53.0455 51.6534 53.2134 51.5101 53.3539C51.3646 53.4954 51.1928 53.6068 51.0044 53.6821C50.5948 53.8415 50.1404 53.8415 49.7308 53.6821C49.5428 53.6071 49.3714 53.4955 49.2267 53.3539C49.0842 53.213 48.9711 53.0452 48.894 52.8603C48.7333 52.4634 48.7333 52.0195 48.894 51.6227C48.9712 51.4377 49.0842 51.2699 49.2267 51.129C49.3714 50.9874 49.5428 50.8759 49.7308 50.8008C49.9335 50.7198 50.1501 50.6794 50.3684 50.6817ZM50.3684 51.2915C50.2424 51.2904 50.1174 51.3141 50.0005 51.3612C49.8904 51.4054 49.7904 51.4717 49.7069 51.556C49.6227 51.642 49.5565 51.7438 49.5121 51.8556C49.4173 52.1036 49.4173 52.3778 49.5121 52.6258C49.5565 52.7376 49.6227 52.8394 49.7069 52.9254C49.7904 53.0097 49.8904 53.076 50.0005 53.1202C50.2372 53.2131 50.5002 53.2131 50.7369 53.1202C50.8474 53.0757 50.9478 53.0095 51.0321 52.9254C51.117 52.8397 51.1837 52.7378 51.2284 52.6258C51.3232 52.3778 51.3232 52.1036 51.2284 51.8556C51.1837 51.7436 51.117 51.6417 51.0321 51.556C50.9478 51.4719 50.8474 51.4057 50.7369 51.3612C50.6198 51.314 50.4946 51.2903 50.3684 51.2915ZM40.0825 52.2407C40.0765 51.317 39.5064 50.6847 38.6756 50.6847C37.8081 50.6847 37.2005 51.317 37.2005 52.2407C37.2005 53.1831 37.8328 53.7967 38.719 53.7967C39.1685 53.7967 39.5746 53.6851 39.9342 53.3817L39.618 52.9045C39.3733 53.1007 39.0702 53.2098 38.7565 53.2146C38.3415 53.2146 37.9631 53.0228 37.8702 52.4894H40.0705C40.075 52.4085 40.0825 52.3276 40.0825 52.2407ZM37.8762 51.9807C37.9444 51.553 38.2044 51.2616 38.6636 51.2616C39.0786 51.2616 39.3453 51.5215 39.4128 51.9807H37.8762ZM42.7974 51.5163C42.516 51.3541 42.1978 51.2665 41.873 51.2616C41.5194 51.2616 41.3089 51.3919 41.3089 51.6084C41.3089 51.8069 41.5336 51.8624 41.8108 51.8998L42.1142 51.9433C42.7592 52.0362 43.1495 52.3089 43.1495 52.8295C43.1495 53.3937 42.6536 53.7967 41.801 53.7967C41.3178 53.7967 40.8714 53.6723 40.5178 53.4124L40.8212 52.9104C41.1055 53.1207 41.4521 53.2294 41.8055 53.2191C42.2453 53.2191 42.4798 53.0887 42.4798 52.8595C42.4798 52.6924 42.3127 52.5995 41.9591 52.5494L41.6557 52.5059C40.9927 52.413 40.6331 52.1156 40.6331 51.6316C40.6331 51.0428 41.1163 50.6832 41.8662 50.6832C42.3374 50.6832 42.7652 50.7888 43.0746 50.9934L42.7974 51.5163ZM45.8952 51.3462H44.8411V52.6872C44.8411 52.9869 44.9467 53.1831 45.2689 53.1831C45.47 53.1765 45.6661 53.119 45.839 53.0161L46.0248 53.5675C45.783 53.7182 45.5036 53.7976 45.2187 53.7967C44.456 53.7967 44.1901 53.3877 44.1901 52.6992V51.3462H43.5908V50.7574H44.1901V49.8584H44.8411V50.7574H45.8944L45.8952 51.3462ZM48.1261 50.6832C48.2825 50.684 48.4375 50.7113 48.5846 50.7641L48.3861 51.3717C48.258 51.3204 48.121 51.295 47.9831 51.2968C47.5613 51.2968 47.3508 51.5695 47.3508 52.0594V53.7203H46.7065V50.7596H47.3418V51.1215C47.5028 50.8447 47.8024 50.6783 48.1224 50.6877L48.1261 50.6832Z" fill="white"/>
<path d="M54.3703 29.1077C50.5159 25.2511 44.4384 24.7458 40 27.9128C36.5961 25.4876 32.1224 25.1671 28.4076 27.0825C24.6927 28.9978 22.3591 32.828 22.3605 37.0076C22.3591 41.1871 24.6927 45.0173 28.4076 46.9327C32.1224 48.848 36.5961 48.5275 40 46.1023C43.404 48.5275 47.8776 48.848 51.5925 46.9327C55.3074 45.0173 57.641 41.1871 57.6396 37.0076C57.6485 34.0434 56.4712 31.1988 54.3703 29.1077ZM40 44.3343C37.9031 42.477 36.7027 39.8102 36.7027 37.0091C36.7027 34.2079 37.9031 31.5411 40 29.6838C42.0956 31.5419 43.295 34.2084 43.295 37.0091C43.295 39.8097 42.0956 42.4762 40 44.3343ZM33.5303 46.7765C28.1368 46.7765 23.7644 42.4041 23.7644 37.0106C23.7644 31.617 28.1368 27.2446 33.5303 27.2446C35.4222 27.2391 37.2737 27.7909 38.8538 28.8313C36.5867 30.9475 35.2996 33.9097 35.2996 37.0109C35.2996 40.1122 36.5867 43.0744 38.8538 45.1906C37.2736 46.2307 35.4221 46.7823 33.5303 46.7765ZM46.4697 46.7765C44.5797 46.7821 42.7299 46.2313 41.1507 45.1928C43.4167 43.0755 44.703 40.1133 44.703 37.0121C44.703 33.9109 43.4167 30.9486 41.1507 28.8313C42.7308 27.7909 44.5824 27.2391 46.4742 27.2446C51.8678 27.2446 56.2402 31.617 56.2402 37.0106C56.2402 42.4041 51.8678 46.7765 46.4742 46.7765H46.4697Z" fill="white"/>
</svg>
