<svg width="80" height="80" viewBox="0 0 80 80" fill="none" xmlns="http://www.w3.org/2000/svg">
<path d="M14.2308 23.2563C13.1687 23.2563 12.3077 24.0981 12.3077 25.1365V54.5435C12.3077 55.5819 13.1687 56.4237 14.2308 56.4237H65.7692C66.8313 56.4237 67.6923 55.5819 67.6923 54.5435V25.1365C67.6923 24.0981 66.8313 23.2563 65.7692 23.2563H14.2308ZM14.2308 21H65.7692C68.1058 21 70 22.852 70 25.1365V54.5435C70 56.828 68.1058 58.68 65.7692 58.68H14.2308C11.8942 58.68 10 56.828 10 54.5435V25.1365C10 22.852 11.8942 21 14.2308 21Z" fill="white"/>
<path d="M32.6079 47.4103L35.1555 32.4612H39.2302L36.6808 47.4103H32.6079Z" fill="white"/>
<path d="M51.4018 32.7834C50.5944 32.4805 49.3295 32.1555 47.7498 32.1555C43.7236 32.1555 40.8875 34.183 40.8633 37.0889C40.8407 39.2369 42.888 40.4352 44.4336 41.1503C46.0196 41.883 46.5529 42.3504 46.5453 43.0047C46.5352 44.0067 45.2788 44.4645 44.1076 44.4645C42.4767 44.4645 41.6103 44.2379 40.2721 43.6798L39.7471 43.4421L39.1752 46.7887C40.1269 47.206 41.8868 47.5675 43.7141 47.5862C47.9972 47.5862 50.7778 45.5819 50.8094 42.4789C50.8247 40.7783 49.7392 39.4841 47.3884 38.4173C45.9641 37.7257 45.0919 37.2642 45.1011 36.564C45.1011 35.9426 45.8394 35.2782 47.4346 35.2782C48.7671 35.2575 49.7322 35.548 50.4842 35.8509L50.8494 36.0234L51.4018 32.7834Z" fill="white"/>
<path d="M61.887 32.4612H58.7385C57.7631 32.4612 57.0332 32.7274 56.6048 33.7009L50.5533 47.4007H54.8321C54.8321 47.4007 55.5317 45.5587 55.6899 45.1543C56.1575 45.1543 60.3141 45.1607 60.9083 45.1607C61.0302 45.684 61.4041 47.4007 61.4041 47.4007H65.185L61.887 32.4612ZM56.8915 42.1141C57.2285 41.2528 58.5149 37.9352 58.5149 37.9352C58.4909 37.975 58.8494 37.0697 59.0552 36.5085L59.3307 37.7973C59.3307 37.7973 60.1109 41.3657 60.2739 42.114H56.8915V42.1141Z" fill="white"/>
<path d="M29.149 32.4612L25.1598 42.6553L24.7347 40.5837C23.9921 38.1955 21.6783 35.6081 19.0916 34.3128L22.7392 47.3865L27.0503 47.3815L33.4652 32.4612H29.149Z" fill="white"/>
<path d="M21.4376 32.4612H14.8672L14.8152 32.7722C19.9269 34.0096 23.3093 36.9999 24.7133 40.5929L23.2846 33.7232C23.0379 32.7766 22.3226 32.4942 21.4376 32.4612Z" fill="white"/>
</svg>
