<svg width="85" height="64" viewBox="0 0 85 64" fill="none" xmlns="http://www.w3.org/2000/svg">
<path d="M25.7577 10.6666H10.625V53.3333H25.7577L31.875 47.192V34.9413L28.9452 32L31.875 29.0586V16.808L25.7577 10.6666ZM17 28.8V17.0666H23.1173L25.5 19.4586V26.408L23.1173 28.8H17ZM23.1173 35.2L25.5 37.592V44.5413L23.1173 46.9333H17V35.2H23.1173ZM75.1719 53.3333L69.8939 33.5578L74.375 29.0586V16.808L68.2577 10.6666H53.125V53.3333H59.5V35.2H63.9572L68.7969 53.3333H75.1719ZM59.5 17.0666H65.6173L68 19.4586V26.408L65.6173 28.8H59.5V17.0666ZM37.1875 41.1045L47.8125 30.4378V22.8954L37.1875 33.5621V41.1045Z" fill="white"/>
</svg>
