<svg width="168" height="70" viewBox="0 0 168 70" fill="none" xmlns="http://www.w3.org/2000/svg">
<path d="M167.451 48.7168C166.566 52.9235 163.289 55.6689 158.152 56.4659C156.735 56.6873 153.857 56.6873 151.997 56.4659C149.606 56.2002 146.108 55.3589 145.577 54.9604C145.4 54.8275 145.355 54.3404 145.267 50.5323L145.178 46.2814L145.532 46.1486C146.285 45.8829 146.33 45.8829 146.817 47.0785C148.676 51.6393 150.979 53.8091 154.256 54.0748C156.647 54.2962 158.507 53.322 159.392 51.3737C159.746 50.6209 159.791 50.4438 159.791 49.3368C159.791 48.1855 159.791 48.0969 159.392 47.3441C159.127 46.8128 158.728 46.37 158.241 45.9714C157.444 45.3072 155.274 44.2445 153.193 43.4475C150.536 42.4733 148.986 41.5434 147.835 40.3035C146.462 38.8423 145.842 37.1154 145.798 34.8128C145.798 33.1744 146.02 32.1559 146.684 30.8275C147.924 28.3036 150.315 26.4881 153.547 25.6024C154.654 25.2925 154.876 25.2925 157.577 25.2925C159.835 25.2925 160.676 25.3368 161.606 25.5139C162.89 25.7353 164.794 26.2666 165.547 26.5766L165.99 26.7537L166.079 30.5176C166.123 32.5988 166.123 34.3257 166.079 34.37C166.034 34.4143 165.769 34.5028 165.503 34.5914C165.06 34.7242 165.016 34.7242 164.972 34.5471C164.573 33.4401 163.776 31.5803 163.377 30.9161C162.138 28.8792 160.809 27.7722 158.994 27.3294C157.488 26.9751 156.204 27.1523 155.186 27.8165C153.946 28.6135 153.326 29.9419 153.326 31.6246C153.326 32.7316 153.547 33.3958 154.167 34.2371C154.964 35.2556 156.824 36.4069 160.012 37.7353C164.263 39.5508 165.99 40.8349 167.008 42.9161C167.673 44.4216 167.894 46.6799 167.451 48.7168Z" fill="white"/>
<path d="M125.208 39.4622C125.297 39.4179 129.326 39.3737 134.242 39.3737H143.098V39.0194C143.098 38.2224 142.832 36.0969 142.611 34.9899C141.681 30.4733 139.201 27.2851 135.659 26.001C134.242 25.4696 132.913 25.2925 131.142 25.2925C126.98 25.2925 123.57 26.6652 120.957 29.3663C118.876 31.536 117.636 33.9714 116.839 37.4253C116.618 38.4438 116.574 39.0194 116.574 41.1892C116.574 43.3589 116.618 43.8903 116.839 44.9087C118.256 51.2408 122.419 55.4032 128.397 56.4659C129.902 56.7316 132.16 56.7316 133.666 56.5102C136.456 56.0674 139.201 54.6947 141.194 52.8349C142.301 51.8165 142.655 51.3294 142.478 51.0637C142.079 50.3552 142.079 50.3552 141.061 51.0194C139.422 52.0379 138.625 52.3036 136.677 52.4807C134.419 52.7021 132.338 52.3478 130.434 51.3737C129.149 50.7095 127.644 49.2039 126.891 47.8755C125.873 46.0157 125.297 43.8903 125.12 41.1006C125.031 39.8165 125.076 39.5508 125.208 39.4622ZM125.518 33.9272C126.05 31.2261 126.935 29.322 128.087 28.1264C128.707 27.4622 129.017 27.2851 129.548 27.1523C129.902 27.0637 130.301 26.9751 130.434 26.9751C130.965 26.9751 131.629 27.2408 132.116 27.6836C133.445 28.8792 134.153 31.4917 134.33 35.2999L134.419 37.2039L133.179 37.2925C130.655 37.4253 125.253 37.5139 125.164 37.381C125.031 37.1596 125.253 35.0342 125.518 33.9272Z" fill="white"/>
<path d="M113.65 38.9755C113.562 36.0973 113.075 34.1932 111.879 31.8464C110.241 28.6582 107.495 26.4442 104.307 25.78C101.96 25.2929 98.9049 25.6914 96.6023 26.7541C96.0267 27.0198 95.4953 27.2412 95.3625 27.2412C95.2296 27.2412 95.1853 26.3556 95.2296 20.2006L95.2739 13.16L94.7868 13.2486C94.5211 13.2929 91.82 13.8242 88.7647 14.3556C85.7093 14.9313 83.0968 15.4183 82.9639 15.4626C82.7425 15.5512 82.6982 15.6397 82.6982 15.994C82.7425 16.4368 82.7425 16.4368 83.1853 16.5696C84.7351 16.9239 85.0008 17.0124 85.5765 17.6324C86.285 18.3408 86.5949 19.2707 86.8163 21.1748C86.9934 22.7246 87.0377 49.0715 86.8606 52.9682L86.772 55.2707L88.0119 55.5364C92.7056 56.5549 97.4436 56.9091 100.366 56.4663C104.041 55.9349 106.743 54.6508 109.001 52.4368C112.322 49.16 113.872 44.5991 113.65 38.9755ZM104.617 44.5991C104.086 48.1416 103.067 50.8427 101.65 52.5696C100.986 53.411 99.8348 54.208 98.9492 54.4737C98.3735 54.6508 97.1337 54.6951 96.0709 54.5622C95.8495 54.518 95.5839 54.4294 95.4953 54.3408C95.2739 54.0752 95.0525 37.6914 95.1853 32.9091L95.2739 29.101L96.2481 28.8353C97.665 28.4368 99.2149 28.4811 100.278 29.0124C102.447 30.0309 103.909 32.5991 104.661 36.8058C104.927 38.1785 104.883 42.9165 104.617 44.5991Z" fill="white"/>
<path d="M84.337 26.0451C84.2484 26.355 81.4587 33.7056 81.4145 33.7498C81.3702 33.7941 80.9716 33.617 80.4846 33.3513C78.8019 32.51 76.6322 32.2 74.9495 32.5543C74.1082 32.7314 72.9126 33.307 72.5584 33.7056L72.2484 34.0155V40.9233C72.2484 49.7794 72.4255 51.9491 73.2669 53.1447C73.8425 53.9417 74.4181 54.1631 76.5879 54.3845L77.5178 54.4731V55.8015H59.717L59.7613 55.1816L59.8056 54.5617L60.8683 54.3403C61.444 54.2074 62.1082 54.0303 62.3296 53.8974C62.9052 53.5875 63.4366 52.6576 63.658 51.7277C64.1008 49.8679 64.2336 36.3181 63.8794 32.8642C63.6137 30.2074 62.9495 29.2775 61.0897 28.9676C59.717 28.7462 59.8056 28.7904 59.8056 28.3034C59.8056 28.082 59.8499 27.8605 59.8942 27.8163C60.027 27.7277 60.8683 27.5506 66.8462 26.355C69.6359 25.7794 72.0713 25.2923 72.2041 25.248L72.5141 25.1594L72.4255 28.4805C72.3812 31.1373 72.3812 31.8015 72.5141 31.8015C72.6026 31.8015 72.9126 31.3144 73.2669 30.7388C75.1709 27.2406 77.8277 25.248 80.8388 25.0709C81.9458 25.0266 82.8314 25.1594 83.8499 25.558C84.2041 25.7794 84.3812 25.9122 84.337 26.0451Z" fill="white"/>
<path d="M54.8017 28.702C52.2777 26.3551 49.1338 25.2039 45.06 25.2039C40.7205 25.2039 37.2223 26.5323 34.5212 29.2334C31.643 32.1116 30.1375 36.1854 30.1375 40.9234C30.1375 45.8385 31.5101 49.8238 34.167 52.6135C35.6282 54.1633 37.0452 55.0489 39.1264 55.8016C39.8349 56.0673 40.3662 56.2002 42.3146 56.5544C42.4917 56.5987 43.5987 56.5987 44.7943 56.5544C46.4327 56.5101 47.2297 56.4659 47.9825 56.2887C50.1079 55.8016 51.8349 55.0046 53.3847 53.8976C57.1042 51.1079 59.1411 46.857 59.3183 41.4991C59.4954 36.1411 57.9013 31.6245 54.8017 28.702ZM50.4179 44.7758C50.0194 50.3994 48.7795 53.4548 46.5212 54.5175C45.6799 54.916 44.2186 54.916 43.4216 54.5618C41.429 53.6762 40.012 50.9308 39.3478 46.5913C38.905 43.8459 38.8607 37.7352 39.2592 34.7684C39.8349 30.5618 41.0304 28.0821 42.9345 27.2408C44.2186 26.6651 45.9899 27.0194 47.1411 28.0378C49.7094 30.3404 50.9935 36.8939 50.4179 44.7758Z" fill="white"/>
<path d="M34.123 25.5589L33.2817 25.8246C32.7946 25.9574 32.3961 26.046 32.3961 26.046C32.3961 26.046 32.219 25.5589 32.0418 25.0275C31.8647 24.4962 31.4219 23.522 31.1119 22.8135C29.695 19.8024 27.968 18.0312 25.5769 17.1899L24.5584 16.8357L20.1304 16.7914L15.7023 16.7471L15.6581 17.0128C15.4809 17.7655 15.171 33.6622 15.3038 33.8393C15.3924 33.9279 15.968 33.9722 18.0049 33.8836C19.4219 33.7951 20.8389 33.7065 21.1488 33.6179C22.3887 33.3523 23.3186 32.4667 23.9828 31.0497C24.4256 30.1198 24.8684 28.7028 24.8684 28.2157C24.8684 27.95 24.9127 27.95 25.6654 27.95H26.4625V41.9869L25.7097 41.9427L24.957 41.8984L24.6913 40.7914C24.0714 38.2674 22.7872 36.629 21.1488 36.2305C20.5732 36.0976 15.4367 35.8762 15.3481 36.0091C15.2153 36.1419 15.4367 44.2895 15.6138 47.0792C15.8795 50.9759 16.588 52.8357 18.1378 53.5884C18.5806 53.8098 21.2374 54.3855 21.8131 54.3855C21.8573 54.3855 21.9016 54.6954 21.9016 55.0497V55.7139H0.204193V54.3855L0.824119 54.2526C1.17836 54.1641 1.79829 54.0755 2.24109 53.9869C3.92375 53.7213 4.89792 52.7914 5.42929 51.1087C6.09349 49.0275 6.22633 46.9021 6.31489 36.629C6.40345 26.8873 6.22633 21.7065 5.69497 19.4039C5.34072 17.9427 4.80936 16.9685 3.92375 16.3486C3.3481 15.9058 2.81674 15.7729 1.35548 15.5958L0.248473 15.5072L0.204193 14.7545L0.159912 14.0017H33.8573L33.9459 15.8615C33.9902 16.8799 34.0345 19.4925 34.0787 21.6622L34.123 25.5589Z" fill="white"/>
</svg>
