<svg width="168" height="70" viewBox="0 0 168 70" fill="none" xmlns="http://www.w3.org/2000/svg">
<path d="M51.2913 56.1551C59.2802 56.1551 67.2582 56.1551 75.247 56.1551C75.247 52.9328 75.247 49.7105 75.247 46.4773C73.7186 46.4773 72.2227 46.4773 70.6943 46.4773C70.6943 46.3899 70.6943 46.3244 70.6943 46.2588C70.6943 43.5172 70.6943 40.7755 70.6943 38.0338C70.6943 37.6734 70.7377 37.302 70.8027 36.9415C71.1604 34.9972 72.1902 33.5226 73.9571 32.616C75.4963 31.8296 77.1114 31.7313 78.759 32.1682C79.843 32.4631 80.7318 33.0529 81.2955 34.0579C81.6641 34.7242 81.8266 35.4451 81.8266 36.1878C81.8375 39.5193 81.8266 42.8618 81.8266 46.1933C81.8266 46.2807 81.8158 46.3681 81.8158 46.4773C80.3199 46.4773 78.8457 46.4773 77.3715 46.4773C77.3715 49.7214 77.3715 52.9328 77.3715 56.1551C85.1869 56.1551 92.9807 56.1551 100.818 56.1551C100.818 53.0092 100.818 49.8853 100.818 46.6848C100.872 46.7941 100.894 46.8268 100.915 46.8705C102.205 49.5794 104.167 51.6985 106.66 53.3042C109.836 55.3468 113.348 56.3626 117.066 56.7995C119.093 57.0398 121.131 57.0617 123.169 56.9197C125.402 56.7667 127.603 56.4063 129.727 55.6526C132.361 54.7132 134.637 53.2495 136.372 50.9885C137.759 49.1753 138.583 47.1108 139.038 44.8935C139.114 44.5002 139.125 44.0852 139.168 43.681C134.843 43.681 130.562 43.681 126.28 43.681C126.269 43.8558 126.269 44.0087 126.258 44.1725C126.117 46.3462 124.871 47.9519 122.822 48.6182C121.76 48.9568 120.676 49.0005 119.581 48.8476C117.76 48.5963 116.405 47.6679 115.657 45.9421C115.061 44.5876 114.877 43.1458 114.833 41.6821C114.79 40.3713 114.801 39.0606 114.833 37.7607C114.866 36.4391 115.039 35.1392 115.505 33.894C116.026 32.5177 116.893 31.4691 118.302 30.9448C119.451 30.5188 120.633 30.4314 121.836 30.6171C123.299 30.8465 124.361 31.6439 125.044 32.9656C125.608 34.0579 125.825 35.2485 125.955 36.4609C126.009 36.9634 126.042 37.4658 126.085 37.9792C130.399 37.4986 134.702 37.0289 139.017 36.5483C138.876 35.3686 138.67 34.2435 138.334 33.1403C137.293 29.7214 135.266 27.089 132.231 25.2321C129.933 23.8339 127.418 23.0693 124.784 22.6761C123.31 22.4576 121.836 22.403 120.351 22.4358C118.15 22.4904 115.982 22.698 113.836 23.2004C111.386 23.7684 109.067 24.6532 106.931 25.9967C104.211 27.7116 102.097 29.9727 100.796 32.9437C99.9505 34.8552 99.5495 36.876 99.4736 38.9514C99.3761 41.4309 99.7229 43.8339 100.633 46.1496C100.677 46.2588 100.72 46.3681 100.764 46.4773C99.4736 46.4773 98.2162 46.4773 96.9371 46.4773C96.9371 46.3462 96.9371 46.2261 96.9371 46.1059C96.9371 41.9552 96.948 37.8154 96.9263 33.6646C96.9155 32.7362 96.8396 31.7968 96.6661 30.8793C96.135 28.0611 94.6391 25.8875 92.1677 24.4456C90.184 23.2878 88.0052 22.7963 85.7506 22.6106C83.8428 22.4576 81.9459 22.4904 80.0489 22.8181C78.4555 23.0912 76.938 23.5718 75.518 24.3364C73.7294 25.2976 72.2227 26.6084 70.922 28.1704C70.7268 28.3997 70.51 28.6182 70.3041 28.8367C70.2824 28.8257 70.2607 28.8039 70.2391 28.793C70.2391 26.5975 70.2391 24.4019 70.2391 22.1955C63.9304 22.1955 57.6434 22.1955 51.3455 22.1955C51.3455 25.4287 51.3455 28.6401 51.3455 31.8733C52.7872 31.8733 54.1964 31.8733 55.6272 31.8733C55.6272 36.7449 55.6272 41.6056 55.6272 46.4882C54.1855 46.4882 52.7655 46.4882 51.3347 46.4882C51.2913 49.7323 51.2913 52.9328 51.2913 56.1551ZM49.6545 22.1846C49.6545 18.7001 49.6545 15.2376 49.6545 11.7859C39.4219 11.7859 29.211 11.7859 19 11.7859C19 15.2594 19 18.7111 19 22.1955C20.9295 22.1955 22.8372 22.1955 24.745 22.1955C24.745 30.3003 24.745 38.3834 24.745 46.4882C22.8264 46.4882 20.9078 46.4882 19 46.4882C19 49.7323 19 52.9437 19 56.1551C29.2326 56.1551 39.4436 56.1551 49.6545 56.1551C49.6545 52.9219 49.6545 49.7214 49.6545 46.4773C47.7251 46.4773 45.8173 46.4773 43.9204 46.4773C43.9204 38.3615 43.9204 30.2785 43.9204 22.1846C45.839 22.1846 47.7359 22.1846 49.6545 22.1846ZM138.084 50.8246C138.084 53.8503 140.534 56.3189 143.537 56.3189C146.539 56.3189 149 53.8503 149 50.8356C149 47.7771 146.572 45.3195 143.548 45.3195C140.523 45.3195 138.084 47.7771 138.084 50.8246Z" fill="white"/>
<path d="M51.2913 56.1551C51.2913 52.9328 51.2913 49.7323 51.2913 46.4991C52.7221 46.4991 54.1421 46.4991 55.5838 46.4991C55.5838 41.6166 55.5838 36.7558 55.5838 31.8842C54.1529 31.8842 52.7329 31.8842 51.3021 31.8842C51.3021 28.651 51.3021 25.4396 51.3021 22.2064C57.5891 22.2064 63.8761 22.2064 70.1956 22.2064C70.1956 24.4129 70.1956 26.6084 70.1956 28.8039C70.2173 28.8148 70.239 28.8367 70.2607 28.8476C70.4666 28.6291 70.6834 28.4107 70.8785 28.1813C72.1793 26.6193 73.686 25.3085 75.4745 24.3473C76.8945 23.5827 78.4229 23.0912 80.0055 22.829C81.9024 22.5123 83.7994 22.4686 85.7072 22.6215C87.9618 22.8072 90.1406 23.2987 92.1242 24.4566C94.6065 25.8984 96.1024 28.0721 96.6227 30.8902C96.7961 31.7968 96.8828 32.7471 96.8828 33.6756C96.9154 37.8263 96.8937 41.9661 96.8937 46.1168C96.8937 46.237 96.8937 46.3571 96.8937 46.4882C98.1728 46.4882 99.4302 46.4882 100.72 46.4882C100.677 46.3681 100.633 46.2698 100.59 46.1605C99.6795 43.8449 99.3218 41.4418 99.4302 38.9623C99.5169 36.876 99.9179 34.8662 100.753 32.9546C102.064 29.9727 104.167 27.7116 106.888 26.0076C109.023 24.6641 111.343 23.7903 113.793 23.2113C115.939 22.7089 118.107 22.4904 120.307 22.4467C121.792 22.414 123.267 22.4795 124.741 22.687C127.375 23.0803 129.89 23.8339 132.188 25.243C135.223 27.089 137.25 29.7324 138.29 33.1513C138.626 34.2545 138.832 35.3795 138.973 36.5592C134.659 37.0398 130.356 37.5095 126.041 37.9901C125.998 37.4768 125.966 36.9743 125.911 36.4718C125.781 35.2594 125.565 34.0797 125.001 32.9765C124.318 31.6548 123.267 30.8574 121.792 30.628C120.589 30.4424 119.408 30.5297 118.259 30.9557C116.849 31.48 115.982 32.5177 115.462 33.9049C114.996 35.1502 114.822 36.4609 114.79 37.7717C114.757 39.0824 114.747 40.3932 114.79 41.693C114.833 43.1567 115.018 44.5985 115.614 45.953C116.373 47.6788 117.717 48.6073 119.538 48.8585C120.633 49.0114 121.716 48.9787 122.779 48.6291C124.827 47.9737 126.074 46.3571 126.215 44.1835C126.226 44.0305 126.226 43.8667 126.237 43.6919C130.529 43.6919 134.8 43.6919 139.125 43.6919C139.082 44.0961 139.082 44.5112 138.995 44.9044C138.54 47.1218 137.716 49.1862 136.328 50.9994C134.605 53.2605 132.328 54.7241 129.684 55.6635C127.559 56.4172 125.359 56.7777 123.126 56.9306C121.088 57.0726 119.05 57.0507 117.023 56.8104C113.316 56.3844 109.793 55.3577 106.617 53.3151C104.124 51.7094 102.162 49.5903 100.872 46.8814C100.85 46.8378 100.828 46.805 100.774 46.6958C100.774 49.8962 100.774 53.0311 100.774 56.166C92.9372 56.166 85.1435 56.166 77.3281 56.166C77.3281 52.9546 77.3281 49.7323 77.3281 46.4882C78.8023 46.4882 80.2873 46.4882 81.7724 46.4882C81.7724 46.379 81.7832 46.2916 81.7832 46.2042C81.7832 42.8727 81.7832 39.5303 81.7832 36.1988C81.7832 35.4451 81.6206 34.7242 81.2521 34.0688C80.6884 33.0529 79.7995 32.4631 78.7156 32.1791C77.068 31.7422 75.4528 31.8405 73.9136 32.6269C72.1468 33.5336 71.117 34.9972 70.7593 36.9525C70.6942 37.3129 70.6509 37.6843 70.6509 38.0447C70.64 40.7864 70.6509 43.5281 70.6509 46.2698C70.6509 46.3353 70.6509 46.4008 70.6509 46.4882C72.1793 46.4882 73.686 46.4882 75.2035 46.4882C75.2035 49.7214 75.2035 52.9328 75.2035 56.166C67.2581 56.1551 59.2692 56.1551 51.2913 56.1551Z" fill="white"/>
<path d="M49.6545 22.1846C47.7359 22.1846 45.839 22.1846 43.9204 22.1846C43.9204 30.2785 43.9204 38.3615 43.9204 46.4773C45.8173 46.4773 47.7359 46.4773 49.6545 46.4773C49.6545 49.7105 49.6545 52.9218 49.6545 56.1551C39.4436 56.1551 29.2326 56.1551 19 56.1551C19 52.9437 19 49.7323 19 46.4882C20.9078 46.4882 22.8156 46.4882 24.745 46.4882C24.745 38.3834 24.745 30.3003 24.745 22.1955C22.8372 22.1955 20.9295 22.1955 19 22.1955C19 18.7111 19 15.2594 19 11.7859C29.211 11.7859 39.4219 11.7859 49.6545 11.7859C49.6545 15.2376 49.6545 18.7001 49.6545 22.1846Z" fill="white"/>
<path d="M138.084 50.8246C138.084 47.7771 140.523 45.3195 143.548 45.3195C146.572 45.3195 149 47.7771 149 50.8356C149 53.8503 146.539 56.3189 143.537 56.3189C140.534 56.3189 138.084 53.8503 138.084 50.8246Z" fill="white"/>
</svg>
