<svg width="168" height="54" viewBox="0 0 168 54" fill="none" xmlns="http://www.w3.org/2000/svg">
<path d="M53.4666 20.8289C53.4448 19.2866 52.7682 18.0644 51.4514 17.2642C50.7967 16.864 50.0983 16.4785 49.3635 16.2602C47.6248 15.7437 45.857 15.3363 44.1037 14.8634C43.5945 14.7252 43.0852 14.5651 42.5978 14.3542C42.0668 14.1286 41.783 13.6776 41.7394 13.1029C41.7176 12.8119 41.703 12.5209 41.7176 12.2299C41.7539 11.5897 42.1759 11.2187 42.8161 11.2405C43.4344 11.2623 43.7836 11.6115 43.8055 12.2517C43.8273 12.8119 43.8055 13.3648 43.8127 13.9249C43.8127 14.1068 43.8491 14.296 43.8782 14.5142C46.9628 14.5142 50.0037 14.5142 53.2047 14.5142C53.1392 13.4739 53.1319 12.5281 53.0083 11.6042C52.8046 10.0838 51.968 8.94159 50.6075 8.25774C49.88 7.894 49.0944 7.58117 48.2941 7.42112C44.7148 6.69363 41.1137 6.6427 37.5272 7.30472C35.9703 7.58845 34.479 8.11224 33.2059 9.10892C31.9691 10.0692 31.278 11.3278 31.2489 12.9137C31.2416 13.5175 31.2416 14.1286 31.2998 14.7252C31.4381 16.2093 32.1001 17.4169 33.3732 18.2172C34.0061 18.6173 34.6754 18.9665 35.3665 19.2575C36.9597 19.9195 38.6403 20.2905 40.328 20.6543C40.9901 20.7998 41.6521 20.9598 42.2996 21.1417C42.8088 21.2872 43.158 21.6219 43.2089 22.1602C43.2526 22.6185 43.2671 23.0841 43.2016 23.5352C43.1725 23.768 42.9979 24.0517 42.8015 24.1681C42.0304 24.6191 41.1938 24.1463 41.1574 23.2514C41.1356 22.7713 41.1574 22.2839 41.1501 21.7965C41.1501 21.6073 41.121 21.4182 41.1137 21.2436C40.3353 21.0835 31.8455 21.1053 31.3071 21.2654C31.3071 21.891 31.2562 22.5167 31.3144 23.1423C31.5181 25.3321 32.6602 26.8598 34.7263 27.5946C35.723 27.9438 36.7779 28.1912 37.8255 28.3367C40.67 28.7295 43.529 28.7004 46.3881 28.4312C47.8358 28.293 49.2689 28.0384 50.6003 27.3982C52.128 26.6634 53.1101 25.4921 53.3429 23.8043C53.4666 22.8149 53.4739 21.8183 53.4666 20.8289Z" fill="white"/>
<path d="M44.3436 31.6322C44.3436 35.8589 44.3436 40.1148 44.3436 44.3925C42.8886 44.5525 42.7577 44.4434 42.7577 43.163C42.7577 39.5764 42.7577 35.9899 42.7577 32.4033C42.7577 32.1196 42.7286 31.8359 42.7213 31.574C41.7392 31.3994 34.6097 31.4503 34.1005 31.6322C34.0859 31.785 34.0641 31.9523 34.0641 32.1196C34.0641 35.8007 34.0495 39.4819 34.0714 43.1703C34.0786 45.5055 35.1771 46.9751 37.4033 47.7244C38.5673 48.1173 39.7677 48.2337 40.9826 48.2337C44.7365 48.2337 48.4976 48.2337 52.2515 48.2337C52.4843 48.2337 52.7244 48.2118 52.9426 48.2045C53.1172 47.5644 53.1099 32.1196 52.9572 31.5667C52.0914 31.4212 44.9329 31.4649 44.3436 31.6322Z" fill="white"/>
<path d="M71.2977 40.2094C70.8903 39.8748 70.4538 39.5401 69.9809 39.3219C69.1661 38.9508 68.3295 38.6235 67.471 38.3761C66.0524 37.9614 64.612 37.6414 63.1933 37.2412C62.2185 36.9648 62.0512 36.652 62.1312 35.648C62.1676 35.1679 62.3858 34.9496 62.8514 34.9205C63.4116 34.8914 63.6808 35.1461 63.7244 35.7353C63.7535 36.2082 63.6298 36.6956 63.8335 37.1903C66.5326 37.1903 69.2097 37.1903 71.9961 37.1903C71.9961 36.7029 72.0033 36.2518 71.9961 35.8008C71.967 34.3022 71.2395 33.24 69.9591 32.5198C69.0788 32.0251 68.1258 31.7559 67.1437 31.5959C64.5174 31.1521 61.8839 31.1594 59.2503 31.5013C58.1445 31.6468 57.0606 31.9087 56.0348 32.3743C54.2961 33.1745 53.343 34.4549 53.474 36.4337C53.4813 36.5574 53.474 36.6738 53.474 36.7975C53.4667 38.1142 54.0051 39.1691 55.1109 39.8602C55.9038 40.3549 56.755 40.8059 57.6353 41.126C58.8866 41.5771 60.1888 41.8826 61.4619 42.2609C61.9712 42.4137 62.495 42.5447 62.9751 42.7556C63.5789 43.0175 63.8845 44.0651 63.5644 44.6253C63.5062 44.7199 63.397 44.8072 63.2952 44.8508C62.6477 45.1491 62.0657 44.7853 62.0439 44.0724C62.0294 43.6432 62.0439 43.2139 62.0439 42.8138C61.2582 42.632 54.0633 42.6465 53.4376 42.8284C53.4376 43.2139 53.4231 43.6213 53.4376 44.0287C53.5104 45.6583 54.2815 46.8514 55.7656 47.5062C56.5368 47.8408 57.3588 48.1027 58.1882 48.2409C60.9308 48.7138 63.688 48.6847 66.4453 48.3719C67.602 48.2409 68.7296 47.9499 69.7626 47.3752C70.8975 46.7423 71.676 45.8256 71.967 44.5453C72.1852 43.5704 72.1852 42.5738 72.0615 41.5844C71.9742 41.0315 71.7196 40.5513 71.2977 40.2094Z" fill="white"/>
<path d="M120.738 19.4395C121.473 19.8978 122.259 20.3197 123.074 20.6035C124.441 21.0763 125.86 21.4328 127.249 21.8402C127.693 21.9712 128.137 22.0876 128.559 22.2767C129.17 22.5532 129.476 23.5644 129.148 24.1537C129.097 24.2482 128.988 24.3355 128.886 24.3865C128.239 24.6847 127.657 24.321 127.635 23.608C127.62 23.1788 127.635 22.7496 127.635 22.2767C124.74 22.2767 121.939 22.2767 119.043 22.2767C119.043 22.7641 119.029 23.1934 119.043 23.6226C119.116 25.2231 119.894 26.3871 121.349 27.0418C122.048 27.3546 122.804 27.5947 123.554 27.7402C126.093 28.2276 128.661 28.2058 131.229 28.0094C132.538 27.9075 133.819 27.6602 135.019 27.0782C136.641 26.2852 137.514 24.983 137.638 23.1861C137.667 22.8005 137.645 22.4077 137.667 22.0221C137.733 20.6908 137.136 19.7378 135.994 19.1194C135.485 18.8429 134.961 18.5665 134.415 18.3919C133.193 17.999 131.956 17.6498 130.727 17.3006C130.028 17.1042 129.308 16.966 128.617 16.7477C127.766 16.4786 127.599 16.1876 127.635 15.2927C127.657 14.7326 127.897 14.4707 128.413 14.4561C128.974 14.4416 129.214 14.6889 129.228 15.3073C129.236 15.7583 129.236 16.2094 129.243 16.6386C130.152 16.835 136.707 16.7914 137.238 16.6022C137.238 16.1294 137.26 15.6492 137.231 15.1691C137.172 14.0415 136.685 13.1248 135.798 12.4264C135.077 11.8662 134.241 11.5461 133.368 11.3206C131.374 10.8114 129.345 10.7386 127.308 10.8114C125.562 10.8696 123.816 11.0442 122.172 11.6771C119.938 12.5355 118.912 13.7941 119 16.2167C119.036 17.6207 119.567 18.7047 120.738 19.4395Z" fill="white"/>
<path d="M4.06958 24.5684C4.06958 32.4835 4.06958 40.3187 4.06958 48.1902C7.25602 48.1902 10.3915 48.1902 13.5198 48.1902C13.7016 47.4336 13.6725 25.114 13.4907 24.5684C10.377 24.5684 7.25602 24.5684 4.06958 24.5684Z" fill="white"/>
<path d="M107.185 23.8989C107.324 25.5357 108.175 26.6779 109.717 27.2017C110.554 27.4854 111.456 27.6964 112.336 27.74C114.315 27.8346 116.308 27.8055 118.287 27.8274C118.425 27.8274 118.556 27.7691 118.673 27.74C118.673 26.1396 118.673 24.5754 118.673 23.0404C118.571 22.9968 118.534 22.9604 118.491 22.9531C117.96 22.9386 117.429 22.9459 116.897 22.924C116.068 22.8949 115.864 22.6912 115.857 21.8837C115.85 20.2832 115.857 18.69 115.857 17.0895C115.857 16.9076 115.894 16.7185 115.923 16.5148C116.832 16.3547 117.734 16.5657 118.585 16.3911C118.745 15.3217 118.709 11.6406 118.513 11.0658C117.676 11.0658 116.817 11.0658 115.85 11.0658C115.85 10.251 115.85 9.52354 115.85 8.74512C112.925 8.74512 110.103 8.74512 107.178 8.74512C107.164 9.04339 107.142 9.28346 107.142 9.52354C107.142 13.9758 107.142 18.4281 107.142 22.8877C107.142 23.2223 107.156 23.5642 107.185 23.8989Z" fill="white"/>
<path d="M82.1654 43.3158C81.3652 43.294 81.176 43.1048 81.176 42.3118C81.1688 40.6677 81.1688 39.0163 81.176 37.3722C81.176 37.1903 81.2197 37.0011 81.2488 36.7538C82.1291 36.7538 82.9657 36.7538 83.8459 36.7538C83.8459 34.9787 83.8459 33.2764 83.8459 31.5304C82.9438 31.4358 82.0781 31.574 81.1542 31.4285C81.1542 30.6501 81.1542 29.9299 81.1542 29.166C78.2297 29.166 75.3852 29.166 72.4607 29.166C72.4607 29.457 72.4607 29.6898 72.4607 29.9226C72.4607 34.4258 72.4607 38.9363 72.468 43.4395C72.468 43.7086 72.4607 43.9705 72.4898 44.2397C72.6353 45.9275 73.4865 47.0987 75.0942 47.6589C75.6835 47.8626 76.3091 48.059 76.9275 48.0881C79.1754 48.1754 81.4307 48.1827 83.6786 48.2191C83.7368 48.2191 83.8023 48.1536 83.8532 48.1245C83.9987 47.0114 83.9405 43.8177 83.7514 43.3231C83.2276 43.3158 82.6965 43.3303 82.1654 43.3158Z" fill="white"/>
<path d="M122.928 31.465C122.928 30.6429 122.928 29.9227 122.928 29.1588C120.011 29.1588 117.173 29.1588 114.271 29.1588C114.256 29.428 114.234 29.5953 114.234 29.7626C114.234 34.3604 114.234 38.9582 114.242 43.5632C114.242 43.9488 114.278 44.3344 114.343 44.72C114.562 46.0731 115.311 47.0407 116.584 47.5354C117.275 47.8046 118.017 48.0519 118.752 48.0883C120.949 48.1901 123.153 48.1829 125.358 48.2192C125.423 48.2192 125.489 48.161 125.561 48.1247C125.561 46.5605 125.561 44.9964 125.561 43.4614C125.474 43.4105 125.438 43.3668 125.394 43.3596C124.914 43.345 124.426 43.3377 123.946 43.3232C123.146 43.2941 122.964 43.1195 122.957 42.3265C122.95 40.6824 122.957 39.0309 122.957 37.3868C122.957 37.1977 122.993 37.0158 123.015 36.7975C123.881 36.6884 124.725 36.8485 125.59 36.6957C125.605 34.9424 125.634 33.2619 125.576 31.4723C124.652 31.465 123.823 31.465 122.928 31.465Z" fill="white"/>
<path d="M24.4175 28.0528C24.4175 34.7385 24.4175 41.4314 24.4175 48.1608C25.516 48.3208 32.6091 48.2626 33.0965 48.1098C33.2493 47.1714 33.1984 28.4602 33.0383 27.9801C31.9689 27.8346 24.9413 27.8928 24.4175 28.0528Z" fill="white"/>
<path d="M23.2911 28.031C23.2765 28.0165 23.2547 28.0019 23.2038 27.9583C20.3884 27.9583 17.5439 27.9583 14.6484 27.9583C14.6484 34.7167 14.6484 41.4315 14.6484 48.1318C15.4269 48.2846 22.76 48.2627 23.3056 48.1172C23.3275 48.0518 23.3638 47.9863 23.3638 47.9208C23.3711 41.4534 23.3711 34.9932 23.3711 28.5257C23.3711 28.3802 23.342 28.242 23.3202 28.0965C23.3275 28.0747 23.3056 28.0528 23.2911 28.031Z" fill="white"/>
<path d="M102.275 27.682C102.275 27.4855 102.275 27.2673 102.275 27.0563C102.275 25.4122 102.275 23.7608 102.275 22.1166C102.275 21.0763 102.26 20.036 102.282 18.9957C102.304 17.8462 102.871 17.126 103.992 16.8787C104.436 16.7841 104.901 16.7768 105.359 16.755C105.745 16.7332 106.123 16.7477 106.487 16.7477C106.676 16.0348 106.662 11.4588 106.465 10.855C104.887 10.9277 103.461 11.3715 102.311 12.7392C102.275 12.1208 102.246 11.6334 102.217 11.1169C99.3213 11.1169 96.4986 11.1169 93.5886 11.1169C93.5886 16.7113 93.5886 22.2185 93.5886 27.7183C94.3379 27.8929 101.715 27.8711 102.275 27.682Z" fill="white"/>
<path d="M113.551 36.5794C113.551 36.0774 113.492 35.5609 113.398 35.0662C113.18 33.9095 112.576 32.9856 111.528 32.4327C110.895 32.098 110.204 31.8361 109.506 31.647C108.094 31.2614 106.632 31.2105 105.177 31.2032C103.337 31.1959 101.496 31.1959 99.6554 31.2032C99.168 31.2032 98.6878 31.2105 98.2004 31.2469C96.2507 31.4142 94.592 32.1417 93.4789 33.844C93.4498 33.8949 93.3771 33.924 93.2243 34.0332C93.2243 33.1529 93.2243 32.3745 93.2243 31.5451C90.2925 31.5451 87.4552 31.5451 84.5088 31.5451C84.5088 32.971 84.5088 34.346 84.5088 35.7137C84.5088 37.0959 84.5088 38.4782 84.5088 39.8531C84.5088 41.2572 84.4943 42.6613 84.5161 44.0654C84.5307 45.433 84.4361 46.8007 84.5743 48.183C87.4989 48.183 90.3507 48.183 93.2534 48.183C93.2679 47.9065 93.2898 47.6737 93.2898 47.4337C93.2898 45.6149 93.2898 43.8035 93.2898 41.9847C93.2898 41.039 93.2752 40.0932 93.297 39.1475C93.3261 38.0053 93.9081 37.2996 95.0358 37.045C95.4577 36.9504 95.9015 36.9213 96.3307 36.9213C98.3386 36.9068 100.354 36.9141 102.362 36.9141C102.616 36.9141 102.871 36.885 103.191 36.8704C103.191 36.0702 103.191 35.3499 103.191 34.5788C103.569 34.5788 103.882 34.5497 104.188 34.5861C104.537 34.6224 104.784 34.848 104.806 35.1972C104.857 35.9392 104.879 36.6813 104.784 37.4888C104.486 37.4888 104.246 37.4888 104.006 37.4888C103.038 37.4888 102.063 37.4742 101.096 37.5033C99.5099 37.547 97.953 37.7725 96.5271 38.5291C95.3559 39.1475 94.4974 40.0423 94.2355 41.3736C94.0318 42.3994 94.0245 43.4543 94.2646 44.48C94.6138 46.0005 95.6469 46.939 97.0364 47.521C98.2586 48.0302 99.5535 48.2266 100.87 48.2266C104.893 48.2339 108.916 48.2339 112.94 48.2266C113.121 48.2266 113.311 48.1903 113.507 48.1684C113.529 47.9793 113.558 47.8338 113.558 47.6956C113.558 43.9926 113.565 40.2896 113.551 36.5794ZM104.799 44.5673C104.501 44.5673 104.246 44.5891 103.991 44.56C103.351 44.5018 103.191 44.3273 103.177 43.6943C103.169 43.1633 103.169 42.6322 103.177 42.0938C103.184 41.2499 103.453 40.9662 104.297 40.9153C104.435 40.908 104.581 40.9298 104.799 40.9444C104.799 42.1739 104.799 43.3233 104.799 44.5673Z" fill="white"/>
<path d="M155.615 27.0854C155.527 28.5477 155.651 29.9881 155.542 31.494C155.229 31.494 154.996 31.494 154.756 31.494C153.912 31.494 153.061 31.4868 152.217 31.5013C150.85 31.5304 149.511 31.7196 148.245 32.2579C146.339 33.0727 145.321 34.4768 145.343 36.6011C145.364 38.7763 145.335 40.9588 145.35 43.134C145.364 45.4692 146.441 46.9388 148.66 47.7027C149.838 48.1101 151.068 48.2337 152.305 48.2337C156.037 48.2337 159.761 48.2337 163.493 48.2337C163.726 48.2337 163.966 48.2119 164.25 48.1974C164.25 41.1406 164.25 34.1348 164.25 27.0781C161.369 27.0854 158.525 27.0854 155.615 27.0854ZM155.52 44.6908C155.244 44.6908 155.004 44.7126 154.771 44.6835C154.232 44.6181 154.065 44.4362 154.065 43.876C154.058 41.2207 154.058 38.5653 154.065 35.9027C154.065 35.3061 154.291 35.0806 154.887 35.0297C155.076 35.0151 155.273 35.0297 155.447 35.0297C155.615 35.5389 155.68 43.3886 155.52 44.6908Z" fill="white"/>
<path d="M73.0802 15.6199C73.0439 13.612 71.989 12.2079 70.0684 11.6332C69.1299 11.3495 68.126 11.1603 67.1439 11.1458C62.9535 11.0803 58.7631 11.0949 54.5727 11.0803C54.4345 11.0803 54.2963 11.124 54.1799 11.1458C54.0126 12.0115 54.0562 30.1044 54.2163 30.6063C55.1402 30.7446 62.2478 30.7009 62.808 30.5336C62.808 29.6897 62.808 28.824 62.808 27.8709C63.1354 27.8491 63.3463 27.8273 63.5573 27.8273C64.7941 27.7982 66.0308 27.8055 67.2603 27.74C68.3515 27.6818 69.4209 27.4563 70.4249 26.9979C72.0981 26.2414 73.0584 24.961 73.0875 23.0986C73.1166 20.6105 73.1239 18.1152 73.0802 15.6199ZM64.474 23.3605C64.474 23.8843 64.2266 24.168 63.7174 24.2553C63.4627 24.2989 63.1936 24.2626 62.9462 24.2626C62.7789 23.7242 62.728 15.8454 62.8807 14.6451C63.1717 14.6451 63.4336 14.616 63.6883 14.6523C64.2193 14.7251 64.4667 14.9943 64.474 15.5181C64.4812 18.137 64.4812 20.7488 64.474 23.3605Z" fill="white"/>
<path d="M92.8748 19.3958C92.8675 19.3958 92.8675 19.3958 92.8602 19.3958C92.8602 18.2827 92.8893 17.1696 92.8529 16.0566C92.7947 14.4415 92.0381 13.2048 90.685 12.3245C89.9211 11.8371 89.0918 11.517 88.2115 11.306C85.5125 10.6658 82.7917 10.644 80.0564 10.9932C78.6523 11.1678 77.2919 11.4879 76.0624 12.2299C74.6584 13.0738 73.7999 14.296 73.7635 15.9547C73.7126 18.2754 73.7199 20.6034 73.7635 22.9241C73.7926 24.4664 74.5856 25.6232 75.8514 26.4743C76.7317 27.0636 77.7138 27.3982 78.7323 27.6238C80.9512 28.1112 83.1918 28.1621 85.4543 27.9802C87.0112 27.8566 88.5316 27.5947 89.9502 26.9108C91.849 26.0015 92.8893 24.5246 92.8748 22.3785C92.8675 21.3819 92.8748 20.3925 92.8748 19.3958ZM83.0318 24.401C82.6026 24.2264 82.4934 23.899 82.5007 23.477C82.5153 22.1239 82.508 20.7635 82.508 19.4103C82.508 18.079 82.5007 16.7477 82.508 15.4164C82.508 14.7907 82.8063 14.4634 83.3373 14.4561C83.8902 14.4488 84.2467 14.8198 84.2467 15.4382C84.254 18.1227 84.2249 20.8144 84.2685 23.4989C84.2685 24.2264 83.5265 24.5974 83.0318 24.401Z" fill="white"/>
<path d="M82.5011 19.4031C82.5011 18.0718 82.4939 16.7405 82.5011 15.4092C82.5011 16.7405 82.5011 18.0718 82.5011 19.4031C82.5011 20.7563 82.5084 22.1167 82.4939 23.4698C82.5084 22.1167 82.5011 20.7636 82.5011 19.4031Z" fill="white"/>
<path d="M144.68 41.737C143.683 41.5842 136.656 41.6424 136.088 41.8243C136.088 42.5227 136.103 43.2429 136.081 43.9631C136.066 44.5233 135.819 44.7416 135.259 44.7343C134.713 44.7343 134.437 44.4942 134.429 43.9631C134.415 43.1193 134.422 42.2681 134.429 41.4169C134.429 41.2787 134.488 41.1477 134.531 40.944C137.936 40.944 141.319 40.944 144.702 40.944C144.745 40.784 144.796 40.6967 144.796 40.6094C144.789 39.1544 144.818 37.6994 144.753 36.2517C144.694 35.0077 144.112 33.9892 143.159 33.1817C142.366 32.5124 141.45 32.0686 140.453 31.8213C136.961 30.941 133.447 30.9337 129.963 31.8358C129.25 32.0177 128.551 32.3596 127.918 32.7525C126.645 33.5382 125.889 34.7167 125.852 36.2226C125.794 38.5433 125.78 40.8713 125.838 43.192C125.881 44.9598 126.791 46.2475 128.318 47.1132C129.17 47.5933 130.086 47.9062 131.047 48.0808C133.935 48.6118 136.83 48.5973 139.718 48.0589C140.89 47.8407 142.01 47.4406 142.978 46.7058C144.469 45.6 145.226 43.3739 144.68 41.737ZM134.466 35.2187C134.495 34.8549 134.917 34.593 135.332 34.6076C135.79 34.6221 136.139 34.8986 136.161 35.3423C136.19 35.9389 136.168 36.5354 136.168 37.2193C135.564 37.2193 135.07 37.2193 134.48 37.2193C134.4 36.5427 134.408 35.8807 134.466 35.2187Z" fill="white"/>
</svg>
