<svg width="172" height="39" viewBox="0 0 172 39" fill="none" xmlns="http://www.w3.org/2000/svg">
<g clip-path="url(#clip0_10968_23537)">
<path d="M25.2385 0.483346C24.2441 0.151046 23.1895 0 22.0746 0H6.70722C5.53207 0 4.47745 0.151046 3.54335 0.483346C2.48872 0.936483 1.73542 1.41983 1.31357 1.90318C0.771189 2.6282 0.5 3.26259 0.5 3.86677V14.1077C0.5 16.0411 3.06123 18.2463 8.21383 20.6933C13.3664 23.1402 15.9277 25.3455 15.9277 27.2789V32.6259C15.9277 32.9582 15.3552 33.3509 14.7826 33.3509C14.18 33.3509 13.6376 32.928 13.6376 32.6259V30.6925H0.5V35.0426C0.5 35.7072 0.771189 36.3718 1.31357 37.0364C1.82582 37.6406 2.57912 38.1239 3.54335 38.426C4.41718 38.7583 5.47181 38.9396 6.70722 38.9396H22.0746C23.2498 38.9396 24.3044 38.7583 25.2385 38.426C26.0822 38.1239 26.8355 37.6708 27.4683 37.0364C28.0107 36.4926 28.2819 35.828 28.2819 35.0426V24.8621C28.2819 22.8079 25.8411 20.6026 20.9597 18.1859C16.0783 15.7994 13.6376 13.6243 13.6376 11.6607V6.34392C13.6376 6.10225 14.18 5.6189 14.7826 5.6189C15.3552 5.6189 15.9277 6.10225 15.9277 6.34392V14.7421H28.2517V3.86677C28.2517 3.14175 27.9805 2.50736 27.4382 1.90318C26.9259 1.35941 26.2027 0.876065 25.2385 0.483346Z" fill="white"/>
<path d="M56.1542 0.271882C55.8529 0.151046 55.4009 0.0604183 54.7983 0H33.9769C33.3743 0.0604183 32.7716 0.181255 32.1991 0.332301C31.5965 0.604183 31.0842 0.906274 30.6925 1.29899C30.4515 1.6615 30.2707 2.02401 30.1501 2.41673V36.5229V36.5833C30.2707 37.0062 30.4515 37.3687 30.6925 37.6406C31.0541 38.0333 31.5664 38.3354 32.1991 38.6073C32.7716 38.8187 33.3743 38.9698 33.9769 39H54.7983C55.2502 38.9698 55.7022 38.8792 56.1542 38.7281C56.6062 38.5771 57.0582 38.3052 57.48 37.8823C57.6307 37.7312 57.7512 37.4593 57.8416 37.0666V1.93338C57.7211 1.54067 57.6005 1.26878 57.48 1.08753C57.1184 0.725019 56.6664 0.483346 56.1542 0.271882ZM45.5175 32.6561C45.3669 33.1394 45.0053 33.3811 44.3725 33.3811C43.8301 33.3811 43.4384 33.1394 43.2275 32.6561V6.34392C43.4384 5.86057 43.8301 5.6189 44.3725 5.6189C45.0053 5.6189 45.397 5.86057 45.5175 6.34392V32.6561Z" fill="white"/>
<path d="M75.0771 32.6561C74.9264 33.1394 74.5649 33.3811 73.9321 33.3811C73.3897 33.3811 72.998 33.1394 72.7871 32.6561V0H59.7097V36.5229V36.5833C59.8302 36.976 60.011 37.3083 60.2521 37.6406C60.6137 37.9729 61.1259 38.3052 61.7587 38.6073C62.3312 38.7885 62.9339 38.9396 63.5365 39H84.3578C84.8098 38.9396 85.2618 38.849 85.7137 38.7281C86.1657 38.5771 86.6177 38.3052 87.0396 37.8823C87.1902 37.7312 87.3107 37.4593 87.4011 37.0364V37.0062V0H75.0771V32.6561Z" fill="white"/>
<path d="M116.027 0.271882C115.514 0.0906274 114.942 0 114.339 0H89.2693V39H102.407V22.1433C102.558 22.1433 102.919 22.1433 103.462 22.1433C104.064 22.1433 104.486 22.385 104.697 22.8683V38.9698H117.714V22.6266C117.714 22.1433 117.533 21.7204 117.172 21.3277C116.931 20.9047 116.418 20.5724 115.665 20.3005C115.093 20.0891 114.4 19.9682 113.616 19.9682C114.369 19.9682 115.032 19.8474 115.665 19.5755C116.418 19.3036 116.931 19.0015 117.172 18.6088C117.533 18.2161 117.714 17.763 117.714 17.2796V2.17506C117.714 1.78234 117.563 1.38962 117.262 1.05732C116.961 0.69481 116.539 0.453137 116.027 0.271882ZM104.727 16.7963C104.516 17.2796 104.094 17.5213 103.492 17.5213C102.949 17.5213 102.588 17.5213 102.437 17.5213V5.07514C102.588 5.07514 102.949 5.07514 103.492 5.07514C104.094 5.07514 104.516 5.34702 104.727 5.86057V16.7963Z" fill="white"/>
<path d="M171.5 6.79706V0H149.202V39H171.5V31.1758H163.033V23.4121H171.5V15.6181H163.033V6.79706H171.5Z" fill="white"/>
<path d="M1.70529 30.1488H3.72414V25.4663H4.8993V24.4996H0.5V25.4663H1.70529V30.1488Z" fill="white"/>
<path d="M5.47192 24.4996V30.1488H7.12919V27.8831H8.15369V30.1488H9.84109V24.4996H8.15369V26.7653H7.12919V24.4996H5.47192Z" fill="white"/>
<path d="M13.6678 25.4663V24.4996H10.4136V30.1488H13.6678V29.0008H12.3722V27.8831H13.6678V26.7653H12.3722V25.4663H13.6678Z" fill="white"/>
<path d="M145.556 0.271882C145.104 0.151046 144.652 0.0604183 144.2 0H123.379C122.776 0.0604183 122.174 0.181255 121.601 0.332301C120.999 0.543765 120.486 0.906274 120.095 1.35941C119.854 1.69171 119.673 2.05422 119.552 2.41673V36.5833C119.673 36.976 119.854 37.3385 120.095 37.701C120.547 38.1541 121.059 38.4864 121.601 38.6677C122.174 38.849 122.776 38.9698 123.379 39H144.2C144.652 38.9698 145.074 38.8792 145.556 38.7281C146.129 38.5771 146.551 38.3052 146.792 37.9427C146.973 37.7614 147.123 37.4593 147.244 37.0968V21.1162H134.92V32.6561C134.769 33.1394 134.407 33.3811 133.775 33.3811C133.232 33.3811 132.841 33.1394 132.63 32.6561V6.34392C132.841 5.86057 133.232 5.6189 133.775 5.6189C134.407 5.6189 134.799 5.86057 134.92 6.34392V17.8838H147.244V1.93338C147.123 1.54067 146.973 1.29899 146.792 1.11774C146.49 0.755228 146.069 0.483346 145.556 0.271882Z" fill="white"/>
</g>
<defs>
<clipPath id="clip0_10968_23537">
<rect width="171" height="39" fill="white" transform="translate(0.5)"/>
</clipPath>
</defs>
</svg>
