<svg width="168" height="70" viewBox="0 0 168 70" fill="none" xmlns="http://www.w3.org/2000/svg">
<path d="M86.7107 34.9746C86.7107 54.0608 71.2377 69.5321 52.1498 69.5321C33.065 69.5321 17.5923 54.0598 17.5923 34.9746C17.5923 15.8867 33.066 0.413676 52.1498 0.413676C71.237 0.413676 86.7107 15.886 86.7107 34.9746Z" fill="#009BFF"/>
<path d="M108.657 7.55811C105.948 7.55811 104.031 9.12422 104.031 11.4647C104.031 13.5934 105.615 14.5256 107.409 15.0719C108.745 15.4769 109.54 15.7222 109.54 16.5853C109.54 17.3074 108.991 17.6944 108.076 17.6944C106.863 17.6944 105.809 17.0075 105.172 16.2518L103.465 18.6086C104.225 19.4362 105.983 20.4044 108.253 20.4044C111.334 20.4044 113.038 18.6266 113.038 16.2518C113.038 13.9813 111.49 13.0655 109.485 12.4323C108.463 12.115 107.532 11.9044 107.532 11.1306C107.532 10.6382 107.92 10.2681 108.835 10.2681C109.889 10.2681 110.752 10.7614 111.26 11.3415L112.864 8.98247C111.968 8.13823 110.539 7.55811 108.657 7.55811ZM117.791 7.80419L113.199 20.1578H116.788L117.351 18.3803H122.013L122.595 20.1578H126.274L121.68 7.80419H117.791ZM91.6033 7.80474V15.6703C91.6033 18.7148 93.4523 20.4044 97.0576 20.4044C100.562 20.4044 102.515 18.7148 102.515 15.6703V7.80474H98.9777V14.6504C98.9777 16.0046 98.8357 17.3252 97.0576 17.3252C95.2823 17.3252 95.1403 16.0046 95.1403 14.6504V7.80474H91.6033ZM119.64 10.7425H119.744C119.815 11.2705 119.973 12.0106 120.167 12.5908L121.117 15.5649H118.266L119.217 12.5908C119.41 12.0106 119.569 11.2705 119.64 10.7425ZM108.305 22.3737C103.711 22.3737 101.529 25.7703 101.529 28.8143C101.529 31.8405 103.711 35.2191 108.305 35.2191C112.915 35.2191 115.1 31.8405 115.1 28.8143C115.1 25.7703 112.915 22.3737 108.305 22.3737ZM91.6579 22.6197V25.4881H94.7005V34.9733H98.2375V25.4881H101.28V22.6197H91.6579ZM131.89 22.6197L127.296 34.9733H130.885L131.447 33.1953H136.112L136.694 34.9733H140.37L135.776 22.6197H131.89ZM137.945 22.6197L142.555 30.5732V34.9733H146.283V30.5732L150.897 22.6197H147.13L145.459 25.664C145.106 26.3149 144.612 27.3012 144.508 27.9512H144.437C144.333 27.3012 143.839 26.3149 143.487 25.664L141.815 22.6197H137.945ZM116.368 22.6203V34.9733H120.924C125.217 34.9733 127.787 32.5807 127.787 28.7979C127.787 24.9427 125.288 22.6203 120.924 22.6203H116.368ZM108.289 25.4534C110.015 25.4534 111.454 26.5973 111.454 28.8143C111.454 31.013 110.015 32.141 108.289 32.141C106.598 32.141 105.156 31.013 105.156 28.8143C105.156 26.5973 106.598 25.4534 108.289 25.4534ZM119.905 25.4709H120.661C122.931 25.4709 124.144 26.5618 124.144 28.7979C124.144 31.0321 122.931 32.1219 120.661 32.1219H119.905V25.4709ZM133.736 25.5575H133.843C133.914 26.0866 134.072 26.8254 134.266 27.4077L135.216 30.382H132.365L133.315 27.4077C133.507 26.8254 133.665 26.0866 133.736 25.5575ZM105.243 39.9333L105.156 39.9497V43.1207H105.691V41.116L107.65 43.1808L107.71 43.1699V39.9934H107.174V41.9681L105.243 39.9333ZM108.859 39.9333L108.775 39.9497V43.1207H109.31V41.116L111.268 43.1808L111.329 43.1699V39.9934H110.793V41.9681L108.859 39.9333ZM140.731 39.9333L140.643 39.9497V43.1207H141.179V41.116L143.137 43.1808L143.197 43.1699V39.9934H142.665V41.9681L140.731 39.9333ZM99.6141 39.9388C98.7319 39.9388 97.9535 40.5861 97.9535 41.5584C97.9535 42.5226 98.721 43.1726 99.6141 43.1726C100.084 43.1726 100.447 43.0497 100.78 42.8312V41.4656H99.5376V41.9326H100.27V42.5499C100.084 42.6509 99.9064 42.7001 99.636 42.7001C99.016 42.7001 98.5243 42.2249 98.5243 41.5584C98.5243 40.9357 98.9286 40.4332 99.6387 40.4332C99.9282 40.4332 100.229 40.5287 100.48 40.6926L100.723 40.2665C100.403 40.0672 100.076 39.9388 99.6141 39.9388ZM124.884 39.9415C123.903 39.9415 123.199 40.6325 123.199 41.5584C123.199 42.4898 123.895 43.1726 124.884 43.1726C125.272 43.1726 125.646 43.0443 125.905 42.8776L125.744 42.4243C125.493 42.5745 125.168 42.6728 124.889 42.6728C124.201 42.6728 123.772 42.2167 123.772 41.5584C123.772 40.8975 124.19 40.4413 124.878 40.4413C125.154 40.4413 125.46 40.5369 125.709 40.679L125.894 40.2256C125.627 40.0644 125.272 39.9415 124.884 39.9415ZM128.09 39.9415C127.186 39.9415 126.493 40.6298 126.493 41.5584C126.493 42.4843 127.156 43.1726 128.06 43.1726C128.967 43.1726 129.658 42.4843 129.658 41.5584C129.658 40.6298 128.997 39.9415 128.09 39.9415ZM130.573 39.947L130.494 39.9524L130.36 43.1207H130.887L130.92 41.2443L131.914 42.7411H131.98L132.966 41.2471L133.009 43.1207H133.534L133.403 39.9524L133.315 39.947L131.961 42.02L130.573 39.947ZM94.3864 39.9497L92.9443 43.1207H93.4933L93.7965 42.4051H95.0338L95.3369 43.1207H95.9023L94.4629 39.9497H94.3864ZM102.832 39.9497L101.389 43.1207H101.938L102.244 42.4051H103.479L103.785 43.1207H104.345L102.908 39.9497H102.832ZM138.319 39.9497L136.874 43.1207H137.426L137.729 42.4051H138.969L139.27 43.1207H139.835L138.396 39.9497H138.319ZM135.367 39.9716C135.11 39.9716 134.85 39.9879 134.574 40.0235V43.1207H135.107V42.102C135.208 42.1074 135.317 42.1156 135.418 42.1156C136.219 42.1156 136.664 41.6622 136.664 41.0258C136.664 40.4386 136.227 39.9716 135.367 39.9716ZM112.394 39.9934V43.1207H114.303V42.6346H112.929V41.7687H114.169V41.2962H112.929V40.4769H114.303V39.9934H112.394ZM115.122 39.9934V40.4796H116.117V43.1207H116.652V40.4796H117.641V39.9934H115.122ZM118.282 39.9934V40.4796H119.277V43.1207H119.812V40.4796H120.803V39.9934H118.282ZM143.948 39.9934L145.049 41.8043V43.1207H145.584V41.807L146.685 39.9934H146.087L145.325 41.3154L144.56 39.9934H143.948ZM128.077 40.4195C128.672 40.4195 129.085 40.9057 129.085 41.5584C129.085 42.2085 128.672 42.6974 128.077 42.6974C127.481 42.6974 127.066 42.2085 127.066 41.5584C127.066 40.9057 127.481 40.4195 128.077 40.4195ZM135.457 40.4632C135.894 40.4632 136.109 40.7336 136.109 41.0422C136.109 41.3973 135.888 41.6486 135.405 41.6486C135.312 41.6486 135.214 41.6404 135.107 41.6322V40.4878C135.216 40.4714 135.337 40.4632 135.457 40.4632ZM94.4165 40.9357L94.859 41.9818H93.9713L94.4165 40.9357ZM102.862 40.9357L103.307 41.9818H102.416L102.862 40.9357ZM138.349 40.9357L138.792 41.9818H137.904L138.349 40.9357Z" fill="white"/>
</svg>
