<svg width="210" height="34" viewBox="0 0 210 34" fill="none" xmlns="http://www.w3.org/2000/svg">
<path d="M11.6802 10.8176V22.2C13.2168 21.3695 14.2928 19.9234 14.8151 18.2928L14.9382 18.3547C14.5998 22.4155 11.8337 26.4759 7.53064 26.4759C3.19666 26.4759 0 23.246 0 18.0774C0 14.2016 2.52036 11.7709 5.74791 9.58659C5.27645 9.46295 4.79045 9.40067 4.30309 9.40203C2.08978 9.40203 0.798938 10.9094 0.798938 12.4478H0.614533C0.583648 12.2323 0.583648 12.0173 0.583648 11.8018C0.583648 9.06382 2.02846 5.74124 5.53262 5.74124C7.77636 5.74124 9.49778 7.80234 12.1103 7.80234C13.1555 7.80234 14.4463 7.31002 14.9686 6.17174H15.0608C15.0304 8.17192 14.4159 10.233 11.6802 10.8176ZM13.3399 22.4769C11.8029 24.107 10.1432 25.4917 7.99166 25.4917C3.99606 25.4917 0.922481 22.3537 0.922481 17.8005C0.922481 15.1244 2.02891 13.6788 3.25843 11.9864H3.13535C2.36684 12.7555 0.338379 14.6934 0.338379 17.9851C0.338379 23.0306 3.50416 26.1377 7.65373 26.1377C10.5429 26.1377 12.51 24.1384 13.4016 22.5078L13.3399 22.4769ZM14.5689 7.55686C14.0466 8.54104 12.9402 9.80207 10.6964 9.80207C8.45267 9.80207 6.39332 8.26375 4.5797 8.26375C2.9196 8.26375 1.78274 9.37157 1.35215 10.2021L1.38304 10.2639C1.96714 9.67933 2.85828 9.09473 4.30309 9.09473C6.70036 9.09473 8.23738 10.5717 10.6655 10.5717C13.2477 10.5717 14.4154 8.87926 14.6307 7.58777L14.5689 7.55686ZM6.02406 9.67933C4.45661 11.3099 3.0118 13.0942 3.0118 16.5704C3.0118 18.4774 3.65722 20.4462 5.10203 21.6768L5.99317 21.2149V12.971L5.16335 13.4015L5.00983 13.0937L9.31292 10.7553C8.14517 10.5099 7.10006 9.98709 6.02406 9.67933ZM11.3418 10.879C11.1265 10.9094 10.9117 10.9094 10.6655 10.9094C10.2354 10.9094 9.83571 10.879 9.43601 10.7862V19.7689L5.40953 21.9541C6.23935 22.5691 7.25358 22.9383 8.54442 22.9383C9.58953 22.9383 10.5116 22.7228 11.3414 22.3537V10.879H11.3418ZM6.91565 12.4482L6.33155 12.7864V21.0313L6.91565 20.7235V12.4482ZM24.5895 13.617V24.2611C24.5895 27.2141 21.9769 29.2143 19.0569 29.7984L18.9956 29.6752C20.4404 28.9675 21.2702 27.5219 21.2702 25.9835V14.9703L19.6106 13.4633L18.9651 14.1706V22.7537L19.8872 23.5842V23.6461L17.3977 26.3531L14.5394 23.7383V23.6151L15.6458 22.446V8.8488L18.9038 5.37303L18.9651 5.40348V13.6479L21.6395 10.7562L24.4364 13.2792L24.9588 12.7251L25.2049 12.941L24.5895 13.617ZM15.9833 23.6765V23.6151L16.6287 22.9687V8.32557L15.9833 9.0029V22.6614L14.9995 23.6461V23.7074L17.3968 25.8608L17.8269 25.3685L15.9833 23.6765ZM22.2535 14.4779L20.2555 12.7555L19.8254 13.2169L21.6081 14.8171V25.8917C21.6081 26.63 21.4546 27.3987 21.178 27.8296L21.2089 27.8605C21.9774 27.3064 22.254 26.4759 22.254 25.3994V14.4779H22.2535ZM29.4767 19.8003V21.369L32.4581 23.707L34.1795 21.8614L34.4257 22.1073L30.4301 26.3831L26.3727 23.1224L25.7582 23.7683L25.512 23.5224L26.2192 22.7842V15.0012L32.0284 10.7558L35.0715 15.6781L29.4767 19.8003ZM27.2021 22.5078V14.6934L26.5566 15.1553V22.8155L30.3683 25.9226L30.8602 25.3999L27.2021 22.5078ZM29.5385 13.0324L29.4767 13.0633V19.3698L32.2123 17.37L29.5385 13.0324ZM30.3374 12.4173L29.7842 12.8169L32.4894 17.1546L33.0426 16.7545L30.3374 12.4173ZM55.1068 26.3527L50.8341 22.661L47.5761 26.3527L43.1499 22.5378V16.5086H42.2892C41.5207 16.5086 41.1215 17.0009 40.9366 17.5851H40.8444C40.7463 17.2032 40.695 16.8104 40.6909 16.4163C40.6909 15.6162 40.9062 13.5247 43.1499 13.5247V8.23329C43.1499 7.2182 41.9513 6.81816 41.9513 5.4644C41.9513 3.71151 43.611 1.98863 46.6541 0.911255L46.7772 1.00354C45.6708 1.64996 45.0867 2.26501 45.0867 3.58786C45.0867 5.6185 47.0538 5.09527 47.0538 8.29466V9.52522L50.6502 5.74124L54.4309 9.4634L57.9964 5.74124L61.4388 9.12519V20.5076L55.1068 26.3527ZM44.1337 22.0459V15.5553H42.4123C41.5207 15.5553 41.1215 16.1395 41.0597 16.6627L41.0901 16.6936C41.3976 16.3554 41.7051 16.1708 42.4119 16.1708H43.4874V22.385L47.5448 25.8922L48.0058 25.338L44.1337 22.0459ZM44.1337 7.92553C44.1337 6.66451 43.0273 6.23356 43.0273 5.43394C43.0273 4.32611 43.4574 3.40376 44.1337 2.54231L44.0724 2.51186C43.1504 3.21965 42.2897 4.35793 42.2897 5.46485C42.2897 6.57268 43.4883 7.09546 43.4883 8.08009V13.5251H44.1337V7.92553ZM50.6193 11.0022L48.2833 8.72561L47.0538 9.98663V20.8767L49.8508 23.2456L50.6193 22.3841V11.0022ZM51.6026 21.9845V10.5717L48.9901 7.98736L48.4982 8.47967L50.9572 10.8481V22.3228L55.1068 25.9222L55.5987 25.4603L51.6026 21.9845ZM57.5658 10.6021L55.6296 8.75606L54.5231 9.89435V20.8463L57.5354 23.4915L57.5658 23.461V10.6021ZM58.5491 10.1716L56.3054 7.98736L55.8444 8.47967L57.9037 10.4485V23.3074L58.5491 22.6919V10.1716ZM71.6097 26.3527L68.6896 23.707L66.0771 26.3527L62.8804 23.5224L62.4498 23.9838L62.2041 23.7379L62.7573 23.1533V14.9094L68.5361 10.7253L71.8559 13.3097L72.44 12.6942L72.6861 12.9405L72.0098 13.6479V22.1696L73.6386 23.6765L74.1614 23.1228L74.4071 23.3383L71.6097 26.3527ZM63.7411 22.9383V14.6321L63.0957 15.0935V23.246L66.0466 25.8917L66.5385 25.3994L63.7411 22.9383ZM68.6896 14.8475L66.1693 12.8787L66.0771 12.9405V21.8923L68.1673 23.707L68.6896 23.1842V14.8475ZM69.6734 23.2151V14.3861L67.0609 12.2632L66.4463 12.6937L69.028 14.7243V23.5224L71.6101 25.8604L72.0711 25.368L69.6734 23.2151ZM80.5543 16.324H83.72V22.9074L78.8328 26.3527C78.1874 25.6144 77.2649 25.0916 76.1281 25.0916C75.206 25.0916 74.468 25.3994 73.4846 26.2299L73.3311 26.1681L77.5116 20.0771H74.9294V14.3552L80.0628 10.7867C80.6773 11.279 81.1383 11.5554 81.9377 11.5554C82.5527 11.5554 83.4439 11.4322 84.1202 10.879L84.2433 10.9404L80.5543 16.324ZM77.1119 24.1993C76.2203 24.1993 75.5135 24.5071 74.8985 24.9375V24.9994C75.3904 24.7839 75.8823 24.7225 76.3434 24.7225C77.0501 24.7225 78.157 25.0612 78.8946 25.9226L79.6018 25.3999C79.0172 24.7225 78.3105 24.1993 77.1119 24.1993ZM80.4003 19.0311H78.6789L75.0825 24.2307L75.1134 24.292C76.0045 23.6461 76.8652 23.2156 77.9103 23.2156C78.8324 23.2156 79.7853 23.6461 80.3694 24.3843L80.4003 24.3539V19.0311ZM75.9128 19.0311V14.0788L75.2674 14.5402V19.7084H77.7568L78.2487 19.0315H75.9128V19.0311ZM82.337 13.0015C81.6916 13.4633 81.3228 13.7092 80.2468 13.7092C79.6318 13.7092 78.8941 13.4324 78.3105 12.8169L78.2492 12.8478V17.3391H79.4169L82.3679 13.0319L82.337 13.0015ZM80.8617 12.7246C80.3085 12.7246 79.6018 12.4482 79.1403 11.8327L78.3718 12.3555C78.9559 13.0633 79.5091 13.3706 80.3694 13.3706C80.9226 13.3706 81.722 13.2165 82.5518 12.5087L82.5823 12.4169C82.0604 12.6328 81.415 12.7246 80.8617 12.7246ZM81.3841 18.0165H79.386L78.925 18.6624H80.7387V24.6302L81.3841 24.1688V18.0165ZM94.3242 13.617V24.2611C94.3242 27.2141 91.7117 29.2143 88.7916 29.7984L88.7303 29.6752C90.1751 28.9675 91.0049 27.5219 91.0049 25.9835V14.9703L89.3453 13.4633L88.6999 14.1706V22.7537L89.6219 23.5842V23.6461L87.1324 26.3531L84.2742 23.7383V23.6151L85.3806 22.446V8.8488L88.6386 5.37303L88.6999 5.40348V13.6479L91.3742 10.7562L94.1712 13.2792L94.6935 12.7251L94.9397 12.941L94.3242 13.617ZM85.7181 23.6765V23.6151L86.3635 22.9687V8.32557L85.7181 9.00245V22.661L84.7343 23.6456V23.707L87.1315 25.8604L87.5617 25.368L85.7181 23.6765ZM91.9883 14.4779L89.9903 12.7555L89.5601 13.2169L91.3429 14.8171V25.8917C91.3429 26.63 91.1894 27.3987 90.9127 27.8296L90.9436 27.8605C91.7121 27.3064 91.9887 26.4759 91.9887 25.3994V14.4779H91.9883ZM99.9186 26.3527L97.2752 23.9225L96.6602 24.5684L96.414 24.322L97.1212 23.5533V14.663L95.8304 13.4324L95.3385 13.9865L95.0923 13.7402L97.8584 10.7253L100.317 12.9405L100.932 12.2637L101.209 12.4791L100.44 13.3097V22.2928L101.916 23.677L102.593 22.9692L102.838 23.2156L99.9186 26.3527ZM98.105 23.3383V14.1706L96.5067 12.6942L96.0765 13.1865L97.4596 14.5093V23.6461L99.9186 25.8608L100.38 25.3685L98.105 23.3383ZM99.027 10.4794L96.5067 8.17237L98.8122 5.71124L101.333 8.01827L99.027 10.4794ZM97.4596 7.6796L96.9986 8.14101L98.9961 10.0175L99.4572 9.49477L97.4596 7.6796ZM112.916 26.3527L110.241 23.9225V14.9398L108.612 13.4633L107.751 14.3861V22.6919L108.704 23.5838V23.707L106.184 26.3527L103.325 23.7379V23.6456L104.432 22.4769V14.7243L102.987 13.4015L102.403 14.0475L102.157 13.8015L104.954 10.7558L107.751 13.2478V13.8629L110.671 10.7558L113.407 13.2169L114.022 12.571L114.298 12.8169L113.561 13.5861V22.3841L114.944 23.6761L115.62 22.9378L115.866 23.1837L112.916 26.3527ZM104.801 23.6765V23.6151C104.801 23.6765 105.416 22.9996 105.416 22.9996V14.2625L103.664 12.6628L103.233 13.1242L104.77 14.5393V22.6605L103.817 23.6452V23.7065L106.184 25.8599L106.675 25.3371L104.801 23.6765ZM111.225 23.4306V14.417L109.319 12.6942L108.827 13.2169L110.579 14.7857V23.7379L112.884 25.8913L113.376 25.368L111.225 23.4306ZM121.583 31.89C120.569 30.7826 119.862 30.3212 118.909 30.3212C117.895 30.3212 116.727 30.7213 115.528 31.3672L115.436 31.2754L119.678 26.3531L116.665 23.9538L116.081 24.5693L115.836 24.3539L116.511 23.6156V14.9094L122.352 10.7253L125.61 13.3097L126.163 12.6942L126.409 12.9405L125.764 13.6479V24.1693C125.764 25.769 126.655 25.7076 126.655 26.9068C126.655 28.291 124.657 29.583 121.583 31.89ZM117.495 23.3688V14.663L116.85 15.1248V23.6461L119.893 26.1072L120.354 25.5531L117.495 23.3688ZM119.647 29.5216C118.633 29.5216 117.71 29.8294 116.85 30.4135V30.4753C117.403 30.2598 118.018 29.983 119.063 29.983C120.016 29.983 120.815 30.5058 121.614 31.429L122.229 30.9367C121.46 30.0448 120.538 29.5216 119.647 29.5216ZM123.397 26.5681C122.629 26.0758 122.444 25.5531 122.444 24.2302V23.6761L117.341 29.5825L117.372 29.613C118.356 29.0288 119.247 28.5983 120.692 28.5983C121.921 28.5983 122.751 29.0902 123.704 29.8903C124.288 29.398 124.688 28.9061 124.688 28.1369C124.688 27.5219 124.165 27.0605 123.397 26.5681ZM122.444 14.8475L119.893 12.8483L119.831 12.9096V22.3537L121.798 23.892L122.444 23.1537V14.8475ZM124.319 26.1377C123.519 25.5221 123.427 24.9994 123.427 23.6765V14.3248L120.845 12.2327L120.261 12.6328L122.782 14.6321V24.107C122.782 25.4299 122.843 25.7994 123.673 26.3527C124.411 26.845 124.995 27.3678 124.995 28.0756C124.995 28.2597 124.964 28.5674 124.964 28.5674L124.995 28.5983C125.149 28.4442 125.333 28.1983 125.333 27.7983C125.333 27.1218 124.995 26.6604 124.319 26.1377ZM131.696 26.3527L128.868 24.1379L128.284 24.7839L128.038 24.5375L128.714 23.7993V13.0324H126.931L126.87 12.971L127.946 11.3708H128.714V9.3102L131.972 5.83398L132.033 5.8958V11.3713H134.492L134.554 11.4331L133.478 13.0328H132.033V22.3541L133.724 23.6465L134.37 22.9387L134.615 23.1847L131.696 26.3527ZM129.698 8.78697L129.052 9.49477V11.3713H129.698V8.78697ZM129.698 23.492V13.0324H129.052V23.8611L131.665 25.8917L132.126 25.3994L129.698 23.492ZM144.666 13.9247V22.5382L139.472 26.3836L135.568 23.4306L135.107 23.9534L134.861 23.707L135.414 23.0919V14.663L140.855 10.7558L144.482 13.5865L145.066 12.971L145.312 13.2169L144.666 13.9247ZM136.399 22.7846V14.3861L135.753 14.8475V23.1228L139.441 25.9531L140.025 25.5226L136.399 22.7846ZM141.347 14.9398L138.765 12.9092L138.735 12.9401V22.1073L141.347 24.0761V14.9398ZM142.331 14.3861L139.472 12.1709L138.889 12.6014L141.686 14.7548V24.3225L142.331 23.8306V14.3861ZM156.408 26.3527L153.734 23.9225V14.9398L152.105 13.4633L151.244 14.3861V22.6919L152.197 23.5838V23.707L149.677 26.3527L146.818 23.7379V23.6456L147.925 22.4769V14.7243L146.48 13.4015L145.896 14.0475L145.65 13.8015L148.447 10.7558L151.244 13.2478V13.8629L154.164 10.7558L156.9 13.2169L157.514 12.571L157.791 12.8169L157.053 13.5861V22.3841L158.436 23.6761L159.113 22.9378L159.358 23.1837L156.408 26.3527ZM148.293 23.6765V23.6151C148.293 23.6765 148.908 22.9996 148.908 22.9996V14.2625L147.156 12.6628L146.726 13.1242L148.263 14.5393V22.6605L147.31 23.6452V23.7065L149.677 25.8599L150.169 25.3371L148.293 23.6765ZM154.717 23.4306V14.417L152.812 12.6942L152.32 13.2169L154.072 14.7857V23.7379L156.377 25.8913L156.869 25.368L154.717 23.4306ZM175.397 26.3527C174.536 25.4299 174.229 25.1221 173.214 24.8453V30.8749L173.153 30.9054L171.923 29.7975L168.358 33.0892L168.296 33.0587V24.7839C167.22 25.0298 166.083 25.584 164.976 26.6909L164.915 26.6604C165.13 24.2916 166.298 22.5382 168.295 21.8614V15.8626H167.65C166.759 15.8626 166.267 16.324 165.837 17.1546H165.745C165.652 16.8782 165.591 16.4468 165.591 15.7399C165.591 14.4475 166.543 13.0942 168.111 13.0942H168.295V9.77161L167.035 8.63332L166.42 9.24884L166.205 9.03336L169.31 5.7417L172.199 8.38739V11.1867L172.875 10.4485V6.91044H173.213V10.1407L177.301 5.74124L180.774 8.91017V22.2923L175.397 26.3527ZM168.297 23.6456C167.037 23.8915 166.146 24.6607 165.561 25.6758L165.592 25.7376C166.453 24.9994 167.252 24.6612 168.297 24.4148V23.6456ZM169.28 14.8171H167.59C166.422 14.8171 165.961 15.5553 165.93 16.4168L165.961 16.4472C166.33 15.8317 166.698 15.6167 167.436 15.5249H168.635V32.2905L169.28 31.675V14.8171ZM169.28 9.27929L167.743 7.86462L167.252 8.38739L168.635 9.6175V13.0937H169.28V9.27929ZM172.877 11.0326L172.201 11.7404V29.5525L172.877 30.168V11.0326ZM176.903 10.3253L175.09 8.66424L173.215 10.6949V21.5231C174.813 21.6772 175.92 22.1387 176.872 23.1842L176.903 23.1537V10.3253ZM173.215 23.6456V24.4457C174.26 24.6916 174.69 24.9994 175.428 25.8604L176.135 25.3067C175.397 24.3839 174.659 23.8306 173.215 23.6456ZM177.887 9.83343L175.796 7.89508L175.305 8.41785L177.241 10.2021V24.5071L177.887 24.0147V9.83343ZM191.503 13.9247V22.5382L186.308 26.3836L182.405 23.4306L181.943 23.9534L181.697 23.707L182.251 23.0919V14.663L187.691 10.7558L191.318 13.5865L191.902 12.971L192.148 13.2169L191.503 13.9247ZM183.235 22.7846V14.3861L182.589 14.8475V23.1228L186.278 25.9531L186.862 25.5226L183.235 22.7846ZM188.183 14.9398L185.602 12.9092L185.571 12.9401V22.1073L188.183 24.0761V14.9398ZM189.167 14.3861L186.308 12.1709L185.725 12.6014L188.522 14.7548V24.3225L189.167 23.8306V14.3861ZM198.634 16.324H201.8V22.9074L196.913 26.3527C196.267 25.6144 195.345 25.0916 194.208 25.0916C193.286 25.0916 192.548 25.3994 191.564 26.2299L191.411 26.1681L195.591 20.0771H193.009V14.3552L198.142 10.7867C198.757 11.279 199.218 11.5554 200.017 11.5554C200.632 11.5554 201.523 11.4322 202.2 10.879L202.323 10.9404L198.634 16.324ZM195.191 24.1993C194.3 24.1993 193.593 24.5071 192.978 24.9375V24.9994C193.47 24.7839 193.962 24.7225 194.423 24.7225C195.13 24.7225 196.236 25.0612 196.974 25.9226L197.681 25.3999C197.098 24.7225 196.39 24.1993 195.191 24.1993ZM198.481 19.0311H196.759L193.163 24.2307L193.194 24.292C194.085 23.6461 194.946 23.2156 195.991 23.2156C196.913 23.2156 197.866 23.6461 198.45 24.3843L198.48 24.3539V19.0311H198.481ZM193.993 19.0311V14.0788L193.347 14.5402V19.7084H195.837L196.329 19.0315H193.993V19.0311ZM200.417 13.0015C199.771 13.4633 199.403 13.7092 198.326 13.7092C197.711 13.7092 196.974 13.4324 196.39 12.8169L196.328 12.8478V17.3391H197.496L200.447 13.0319L200.417 13.0015ZM198.941 12.7246C198.388 12.7246 197.681 12.4482 197.22 11.8327L196.452 12.3555C197.036 13.0633 197.589 13.3706 198.45 13.3706C199.003 13.3706 199.802 13.2165 200.632 12.5087L200.663 12.4169C200.14 12.6328 199.495 12.7246 198.941 12.7246ZM199.464 18.0165H197.466L197.005 18.6624H198.818V24.6302L199.464 24.1688V18.0165ZM206.902 26.3527L204.074 24.1379L203.49 24.7839L203.245 24.5375L203.921 23.7993V13.0324H202.138L202.076 12.971L203.152 11.3708H203.92V9.3102L207.178 5.83398L207.24 5.8958V11.3713H209.699L209.761 11.4331L208.685 13.0328H207.24V22.3541L208.931 23.6465L209.576 22.9387L209.822 23.1847L206.902 26.3527ZM204.904 8.78697L204.259 9.49477V11.3713H204.904V8.78697ZM204.904 23.492V13.0324H204.259V23.8611L206.871 25.8917L207.332 25.3994L204.904 23.492Z" fill="white"/>
</svg>
