<svg width="237" height="20" viewBox="0 0 237 20" fill="none" xmlns="http://www.w3.org/2000/svg">
<path d="M234.765 17.253C234.078 17.253 233.506 17.8255 233.506 18.5982C233.506 19.3705 234.078 19.943 234.765 19.943C235.451 19.943 236.024 19.3705 236.024 18.5982C236.024 17.8255 235.451 17.253 234.765 17.253ZM189.214 19.8568H194.993V19.342L194.364 19.1988C193.792 19.0556 193.534 18.7411 193.534 17.9395V10.1575H194.879C195.709 10.1575 196.138 10.3577 196.195 12.1033L196.338 15.7654C196.453 19.0556 197.397 19.9715 199 19.9715C200.63 19.9715 201.06 18.8554 201.06 17.2819V16.6236H200.458V17.1098C200.458 18.1689 200.316 18.9128 199.915 18.9128C199.543 18.9128 199.514 18.6267 199.428 17.3104L199.257 14.7929C199.028 11.4164 198.599 10.2433 196.109 9.78518C198.484 9.15608 199.943 7.41049 199.943 4.92109C199.943 1.68785 197.397 0.142839 194.965 0.142839H185.208V0.657963L185.752 0.772306C186.782 1.00137 186.811 1.54501 186.811 3.8627V15.2502C186.811 17.797 186.095 19.0271 184.464 19.0271C183.005 19.0271 182.204 18.3118 182.204 15.5363V2.00276C182.204 1.20158 182.461 0.972891 183.09 0.829677L183.863 0.657963V0.142839H177.884V0.657963L178.512 0.829677C179.085 1.00139 179.285 1.23044 179.285 2.03126V15.3361C179.285 18.3403 181.031 20 183.692 20C186.353 20 187.669 18.3403 187.669 15.2502V2.83246C187.669 1.28745 187.984 0.743811 189.242 0.743811C190.244 0.743811 190.673 1.08723 190.673 2.03126V17.9395C190.673 18.7411 190.416 19.0271 189.843 19.1703L189.214 19.342V19.8568ZM227.612 2.03126C227.612 1.23044 227.869 0.972891 228.441 0.858172L229.214 0.686458V0.142839H223.263V0.657963L223.892 0.829677C224.465 1.00139 224.722 1.23044 224.722 2.03126V18.0546C224.722 18.8269 224.408 19.2562 223.52 19.2562C222.49 19.2562 222.347 18.9128 221.975 17.2249L218.313 0.0858479H217.168L213.678 16.6809C213.277 18.5405 213.077 18.9701 212.304 19.1988L211.817 19.342V19.8568H215.909V19.342L215.308 19.2273C214.45 19.0556 214.221 18.5982 214.65 16.4234L216.711 5.80812L218.971 17.0528C219.314 18.6837 219.286 18.9986 218.055 19.2273L217.454 19.342V19.8568H232.619V13.3333H232.075C231.789 16.3375 231.189 19.1703 228.757 19.1703H227.612V2.03126ZM218.685 14.5349V13.7626H214.822L214.708 14.5349H218.685ZM202.719 2.37469V16.0514C202.719 18.1116 202.719 19.0845 201.689 19.2562L201.174 19.342V19.8568H205.38V19.342C203.549 19.0845 203.549 18.455 203.549 16.2231V3.23322L202.862 2.60375L209.872 19.8568H211.073V3.94855C211.073 1.60236 211.073 1.08723 212.218 0.772306L212.619 0.657963V0.142839H208.298V0.657963L208.785 0.772306C210.244 1.02987 210.244 1.60237 210.244 3.77686V13.7337L210.53 13.6479L205.208 0.142839H201.117V0.657963L201.517 0.772306C201.976 0.91552 202.233 1.43066 202.719 2.37469ZM193.534 0.829677H194.679C195.823 0.829677 196.882 1.57351 196.882 5.29337C196.882 9.09872 196.081 9.47063 194.479 9.47063H193.534V0.829677ZM174.479 9.81404C174.479 18.0827 173.792 19.2562 172.304 19.2562C170.816 19.2562 170.158 18.0827 170.158 9.87103C170.158 1.91691 170.874 0.772306 172.304 0.772306C173.792 0.772306 174.479 1.91691 174.479 9.81404ZM177.598 9.98575C177.598 4.52067 175.852 0 172.304 0C168.728 0 167.039 4.52067 167.039 9.98575C167.039 15.4793 168.785 20 172.304 20C175.938 20 177.598 15.4793 177.598 9.98575ZM165.352 2.03126C165.352 1.23044 165.552 0.972891 166.123 0.829677L166.753 0.657963V0.142839H160.831V0.657963L161.545 0.829677C162.118 0.972891 162.433 1.17308 162.433 2.00276V15.7654C162.433 17.6823 162.261 19.2273 160.831 19.2273C159.915 19.2273 159.228 18.512 159.257 17.9972C159.342 17.1098 160.831 17.1675 160.945 15.7365C161.031 14.7066 160.372 14.2774 159.772 14.1919C158.885 14.0772 157.798 14.821 157.769 16.309C157.74 18.2259 158.999 19.9715 161.145 19.9715C163.52 19.9715 165.352 18.3691 165.352 15.3072V2.03126ZM69.7856 2.03126C69.7856 1.23044 70.0431 0.972891 70.6153 0.858172L71.388 0.686458V0.142839H65.4366V0.657963L66.0661 0.829677C66.6382 1.00139 66.8958 1.23044 66.8958 2.03126V18.0546C66.8958 18.8269 66.5808 19.2562 65.6938 19.2562C64.6639 19.2562 64.4922 18.9128 64.1203 17.2249L60.4578 0.0858479H59.3136L55.8228 16.6809C55.4224 18.5405 55.2218 18.9701 54.4495 19.1988L53.9628 19.342V19.8568H58.0546V19.342L57.4536 19.2273C56.5955 19.0556 56.3664 18.5982 56.7957 16.4234L58.8558 5.75076L61.1161 17.0528C61.4307 18.6837 61.4307 18.9986 60.2006 19.2273L59.5996 19.342V19.8568H74.7929V13.3333H74.2493C73.9632 16.3375 73.3622 19.1703 70.9302 19.1703H69.7856V2.03126ZM149.442 0.829677H150.072C151.846 0.829677 152.447 3.66213 152.647 6.66667H153.191V0.142839H142.804V6.66667H143.348C143.549 3.66213 144.15 0.829677 145.923 0.829677H146.553V17.9395C146.553 18.7411 146.296 19.0271 145.723 19.1703L144.979 19.342V19.8568H151.16V19.342L150.272 19.1418C149.729 18.9986 149.442 18.8269 149.442 17.9395V0.829677ZM136.367 9.95689L137.253 9.98575C138.541 10.0143 138.913 10.5009 139.171 13.6198H139.714V5.66528H139.171C138.856 8.15468 138.512 9.21306 137.282 9.24192L136.367 9.27044V0.829695H138.341C140.544 0.829695 141.031 3.60516 141.345 6.66668H141.889V0.142857H132.018V0.657981L132.647 0.829695C133.305 1.0014 133.477 1.40218 133.477 2.06015V17.9395C133.477 18.7411 133.22 19.0271 132.647 19.1703L132.018 19.3421V19.8568H142.175V13.3334H141.631C141.288 16.309 140.916 19.1703 138.341 19.1703H136.367V9.95689ZM125.58 9.95689L126.467 9.98575C127.754 10.0143 128.126 10.5009 128.384 13.6198H128.927V5.66528H128.384C128.069 8.15468 127.726 9.21306 126.496 9.24192L125.58 9.27044V0.829695H127.554C129.757 0.829695 130.244 3.66215 130.558 6.66668H131.102V0.142857H120.945V0.657981L121.86 0.829695C122.518 1.0014 122.69 1.40218 122.69 2.06015V17.9395C122.69 18.7411 122.432 19.0271 121.86 19.1703L121.231 19.3421V19.8568H131.388V13.3334H130.845C130.501 16.309 130.129 19.1703 127.554 19.1703H125.58V9.95689ZM113.82 0.829677H114.679C115.823 0.829677 116.882 1.57351 116.882 5.29337C116.882 9.04136 116.081 9.47063 114.478 9.47063H113.82V0.829677ZM109.5 19.8568H115.28V19.342L114.65 19.1988C114.078 19.0556 113.82 18.7411 113.82 17.9395V10.1575H114.879C115.708 10.1575 116.138 10.5009 116.195 12.1033L116.338 15.7654C116.453 19.0556 117.397 19.9715 118.999 19.9715C120.63 19.9715 121.059 18.8554 121.059 17.2819V16.6236H120.458V17.1098C120.458 18.1689 120.315 18.9128 119.915 18.9128C119.543 18.9128 119.514 18.6267 119.428 17.3104L119.256 14.7929C119.028 11.3306 118.57 10.2433 116.109 9.78518C118.484 9.15608 119.943 7.41049 119.943 4.92109C119.943 1.68785 117.397 0.142839 114.965 0.142839H109.5V0.657963L110.129 0.829677C110.702 1.00139 110.959 1.23044 110.959 2.03126V17.9395C110.959 18.7411 110.702 19.0271 110.129 19.1703L109.5 19.342V19.8568ZM105.122 0.829677H105.752C107.525 0.829677 108.126 3.66213 108.327 6.66667H108.87V0.142839H98.4839V6.66667H99.0275C99.2277 3.66213 99.8287 0.829677 101.603 0.829677H102.232V17.9395C102.232 18.7411 101.974 19.0271 101.403 19.1703L100.658 19.342V19.8568H106.696V19.342L105.952 19.1703C105.208 18.9986 105.122 18.4265 105.122 17.9395V0.829677ZM98.5124 14.7351C98.5124 8.86964 92.0748 7.32464 92.0748 3.06152C92.0748 2.14599 92.4182 0.772306 93.8485 0.772306C95.9086 0.772306 96.6813 3.43343 97.0248 6.66667H97.5684V0.142839H97.225C97.0817 0.772315 96.8242 1.05874 96.4526 1.05874C95.7943 1.05874 95.4509 0.0284955 93.8774 0.0284955C91.4453 0.0284955 89.7856 2.06013 89.7856 4.72088C89.7856 9.55648 96.2236 11.5878 96.2236 16.0514C96.2236 18.0827 95.2792 19.2273 93.9917 19.2273C92.0748 19.2273 90.8158 16.9673 90.4724 13.3333H89.9288V19.8568H90.2722C90.5583 18.9128 90.9302 18.8269 91.2448 18.8269C91.7887 18.8269 92.3609 19.9715 94.0202 19.9715C96.567 19.9715 98.5124 17.7685 98.5124 14.7351ZM79.7713 2.03126C79.7713 1.23044 80.0289 0.972891 80.601 0.858172L81.3737 0.686458V0.142839H75.4224V0.657963L76.0518 0.829677C76.624 1.00139 76.8815 1.23044 76.8815 2.03126V17.9395C76.8815 18.7411 76.624 19.0271 76.0518 19.1703L75.4224 19.342V19.8568H84.7787V13.3333H84.2347C83.949 16.3375 83.348 19.1703 80.9159 19.1703H79.7713V2.03126ZM60.8297 14.5349V13.7626H56.9674L56.8527 14.5349H60.8297ZM44.292 19.9142H45.4651L48.1258 5.83699H47.7254L50.6437 19.9142H51.674L55.1648 3.31909C55.5367 1.5735 55.7369 0.97288 56.4237 0.800802L56.9674 0.657963V0.142839H52.933V0.657963L53.5339 0.772306C54.3921 0.944015 54.5923 1.45914 54.1919 3.57627L51.9316 14.7066H52.275L49.9858 2.97566C49.7567 1.85955 49.6139 0.944015 50.5583 0.772306L51.1874 0.657963V0.142839H45.6653V0.657963L46.0372 0.743811C46.6097 0.886654 46.6956 1.23045 46.9243 2.3177L47.8113 6.5808L47.6396 4.00554L45.6653 14.4206H45.9229L43.6052 2.97566C43.3476 1.80256 43.2617 0.915519 44.1773 0.743811L44.6069 0.657963V0.142839H38.9701V0.657963L39.5138 0.800802C40.0285 0.944016 40.3149 1.20158 40.6584 2.77509L44.292 19.9142ZM29.0129 9.95689L29.8999 9.98575C31.1874 10.0143 31.5593 10.5009 31.8168 13.6198H32.3605V5.66528H31.8168C31.5023 8.15468 31.1589 9.21306 29.9284 9.24192L29.0129 9.27044V0.829695H30.9872C33.1901 0.829695 33.6768 3.66215 33.9913 6.66668H34.5349V0.142857H24.6639V0.657981L25.2934 0.829695C25.9513 1.0014 26.1231 1.40218 26.1231 2.06015V17.9395C26.1231 18.7411 25.8655 19.0271 25.2934 19.1703L24.6639 19.3421V19.8568H34.8214V13.3334H34.2774C33.9343 16.309 33.5624 19.1703 30.9872 19.1703H29.0129V9.95689ZM11.0156 19.8568H16.8811V19.342L16.2232 19.1988C15.708 19.0845 15.3646 18.7411 15.3646 17.9395V10.129H19.6851V17.9395C19.6851 18.7411 19.342 19.0845 18.8269 19.1988L18.1689 19.342V19.8568H24.0344V19.342L23.405 19.1703C22.8328 19.0271 22.5749 18.7122 22.5749 17.9114V2.03126C22.5749 1.23044 22.8328 0.972891 23.405 0.829677L24.0344 0.657963V0.142839H18.1689V0.657963L18.8269 0.829677C19.3132 0.972891 19.6851 1.17308 19.6851 2.00276V9.35627H15.3646V2.00276C15.3646 1.20158 15.6795 0.972891 16.2232 0.829677L16.8811 0.657963V0.142839H11.0156V0.657963L11.6451 0.829677C12.2176 1.00139 12.4748 1.23044 12.4748 2.03126V17.9395C12.4748 18.7411 12.2176 19.0271 11.6451 19.1703L11.0156 19.342V19.8568ZM6.63781 0.829677H7.26765C9.04136 0.829677 9.64234 3.66213 9.84254 6.66667H10.3862V0.142839H0V6.66667H0.543621C0.743825 3.66213 1.34481 0.829677 3.11851 0.829677H3.74799V17.9395C3.74799 18.7411 3.4908 19.0271 2.91831 19.1703L2.17449 19.342V19.8568H8.35489V19.342L7.46786 19.1418C6.92424 18.9986 6.63781 18.8269 6.63781 17.9395V0.829677Z" fill="white"/>
</svg>
