<svg width="119" height="40" viewBox="0 0 119 40" fill="none" xmlns="http://www.w3.org/2000/svg">
<g clip-path="url(#clip0_11116_2808)">
<path d="M5.14008 0C5.48775 0 5.83542 0 6.18309 0C41.3672 0 76.5514 0 111.736 0C113.717 0 115.351 0.7298 116.742 2.1894C117.298 2.74544 117.403 3.54474 117.855 4.17029C118.063 4.34405 117.994 4.69157 118.202 4.86533C118.202 5.21286 118.202 5.56038 118.202 5.90791C118.202 15.6733 118.202 25.4387 118.202 35.2042C117.994 35.3779 118.063 35.7255 117.855 35.8992C117.855 36.0035 117.855 36.1425 117.855 36.2467C117.715 36.351 117.646 36.49 117.507 36.5943C117.507 36.6985 117.507 36.8375 117.507 36.9418C117.368 37.046 117.298 37.1851 117.159 37.2893C117.055 37.5326 116.916 37.7411 116.812 37.9844C116.672 38.0886 116.568 38.2276 116.464 38.3319C116.36 38.4361 116.22 38.5404 116.116 38.6794C115.734 38.8879 115.386 39.0964 114.969 39.2702C113.926 39.722 112.848 40.0695 111.666 40.0695C76.4123 40.0348 41.1239 40.0695 5.87018 40.0695C5.62682 40.0695 5.41821 40.0695 5.17485 40.0695C5.00101 39.861 4.65334 39.9305 4.47951 39.722C3.7494 39.2702 2.88023 39.0617 2.25442 38.4014C1.03758 37.1156 0.307472 35.6559 0.307472 33.8836C0.307472 24.9522 0.342239 16.0209 0.272705 7.12424C0.272705 5.00434 0.89851 3.30148 2.04582 1.73762C2.18489 1.63336 2.28919 1.52911 2.39349 1.3901C2.63686 1.28584 2.84546 1.14683 3.08883 1.04257C3.19313 0.903562 3.3322 0.834057 3.4365 0.695048C3.5408 0.695048 3.67987 0.695048 3.78417 0.695048C3.88847 0.556038 4.02754 0.486533 4.13184 0.347524C4.23614 0.347524 4.37521 0.347524 4.47951 0.347524C4.65334 0.13901 4.96624 0.208514 5.14008 0Z" fill="#131424"/>
<path d="M18.8119 28.5617C18.0232 28.404 17.2662 28.6878 16.6353 28.2148C16.1621 27.8995 15.689 27.6788 15.689 26.9851C15.689 22.9176 15.689 18.8816 15.689 14.7826C21.0515 14.7826 26.3194 14.7826 31.745 14.7826C31.745 15.224 31.745 15.697 31.745 16.1384C31.745 19.5753 31.745 23.0122 31.745 26.4491C31.745 26.8905 31.9028 27.3635 31.4296 27.7419C30.9249 28.1833 30.3886 28.5301 29.6947 28.4986C29.3792 28.4986 29.0638 28.4986 28.6221 28.4986C28.6221 29.0977 28.5906 29.6968 28.5906 30.2959C28.5906 30.9265 28.496 31.5571 28.6221 32.1562C28.8745 33.512 27.2342 34.521 26.004 34.0796C25.2469 33.7958 24.8368 33.0076 24.8368 32.1247C24.8368 31.4941 24.8368 30.8634 24.8368 30.2643C24.8368 29.6968 24.8368 29.1292 24.8368 28.5301C24.0798 28.5301 23.4173 28.5301 22.6287 28.5301C22.6287 29.6968 22.5972 30.895 22.6603 32.0616C22.6918 32.6292 22.4395 33.0391 22.1871 33.449C22.0294 33.7328 21.777 34.0796 21.3985 34.1111C20.9253 34.1427 20.2944 34.3003 20.0105 34.0796C19.5058 33.6697 18.7803 33.3229 18.8434 32.3769C18.8749 31.1472 18.8119 29.886 18.8119 28.5617Z" fill="#A3C538"/>
<path d="M20.0737 7.21508C21.0516 7.27814 21.9664 6.96283 22.8811 6.74211C23.3543 6.61599 23.9537 6.45833 24.206 6.64752C24.8684 7.18355 25.6886 6.71058 26.3826 7.18355C26.8873 7.53039 27.2658 7.18355 27.6759 6.5214C27.9913 6.0169 28.1491 5.32321 28.843 5.07096C28.9692 5.38628 29.0007 5.63853 28.8115 5.92231C28.5591 6.33221 28.4014 6.80518 28.1175 7.18355C27.8336 7.56192 28.0229 7.78264 28.2752 7.9403C29.3477 8.50786 30.0417 9.39073 30.7041 10.3367C31.4928 11.4403 31.8397 12.6069 31.7136 13.9943C26.3826 13.9943 21.1147 13.9943 15.7837 13.9943C15.3736 12.8592 15.8783 11.7556 16.3515 10.7781C17.0139 9.48532 18.0549 8.41327 19.4428 7.78264C19.6952 7.71958 19.4428 7.0259 20.0737 7.21508Z" fill="#A3C439"/>
<path d="M60.8921 30.0436C60.5451 30.0436 60.1981 29.9806 59.9142 30.0436C58.6524 30.2959 58.2108 29.5391 57.7377 28.5932C57.296 27.6788 56.6336 26.859 56.0973 25.9761C55.5926 25.1563 55.0879 24.305 54.6148 23.4536C54.4886 23.5167 54.457 23.5167 54.4255 23.5482C54.3939 23.5798 54.3624 23.6428 54.3624 23.6743C54.3624 25.7554 54.3624 27.8365 54.3624 29.9806C53.6684 29.9806 53.006 29.9806 52.2489 29.9806C52.2805 30.0121 52.2489 29.9806 52.2174 29.949C52.1858 29.9175 52.1543 29.8544 52.1543 29.8229C52.1543 26.386 52.1543 22.9491 52.1543 19.5438C52.312 19.4807 52.3751 19.4176 52.4697 19.4176C53.1953 19.4807 54.1416 19.1023 54.5517 19.5753C54.9617 20.0483 55.2772 20.7104 55.5926 21.3095C56.4443 22.8545 57.3907 24.3365 58.4001 25.7869C58.4632 25.85 58.5578 25.9131 58.7155 26.0392C58.7155 23.8005 58.7155 21.6248 58.7155 19.4492C59.5041 19.4492 60.1666 19.4492 60.8921 19.4492C60.8921 22.9491 60.8921 26.4176 60.8921 30.0436Z" fill="white"/>
<path d="M80.7017 29.9806C80.6386 30.0121 80.6071 30.0752 80.5756 30.0436C79.8185 29.9806 78.9353 30.3274 78.3044 29.886C77.7366 29.4761 77.5788 28.6563 77.2634 27.9941C77.1688 27.7734 77.0741 27.5211 76.948 27.3635C76.6325 26.9536 76.6325 26.2914 76.2855 26.1022C75.8439 25.8815 75.1815 25.9761 74.519 25.9446C74.519 27.332 74.519 28.6563 74.519 30.0121C73.762 30.0121 73.0995 30.0121 72.374 30.0121C72.374 26.5121 72.374 22.9807 72.374 19.4176C74.0459 19.4176 75.7177 19.3546 77.3896 19.4492C78.052 19.4807 78.746 19.6384 79.2507 20.2059C79.7239 20.7419 80.197 21.1203 80.2286 22.0032C80.2601 23.0437 80.197 23.8951 79.5346 24.5887C79.3453 24.7779 79.1876 24.9671 78.9668 25.1248C78.5883 25.4401 78.5567 25.6293 78.8406 26.1338C79.5346 27.332 80.0709 28.6563 80.7017 29.9806Z" fill="#FEFEFE"/>
<path d="M62.5637 19.4176C63.9201 19.4176 65.245 19.2915 66.5383 19.4491C68.2733 19.6383 69.8189 20.5212 70.3867 22.4446C70.8284 23.9581 70.8284 25.5347 70.3867 27.0482C69.8189 28.9716 68.2733 29.8544 66.5383 30.0436C65.245 30.1697 63.9201 30.0751 62.5637 30.0751C62.5637 26.5437 62.5637 23.0437 62.5637 19.4176Z" fill="white"/>
<path d="M96.8525 30.0436C96.8525 26.4806 96.8525 23.0122 96.8525 19.4176C98.2089 19.4176 99.5654 19.3861 100.89 19.4176C102.373 19.4492 104.234 20.805 104.676 22.1924C105.18 23.7374 105.086 25.3139 104.707 26.9536C104.486 27.9941 103.824 28.6562 103.098 29.2553C102.499 29.7283 101.71 30.0121 100.922 30.0436C99.5654 30.1067 98.2089 30.0436 96.8525 30.0436Z" fill="white"/>
<path d="M81.7114 24.6833C81.743 23.9266 81.743 23.2014 81.9953 22.4761C82.6578 20.6789 84.235 19.4492 86.1276 19.4492C86.6323 19.4492 87.1371 19.3861 87.6418 19.5437C89.7237 20.3005 90.7016 22.0662 90.7962 23.8004C90.8278 24.4311 90.8278 25.0617 90.7962 25.6608C90.7016 27.4265 89.7552 29.2553 87.6418 29.886C85.5598 30.5481 82.8786 29.6652 81.9638 27.0166C81.7114 26.2283 81.743 25.4716 81.7114 24.6833Z" fill="white"/>
<path d="M41.1138 30.0436C41.6816 28.5616 42.2178 27.2689 42.691 25.9761C43.0695 24.9356 43.4165 23.8635 43.8266 22.8545C44.1105 22.1293 44.3944 21.4356 44.6152 20.6789C44.9306 19.5753 45.183 19.5122 46.3186 19.3861C47.1703 19.2915 47.3911 19.6383 47.6119 20.332C48.1166 21.8455 48.7791 23.2644 49.3153 24.7779C49.6623 25.7869 50.0408 26.7644 50.4194 27.7418C50.6402 28.3094 50.7979 28.94 51.1133 29.476C51.3341 29.8544 51.1764 30.0436 50.7348 30.0121C50.1985 30.0121 49.6938 29.9805 49.1576 30.0121C48.716 30.0436 48.5898 29.8229 48.6529 29.476C48.7475 28.94 48.3059 28.5616 48.3059 28.0571C48.3059 27.7734 47.9589 27.4896 47.5173 27.5211C46.7287 27.5526 45.9401 27.5211 45.1514 27.5211C44.3313 27.5211 44.0789 27.7418 43.9528 28.6247C43.9212 28.8139 43.9843 29.0346 43.9528 29.2553C43.8266 29.7283 43.385 30.0436 42.9118 30.0436C42.344 30.0751 41.7762 30.0436 41.1138 30.0436Z" fill="white"/>
<path d="M15.0265 20.1429C15.0265 21.341 15.058 22.5392 15.0265 23.7374C14.9949 24.4941 14.7741 25.1248 13.9224 25.4401C12.6291 25.9446 11.3042 25.2509 11.2727 23.8635C11.2727 21.3726 11.2727 18.8816 11.2727 16.3906C11.2727 15.2871 11.9982 14.4672 13.0707 14.4357C13.954 14.4042 14.9949 15.0348 15.0265 16.3906C15.058 17.6204 15.0265 18.8816 15.0265 20.1429Z" fill="#A2C439"/>
<path d="M36.0981 20.0482C36.0981 21.341 36.0981 22.6338 36.0981 23.9581C36.0981 24.7779 35.4041 25.5347 34.5209 25.6923C33.89 25.8184 32.9437 25.377 32.6282 24.7779C32.439 24.4311 32.2812 24.1158 32.2812 23.6743C32.3128 21.2779 32.3128 18.8816 32.2812 16.4852C32.2812 15.5393 32.7229 14.9087 33.5746 14.5618C34.3947 14.215 34.9941 14.6564 35.625 15.0978C36.0035 15.3816 36.0981 15.7285 36.0666 16.1699C36.0666 17.4311 36.0981 18.7555 36.0981 20.0482Z" fill="#A2C439"/>
<path d="M92.468 19.4492C93.2882 19.4492 94.0452 19.4492 94.8654 19.4492C94.8654 22.9491 94.8654 26.4175 94.8654 30.0121C94.1399 30.1067 93.3197 30.0121 92.468 30.0436C92.468 26.5437 92.468 23.0752 92.468 19.4492Z" fill="#F6F6F6"/>
<path d="M42.754 6.89976C43.448 6.89976 44.1104 6.86823 44.8044 6.89976C46.0346 6.93129 47.0756 7.94029 47.1071 9.13847C47.1387 9.70603 47.1387 10.2736 47.1071 10.8412C47.0125 12.2601 45.9085 13.0799 44.836 13.1114C44.1735 13.1429 43.4795 13.1114 42.754 13.1114C42.754 11.0619 42.754 9.04388 42.754 6.89976Z" fill="#F4F4F4"/>
<path d="M57.3592 11.7556C57.6431 10.652 57.927 9.76911 58.1162 8.8547C58.2109 8.3502 58.5578 8.47633 58.8102 8.50786C59.1887 8.53939 59.1256 8.79164 58.9995 9.04389C58.4317 10.2421 58.2739 11.5664 57.8639 12.7961C57.7377 13.1114 57.6431 13.1745 57.3592 13.1745C57.0437 13.1745 56.9175 13.0799 56.886 12.7646C56.8229 11.9763 56.2236 11.3457 56.2551 10.5259C56.2551 10.4628 56.0974 10.3997 56.0027 10.3682C55.845 10.3367 55.6242 10.3997 55.6242 10.5574C55.6242 11.3772 55.0249 12.0078 54.9933 12.7961C54.9618 13.1745 54.8041 13.1745 54.4886 13.206C54.1732 13.206 54.1101 13.0799 54.0155 12.7961C53.5738 11.5664 53.4476 10.2421 52.8483 9.04389C52.7537 8.82317 52.7221 8.57092 52.9429 8.53939C53.1953 8.50786 53.6054 8.28714 53.7315 8.72858C53.9524 9.57992 54.1732 10.4313 54.3624 11.2826C54.394 11.3772 54.394 11.5348 54.4571 11.5348C54.6779 11.5979 54.6148 11.4087 54.6779 11.3141C55.1195 10.7466 54.8987 9.95829 55.2772 9.3592C55.4034 9.17001 55.3403 8.88623 55.5611 8.69705C55.845 8.41327 56.1289 8.38174 56.3182 8.72858C56.5705 9.20154 56.8229 9.70604 56.8544 10.2105C56.8544 10.7466 57.1383 11.1249 57.3592 11.7556Z" fill="#F2F2F2"/>
<path d="M79.5032 8.76009C79.5032 8.161 79.5032 7.59343 79.5032 7.05741C79.5032 6.74209 79.5979 6.61597 79.9448 6.58444C80.3549 6.58444 80.4811 6.67903 80.4811 7.12047C80.4495 8.9808 80.4495 10.8727 80.4811 12.733C80.4811 13.2375 80.1341 13.269 79.8818 13.1429C79.5032 12.9537 79.2509 13.0168 78.8723 13.1429C78.5253 13.2375 78.0522 13.3321 77.6737 13.0483C77.3582 12.8276 76.7589 12.7645 76.7273 12.3862C76.6642 11.6294 76.128 10.9357 76.475 10.0529C77.0743 8.5709 77.8629 8.12946 79.5032 8.76009Z" fill="#F1F1F1"/>
<path d="M75.434 11.4087C75.434 11.661 75.434 11.9447 75.434 12.197C75.434 13.0168 75.434 12.9222 74.393 12.9853C74.0145 13.0168 73.5729 13.1745 73.1313 13.1745C72.2796 13.1745 71.7118 12.733 71.6487 12.0078C71.5856 11.0619 71.9957 10.4943 72.9735 10.3682C73.3205 10.3051 73.6991 10.3682 74.0776 10.3682C74.393 10.3682 74.6454 9.89521 74.4877 9.5799C74.1407 8.88622 73.0051 8.88622 72.6581 9.67449C72.4688 10.0844 72.248 10.0213 71.9641 10.0529C71.6487 10.0844 71.5856 9.80062 71.6802 9.64296C72.1534 8.69703 73.4152 8.19253 74.4246 8.57091C74.9924 8.79162 75.3709 9.23306 75.434 9.83215C75.4655 10.3366 75.434 10.8727 75.434 11.4087Z" fill="white"/>
<path d="M59.6933 10.7466C59.6933 10.1159 59.7248 9.51685 59.6933 8.88623C59.6617 8.3502 60.1034 8.38173 60.2926 8.50785C60.7658 8.82317 61.1443 8.60245 61.6175 8.50785C62.8477 8.25561 63.4471 8.82317 63.4471 10.0529C63.4471 10.9358 63.4471 11.8186 63.4471 12.7015C63.4471 12.9853 63.4155 13.1745 63.037 13.1745C62.69 13.1745 62.4692 13.1429 62.4692 12.7015C62.5007 11.7556 62.4376 10.8412 62.5007 9.89522C62.5323 9.48532 62.2799 9.29613 62.0276 9.17001C61.7752 9.04388 61.4598 9.04388 61.1759 9.29613C60.7658 9.64298 60.545 10.0529 60.5765 10.6204C60.6396 11.3457 60.5765 12.0709 60.6081 12.7961C60.6081 13.1429 60.4504 13.206 60.1349 13.206C59.8195 13.206 59.6617 13.1745 59.6617 12.7961C59.6933 12.1024 59.6933 11.4087 59.6933 10.7466Z" fill="#EFEFF0"/>
<path d="M50.3246 8.47631C51.4917 8.47631 52.4696 9.67449 52.4696 10.9357C52.4696 11.724 51.9649 12.197 51.5233 12.733C51.1132 13.2375 50.64 13.1114 50.1353 13.1744C49.5044 13.269 49.189 12.8591 48.842 12.5123C48.3688 12.0393 48.0534 11.5033 48.0849 10.7781C48.0849 9.54837 49.1259 8.47631 50.3246 8.47631Z" fill="white"/>
<path d="M68.8728 13.1745C67.6742 13.1745 66.6332 12.1024 66.6017 10.8412C66.5701 10.1475 66.8856 9.57991 67.3587 9.10695C67.7373 8.7601 68.0212 8.3502 68.652 8.44479C69.1567 8.50785 69.6615 8.41326 70.04 8.88623C70.4816 9.42226 70.9863 9.89522 70.9863 10.6835C71.0179 11.9763 70.04 13.1429 68.8728 13.1745Z" fill="white"/>
<path d="M88.7141 13.1745C87.5154 13.1745 86.4744 12.1024 86.4429 10.8727C86.4113 10.0844 86.7899 9.54837 87.2946 9.04387C87.6416 8.72856 87.9255 8.38172 88.4933 8.47631C88.998 8.53938 89.5027 8.41325 89.8812 8.91775C90.3228 9.45378 90.8275 9.92675 90.8591 10.715C90.8591 11.9763 89.8497 13.1429 88.7141 13.1745Z" fill="white"/>
<path d="M83.9193 11.1249C83.9193 10.652 83.8877 10.179 83.9193 9.73758C83.9508 9.32767 83.8562 9.10695 83.383 9.01236C83.1938 8.98083 83.1938 8.53939 83.383 8.53939C84.1401 8.50786 83.9508 7.84571 84.2032 7.46733C84.6133 6.89977 85.0233 6.42681 85.812 6.58446C86.0012 6.61599 86.0959 6.67906 86.0959 6.86824C86.1274 7.0259 86.0328 7.24662 85.9066 7.21508C85.4334 7.15202 85.2126 7.30968 85.0549 7.78264C84.8025 8.4448 84.7394 8.41327 85.4019 8.47633C85.5596 8.47633 85.7173 8.4448 85.875 8.47633C86.0328 8.50786 86.1274 8.60245 86.1274 8.79164C86.1274 8.98083 86.0328 9.07542 85.875 9.10695C85.7173 9.13848 85.5596 9.13848 85.4019 9.10695C85.0233 9.07542 84.8341 9.13848 84.8656 9.61145C84.8972 10.652 84.8656 11.6925 84.8656 12.7015C84.8656 12.9853 84.8341 13.1745 84.4555 13.1745C84.1086 13.1745 83.8562 13.1429 83.8878 12.67C83.9508 12.1655 83.9193 11.661 83.9193 11.1249Z" fill="#F0F0F0"/>
<path d="M65.6553 9.89522C65.6553 10.8411 65.6237 11.7556 65.6553 12.7015C65.6868 13.1429 65.466 13.206 65.0874 13.206C64.7089 13.206 64.6774 13.0168 64.6774 12.733C64.6774 10.8727 64.7089 8.98081 64.6774 7.12048C64.6774 6.67904 64.8666 6.61598 65.2452 6.61598C65.6237 6.61598 65.6553 6.80517 65.6553 7.08895C65.6553 8.00335 65.6553 8.94928 65.6553 9.89522Z" fill="#E4E4E4"/>
<path d="M91.7739 10.652C91.7739 10.0214 91.7739 9.39074 91.7739 8.79165C91.7739 8.47634 91.9632 8.50787 92.184 8.47634C92.4679 8.44481 92.6572 8.63399 92.878 8.72859C93.0041 8.79165 93.1934 8.41328 93.5089 8.47634C93.6981 8.50787 93.9505 8.44481 93.982 8.72859C94.0136 8.94931 93.9189 9.07543 93.6666 9.13849C92.7518 9.39074 92.7518 9.39074 92.7518 10.179C92.7518 11.0619 92.7518 11.9448 92.7518 12.8276C92.7518 13.2375 92.4679 13.1429 92.2156 13.1745C91.9947 13.1745 91.8055 13.1745 91.8055 12.8592C91.7739 12.134 91.7739 11.4087 91.7739 10.652Z" fill="#EBEBEB"/>
<path d="M20.0735 7.21506C19.8843 7.18353 19.7896 7.30966 19.7581 7.46731C19.7266 7.68803 19.7266 7.87722 19.4427 7.84569C19.2534 6.99434 18.9064 6.20607 18.244 5.54391C18.1809 5.48085 18.1809 5.2286 18.244 5.13401C18.3701 4.94482 18.5594 4.97635 18.7802 5.10248C19.4427 5.67004 19.6635 6.52138 20.0735 7.21506Z" fill="#8CA147"/>
<path d="M27.4235 11.2826C26.9819 11.3141 26.698 11.0303 26.698 10.6835C26.6664 10.3051 26.9819 10.0529 27.3919 10.0529C27.802 10.0213 28.3383 10.4313 28.2121 10.7466C28.1175 11.0619 27.8651 11.3457 27.4235 11.2826Z" fill="#F0F5DE"/>
<path d="M20.7046 10.5889C20.7677 10.8412 20.3892 11.2511 20.0422 11.2826C19.6636 11.3457 19.1274 10.9673 19.1589 10.652C19.1905 10.3051 19.4428 10.1159 19.7583 10.0213C20.0422 9.92676 20.6415 10.2736 20.7046 10.5889Z" fill="#F0F5DF"/>
<path d="M74.4877 24.4311C74.4877 23.2644 74.4877 22.1608 74.4877 20.9942C75.1816 20.9942 75.8441 20.9626 76.5065 20.9942C77.3898 21.0572 77.926 21.7194 77.926 22.6968C77.926 23.6743 77.3898 24.3365 76.5065 24.3995C75.9072 24.4626 75.2763 24.4311 74.4877 24.4311Z" fill="#201F21"/>
<path d="M64.7404 28.4986C64.7404 25.9446 64.7404 23.5482 64.7404 21.1203C65.9706 20.7735 66.98 21.0888 67.8632 22.0347C68.1471 22.3185 68.1471 22.6338 68.2418 22.9806C68.6203 24.305 68.6518 25.1878 68.2102 26.4806C67.7371 27.931 67.0431 28.4671 65.6551 28.4986C65.3712 28.4986 65.0873 28.4986 64.7404 28.4986Z" fill="#1F1E20"/>
<path d="M99.0608 21.0572C100.228 20.8681 101.174 21.0888 102.026 21.9086C102.499 22.35 102.247 23.0122 102.783 23.3275C102.783 24.5572 102.972 25.7869 102.436 26.9536C102.058 27.7734 101.3 28.3409 100.354 28.4986C99.944 28.5617 99.534 28.4986 99.0608 28.4986C99.0608 26.0076 99.0608 23.5797 99.0608 21.0572Z" fill="#1F1E20"/>
<path d="M88.6196 24.9041C88.7457 25.6608 88.4934 26.4491 88.1464 27.2374C87.6101 28.4671 86.4114 28.8454 85.2128 28.1833C84.7711 27.931 84.3926 27.4265 84.3295 27.1112C84.1403 26.2599 83.7617 25.377 83.8879 24.4626C83.951 24.1158 84.3926 22.4446 84.5188 22.0662C84.7711 21.1518 85.4967 20.9942 86.2537 20.9942C87.0108 20.9942 87.6417 21.1834 88.0202 22.0347C88.5565 23.3275 88.6196 23.296 88.6196 24.9041Z" fill="#1E1E1F"/>
<path d="M44.9307 25.9761C45.2461 25.0617 45.5615 24.2104 45.8139 23.3906C45.877 23.2014 45.8139 22.9807 46.0032 22.8545C46.1293 22.7599 46.224 22.6969 46.3502 22.6023C46.3817 22.6969 46.4448 22.7599 46.4763 22.8545C46.7287 23.7374 46.918 24.6203 47.328 25.4401C47.5173 25.8185 47.4227 26.0076 46.981 26.0076C46.3186 25.9761 45.6562 25.9761 44.9307 25.9761Z" fill="#232224"/>
<path d="M43.6372 7.59345C44.4574 7.46733 45.1198 7.4358 45.6876 8.12948C46.003 8.50786 46.2238 8.8547 46.1608 9.3592C46.1292 9.7691 46.1608 10.179 46.1608 10.5889C46.1608 11.5664 45.593 12.2916 44.6782 12.5438C43.9527 12.733 43.6688 12.5123 43.6688 11.7556C43.6372 10.3997 43.6372 9.04389 43.6372 7.59345Z" fill="#1D1C1E"/>
<path d="M79.5032 10.8096C79.5032 10.9673 79.5032 11.1249 79.5032 11.2826C79.5032 12.0709 79.377 12.2916 78.7461 12.5123C78.3045 12.6699 77.8313 12.4492 77.4528 11.9447C77.0112 11.3456 77.2951 9.76908 77.8944 9.29612C78.2729 9.01233 78.5568 9.10693 78.9669 9.32765C79.3139 9.51683 79.5347 9.61143 79.4716 10.0529C79.4716 10.3051 79.5032 10.5574 79.5032 10.8096Z" fill="#201F21"/>
<path d="M74.4875 11.661C74.4875 12.1024 73.9513 12.5123 73.415 12.5438C72.9418 12.5754 72.5948 12.2285 72.5948 11.6925C72.5948 11.3141 73.2573 10.9988 73.9828 10.9673C74.6137 10.9357 74.456 11.3457 74.4875 11.661Z" fill="#201F21"/>
<path d="M48.9997 10.652C48.9051 10.179 49.0313 9.67452 49.5675 9.29614C50.0722 8.9493 50.8924 9.01236 51.1447 9.54839C51.5233 10.3051 51.7125 11.0934 51.2078 11.9132C50.8293 12.5123 50.64 12.67 50.0091 12.5439C49.6306 12.4808 49.0313 11.9132 48.9997 11.5664C48.9682 11.2826 48.9997 11.0304 48.9997 10.652Z" fill="#212122"/>
<path d="M67.548 10.7466C67.548 9.61145 68.0842 9.01236 68.999 9.07542C69.2198 9.10695 69.3775 9.17001 69.5353 9.32767C70.2608 10.0529 70.2608 11.5348 69.5668 12.2916C69.2198 12.67 68.7467 12.6069 68.4312 12.4808C68.0527 12.3231 67.6426 12.0078 67.5795 11.5033C67.548 11.2826 67.548 10.9988 67.548 10.7466Z" fill="#212122"/>
<path d="M87.3578 10.6835C87.2316 10.1475 87.4524 9.61143 88.0202 9.23305C88.4618 8.91774 89.2505 9.0754 89.5028 9.51683C89.8813 10.2736 90.1022 10.9988 89.5974 11.8817C89.282 12.4492 88.9666 12.6069 88.3988 12.5438C87.9256 12.5123 87.3893 11.9132 87.3578 11.4402C87.3578 11.2195 87.3578 11.0303 87.3578 10.6835Z" fill="#212122"/>
</g>
<rect x="0.772705" y="0.5" width="116.895" height="39" rx="5.5" stroke="#A6A6A6"/>
<defs>
<clipPath id="clip0_11116_2808">
<rect x="0.272705" width="117.895" height="40" rx="6" fill="white"/>
</clipPath>
</defs>
</svg>
