<svg width="512" height="80" viewBox="0 0 512 80" fill="none" xmlns="http://www.w3.org/2000/svg">
    <g clip-path="url(#clip0_10969_24187)">
        <path
            d="M36.395 27.24H21.555V16.45C21.555 13.78 20.475 12.45 18.305 12.45C16.135 12.45 15.065 13.8 15.065 16.45V61.62C14.9432 62.7347 15.2587 63.8532 15.945 64.74C16.3101 65.0586 16.7353 65.3006 17.1957 65.4518C17.6561 65.6029 18.1421 65.6601 18.625 65.62C21.065 65.62 22.2849 64.2867 22.2849 61.62V45.3099H18.335V33.3099H36.395V61.73C36.395 67.6233 34.825 71.83 31.685 74.35C28.545 76.87 24.085 78.13 18.305 78.13C12.5383 78.13 8.07828 76.87 4.92495 74.35C1.77162 71.83 0.201595 67.6233 0.214928 61.73V16.4099C0.214928 10.5166 1.78495 6.30992 4.92495 3.78992C8.06495 1.26992 12.525 0.0100098 18.305 0.0100098C24.085 0.0100098 28.545 1.26992 31.685 3.78992C34.825 6.30992 36.395 10.5166 36.395 16.4099V27.24Z"
            fill="white" />
        <path
            d="M84.0049 77.39V0.72998H106.615L111.695 57.47H112.625L117.695 0.72998H140.255V77.39H126.495V21.0399H125.325L120.055 77.39H104.175L98.9449 21.0399H97.7749V77.39H84.0049Z"
            fill="white" />
        <path
            d="M171.495 13.23H160.175V32.71H171.265V45.0699H160.175V64.89H171.495V77.39H145.235V0.72998H171.495V13.23Z"
            fill="white" />
        <path
            d="M225.995 49.7V61.96C225.995 67.8466 224.425 72.0533 221.285 74.58C218.145 77.1066 213.685 78.37 207.905 78.37C202.125 78.37 197.665 77.0999 194.525 74.5599C191.385 72.0199 189.815 67.82 189.815 61.96V16.45C189.815 10.5566 191.385 6.34996 194.525 3.82996C197.665 1.30996 202.125 0.0499268 207.905 0.0499268C213.685 0.0499268 218.145 1.30996 221.285 3.82996C224.425 6.34996 225.995 10.5566 225.995 16.45V28.45H211.055V16.5299C211.055 13.8599 210.055 12.5299 207.905 12.5299C205.755 12.5299 204.755 13.8799 204.755 16.5299V61.89C204.755 64.5567 205.805 65.89 207.905 65.89C210.005 65.89 211.055 64.5567 211.055 61.89V49.7799L225.995 49.7Z"
            fill="white" />
        <path
            d="M252.315 0.72998H267.255V77.39H252.315V46.14H245.925V77.39H230.975V0.72998H245.925V33.64H252.315V0.72998Z"
            fill="white" />
        <path
            d="M316.495 77.39V0.72998H335.495L344.335 52.83H345.205L344.815 42.62V0.72998H358.495V77.39H339.605L330.765 25.2899H329.835L330.275 35.5V77.39H316.495Z"
            fill="white" />
        <path
            d="M399.635 27.24H384.785V16.45C384.785 13.78 383.705 12.45 381.545 12.45C379.385 12.45 378.295 13.8 378.295 16.45V61.62C378.173 62.7347 378.489 63.8532 379.175 64.74C379.54 65.0586 379.965 65.3006 380.426 65.4518C380.886 65.6029 381.372 65.6601 381.855 65.62C384.295 65.62 385.525 64.29 385.525 61.62V45.3099H381.525V33.3099H399.595V61.73C399.595 67.6233 398.022 71.83 394.875 74.35C391.728 76.87 387.272 78.13 381.505 78.13C375.725 78.13 371.265 76.87 368.125 74.35C364.985 71.83 363.415 67.6233 363.415 61.73V16.4099C363.415 10.5166 364.985 6.30992 368.125 3.78992C371.265 1.26992 375.725 0.0100098 381.505 0.0100098C387.272 0.0100098 391.728 1.26992 394.875 3.78992C398.022 6.30992 399.595 10.5166 399.595 16.4099L399.635 27.24Z"
            fill="white" />
        <path
            d="M430.885 13.23H419.555V32.71H430.635V45.0699H419.555V64.89H430.885V77.39H404.615V0.72998H430.885V13.23Z"
            fill="white" />
        <path
            d="M473.365 77.39H459.935L454.615 54.98H450.805V77.39H435.865V0.72998H457.055C462.948 0.72998 466.878 1.92661 468.845 4.31995C470.812 6.71328 471.812 10.9867 471.845 17.14V39.45C471.845 44.85 470.178 48.85 466.845 51.45L473.365 77.39ZM450.805 13.13V43.5499L454.515 43.45C454.921 43.4712 455.325 43.3909 455.692 43.2163C456.058 43.0417 456.376 42.7782 456.615 42.45C457.079 41.5215 457.283 40.4849 457.205 39.45V17.23C457.315 16.098 457.037 14.9623 456.415 14.01C456.022 13.6717 455.563 13.4188 455.067 13.2673C454.572 13.1158 454.05 13.0691 453.535 13.13H450.805Z"
            fill="white" />
        <path
            d="M511.545 27.39H497.195V16.5499C497.195 13.8833 496.135 12.5499 494.015 12.5499C491.895 12.5499 490.838 13.8833 490.845 16.5499V25.83C490.834 27.3586 491.39 28.8372 492.405 29.98C493.482 31.2067 494.804 32.1946 496.285 32.88C497.835 33.62 499.505 34.49 501.285 35.52C503.042 36.5078 504.733 37.6101 506.345 38.8199C508.025 40.1465 509.357 41.8627 510.225 43.8199C511.297 46.2213 511.823 48.8307 511.765 51.46V61.62C511.765 67.45 510.225 71.6199 507.175 74.1699C504.125 76.7199 499.715 77.98 493.985 77.98C488.255 77.98 483.875 76.7099 480.855 74.1899C477.835 71.6699 476.315 67.48 476.315 61.62V50.73H490.665V61.5699C490.665 64.2366 491.755 65.5699 493.935 65.5699C496.115 65.5699 497.158 64.2366 497.065 61.5699V52.2899C497.077 50.7586 496.53 49.2757 495.525 48.12C494.468 46.8775 493.15 45.8838 491.665 45.21C490.125 44.5 488.455 43.62 486.665 42.6C484.929 41.6082 483.259 40.5059 481.665 39.2999C479.997 37.9685 478.676 36.2529 477.815 34.2999C476.738 31.9 476.212 29.2896 476.275 26.6599V16.45C476.275 10.63 477.795 6.4566 480.835 3.92993C483.875 1.40326 488.238 0.140015 493.925 0.140015C499.605 0.140015 503.958 1.40326 506.985 3.92993C510.012 6.4566 511.525 10.63 511.525 16.45L511.545 27.39Z"
            fill="white" />
        <path fill-rule="evenodd" clip-rule="evenodd"
            d="M64.4948 64.21L65.6448 77.39H79.9047L72.2347 0.72998H46.5547L38.8848 77.39H53.1448L54.3148 64.21H64.4948ZM50.2148 41.207L61.9235 20.8038L61.1356 35.7239L69.2148 37.2807L55.0602 56.996L57.6005 42.954L50.2148 41.207Z"
            fill="white" />
        <path fill-rule="evenodd" clip-rule="evenodd"
            d="M296.975 64.21L298.125 77.39H312.385L304.715 0.72998H279.035L271.365 77.39H285.625L286.795 64.21H296.975ZM282.695 41.207L294.404 20.8038L293.616 35.7239L301.695 37.2807L287.54 56.996L290.081 42.954L282.695 41.207Z"
            fill="white" />
    </g>
    <defs>
        <clipPath id="clip0_10969_24187">
            <rect width="511.57" height="231.8" fill="white" transform="translate(0.214844)" />
        </clipPath>
    </defs>
</svg>