<svg width="512" height="232" viewBox="0 0 512 232" fill="none" xmlns="http://www.w3.org/2000/svg">
<g clip-path="url(#clip0_10969_24187)">
<path d="M36.395 27.24H21.555V16.45C21.555 13.78 20.475 12.45 18.305 12.45C16.135 12.45 15.065 13.8 15.065 16.45V61.62C14.9432 62.7347 15.2587 63.8532 15.945 64.74C16.3101 65.0586 16.7353 65.3006 17.1957 65.4518C17.6561 65.6029 18.1421 65.6601 18.625 65.62C21.065 65.62 22.2849 64.2867 22.2849 61.62V45.3099H18.335V33.3099H36.395V61.73C36.395 67.6233 34.825 71.83 31.685 74.35C28.545 76.87 24.085 78.13 18.305 78.13C12.5383 78.13 8.07828 76.87 4.92495 74.35C1.77162 71.83 0.201595 67.6233 0.214928 61.73V16.4099C0.214928 10.5166 1.78495 6.30992 4.92495 3.78992C8.06495 1.26992 12.525 0.0100098 18.305 0.0100098C24.085 0.0100098 28.545 1.26992 31.685 3.78992C34.825 6.30992 36.395 10.5166 36.395 16.4099V27.24Z" fill="white"/>
<path d="M84.0049 77.39V0.72998H106.615L111.695 57.47H112.625L117.695 0.72998H140.255V77.39H126.495V21.0399H125.325L120.055 77.39H104.175L98.9449 21.0399H97.7749V77.39H84.0049Z" fill="white"/>
<path d="M171.495 13.23H160.175V32.71H171.265V45.0699H160.175V64.89H171.495V77.39H145.235V0.72998H171.495V13.23Z" fill="white"/>
<path d="M225.995 49.7V61.96C225.995 67.8466 224.425 72.0533 221.285 74.58C218.145 77.1066 213.685 78.37 207.905 78.37C202.125 78.37 197.665 77.0999 194.525 74.5599C191.385 72.0199 189.815 67.82 189.815 61.96V16.45C189.815 10.5566 191.385 6.34996 194.525 3.82996C197.665 1.30996 202.125 0.0499268 207.905 0.0499268C213.685 0.0499268 218.145 1.30996 221.285 3.82996C224.425 6.34996 225.995 10.5566 225.995 16.45V28.45H211.055V16.5299C211.055 13.8599 210.055 12.5299 207.905 12.5299C205.755 12.5299 204.755 13.8799 204.755 16.5299V61.89C204.755 64.5567 205.805 65.89 207.905 65.89C210.005 65.89 211.055 64.5567 211.055 61.89V49.7799L225.995 49.7Z" fill="white"/>
<path d="M252.315 0.72998H267.255V77.39H252.315V46.14H245.925V77.39H230.975V0.72998H245.925V33.64H252.315V0.72998Z" fill="white"/>
<path d="M316.495 77.39V0.72998H335.495L344.335 52.83H345.205L344.815 42.62V0.72998H358.495V77.39H339.605L330.765 25.2899H329.835L330.275 35.5V77.39H316.495Z" fill="white"/>
<path d="M399.635 27.24H384.785V16.45C384.785 13.78 383.705 12.45 381.545 12.45C379.385 12.45 378.295 13.8 378.295 16.45V61.62C378.173 62.7347 378.489 63.8532 379.175 64.74C379.54 65.0586 379.965 65.3006 380.426 65.4518C380.886 65.6029 381.372 65.6601 381.855 65.62C384.295 65.62 385.525 64.29 385.525 61.62V45.3099H381.525V33.3099H399.595V61.73C399.595 67.6233 398.022 71.83 394.875 74.35C391.728 76.87 387.272 78.13 381.505 78.13C375.725 78.13 371.265 76.87 368.125 74.35C364.985 71.83 363.415 67.6233 363.415 61.73V16.4099C363.415 10.5166 364.985 6.30992 368.125 3.78992C371.265 1.26992 375.725 0.0100098 381.505 0.0100098C387.272 0.0100098 391.728 1.26992 394.875 3.78992C398.022 6.30992 399.595 10.5166 399.595 16.4099L399.635 27.24Z" fill="white"/>
<path d="M430.885 13.23H419.555V32.71H430.635V45.0699H419.555V64.89H430.885V77.39H404.615V0.72998H430.885V13.23Z" fill="white"/>
<path d="M473.365 77.39H459.935L454.615 54.98H450.805V77.39H435.865V0.72998H457.055C462.948 0.72998 466.878 1.92661 468.845 4.31995C470.812 6.71328 471.812 10.9867 471.845 17.14V39.45C471.845 44.85 470.178 48.85 466.845 51.45L473.365 77.39ZM450.805 13.13V43.5499L454.515 43.45C454.921 43.4712 455.325 43.3909 455.692 43.2163C456.058 43.0417 456.376 42.7782 456.615 42.45C457.079 41.5215 457.283 40.4849 457.205 39.45V17.23C457.315 16.098 457.037 14.9623 456.415 14.01C456.022 13.6717 455.563 13.4188 455.067 13.2673C454.572 13.1158 454.05 13.0691 453.535 13.13H450.805Z" fill="white"/>
<path d="M511.545 27.39H497.195V16.5499C497.195 13.8833 496.135 12.5499 494.015 12.5499C491.895 12.5499 490.838 13.8833 490.845 16.5499V25.83C490.834 27.3586 491.39 28.8372 492.405 29.98C493.482 31.2067 494.804 32.1946 496.285 32.88C497.835 33.62 499.505 34.49 501.285 35.52C503.042 36.5078 504.733 37.6101 506.345 38.8199C508.025 40.1465 509.357 41.8627 510.225 43.8199C511.297 46.2213 511.823 48.8307 511.765 51.46V61.62C511.765 67.45 510.225 71.6199 507.175 74.1699C504.125 76.7199 499.715 77.98 493.985 77.98C488.255 77.98 483.875 76.7099 480.855 74.1899C477.835 71.6699 476.315 67.48 476.315 61.62V50.73H490.665V61.5699C490.665 64.2366 491.755 65.5699 493.935 65.5699C496.115 65.5699 497.158 64.2366 497.065 61.5699V52.2899C497.077 50.7586 496.53 49.2757 495.525 48.12C494.468 46.8775 493.15 45.8838 491.665 45.21C490.125 44.5 488.455 43.62 486.665 42.6C484.929 41.6082 483.259 40.5059 481.665 39.2999C479.997 37.9685 478.676 36.2529 477.815 34.2999C476.738 31.9 476.212 29.2896 476.275 26.6599V16.45C476.275 10.63 477.795 6.4566 480.835 3.92993C483.875 1.40326 488.238 0.140015 493.925 0.140015C499.605 0.140015 503.958 1.40326 506.985 3.92993C510.012 6.4566 511.525 10.63 511.525 16.45L511.545 27.39Z" fill="white"/>
<path d="M59.5549 197.5V183.5H67.835V185.02H61.275V189.56H67.275V191.04H61.275V195.96H67.835V197.48L59.5549 197.5Z" fill="white"/>
<path d="M81.0748 197.5V183.5H83.3148L85.7948 191.42L88.2748 183.5H90.5148V197.5H88.9948V185.74L86.0748 194.74H85.5548L82.6348 185.74V197.5H81.0748Z" fill="white"/>
<path d="M104.035 197.5V183.5H108.855C110.096 183.439 111.315 183.842 112.275 184.63C113.098 185.482 113.558 186.62 113.558 187.805C113.558 188.99 113.098 190.128 112.275 190.98C111.316 191.762 110.101 192.162 108.865 192.1H105.705V197.5H104.035ZM105.735 190.58H108.795C109.584 190.606 110.357 190.359 110.985 189.88C111.28 189.628 111.512 189.31 111.663 188.953C111.814 188.595 111.88 188.207 111.855 187.82C111.884 187.424 111.82 187.026 111.667 186.66C111.514 186.293 111.277 185.968 110.975 185.71C110.335 185.234 109.552 184.99 108.755 185.02H105.755L105.735 190.58Z" fill="white"/>
<path d="M130.615 197.8C129.925 197.809 129.243 197.665 128.615 197.38C127.972 197.08 127.399 196.647 126.935 196.11C126.369 195.434 125.96 194.642 125.735 193.79C125.421 192.681 125.273 191.532 125.295 190.38C125.172 188.483 125.728 186.604 126.865 185.08C127.292 184.491 127.853 184.012 128.502 183.682C129.15 183.351 129.867 183.179 130.595 183.179C131.322 183.179 132.04 183.351 132.688 183.682C133.336 184.012 133.897 184.491 134.325 185.08C135.451 186.624 136.006 188.512 135.895 190.42C135.914 191.569 135.762 192.715 135.445 193.82C135.21 194.661 134.797 195.442 134.235 196.11C133.763 196.631 133.192 197.052 132.555 197.35C131.946 197.633 131.286 197.786 130.615 197.8V197.8ZM130.615 196.24C131.125 196.234 131.625 196.097 132.068 195.843C132.511 195.589 132.881 195.227 133.145 194.79C133.885 193.472 134.232 191.969 134.145 190.46C134.228 188.98 133.881 187.507 133.145 186.22C132.875 185.79 132.5 185.436 132.056 185.191C131.612 184.945 131.112 184.816 130.605 184.816C130.097 184.816 129.598 184.945 129.154 185.191C128.71 185.436 128.335 185.79 128.065 186.22C127.324 187.491 126.976 188.952 127.065 190.42C126.983 191.942 127.329 193.456 128.065 194.79C128.323 195.236 128.696 195.605 129.144 195.86C129.592 196.115 130.099 196.246 130.615 196.24V196.24Z" fill="white"/>
<path d="M149.235 197.5L147.655 183.5H149.355L150.455 195.06L152.455 186.9H153.515L155.515 195.06L156.615 183.5H158.315L156.735 197.5H154.795L152.975 190.1L151.175 197.5H149.235Z" fill="white"/>
<path d="M171.555 197.5V183.5H179.835V185.02H173.275V189.56H179.275V191.04H173.275V195.96H179.835V197.48L171.555 197.5Z" fill="white"/>
<path d="M193.635 197.5V183.5H198.075C199.318 183.428 200.546 183.804 201.535 184.56C202.286 185.322 202.732 186.333 202.79 187.401C202.847 188.47 202.511 189.522 201.845 190.36C201.167 191.059 200.278 191.516 199.315 191.66L202.435 197.5H200.575L197.575 191.78H195.375V197.5H193.635ZM195.335 190.3H197.975C198.776 190.336 199.568 190.116 200.235 189.67C200.53 189.432 200.763 189.125 200.913 188.777C201.063 188.428 201.125 188.048 201.095 187.67C201.095 185.91 200.035 185.03 197.935 185.03H195.335V190.3Z" fill="white"/>
<path d="M216.015 184.96V183.46H224.415V184.96H221.055V195.96H224.415V197.46H216.015V195.96H219.355V184.96H216.015Z" fill="white"/>
<path d="M238.135 197.5V183.5H239.875L245.495 194.66V183.5H247.095V197.5H245.395L239.775 186.34V197.5H238.135Z" fill="white"/>
<path d="M265.435 197.8C264.681 197.817 263.933 197.66 263.25 197.341C262.566 197.022 261.966 196.549 261.495 195.96C260.495 194.73 259.945 192.86 259.945 190.36C259.826 188.466 260.39 186.593 261.535 185.08C261.993 184.491 262.58 184.015 263.251 183.689C263.922 183.363 264.659 183.196 265.405 183.2C265.988 183.189 266.567 183.297 267.106 183.517C267.646 183.737 268.136 184.065 268.545 184.48C269.434 185.387 270.003 186.56 270.165 187.82L268.505 188.12C268.397 187.238 268.051 186.401 267.505 185.7C267.251 185.396 266.93 185.155 266.568 184.995C266.205 184.836 265.811 184.762 265.415 184.78C264.892 184.775 264.376 184.901 263.915 185.148C263.453 185.394 263.061 185.752 262.775 186.19C262.019 187.443 261.67 188.9 261.775 190.36C261.671 191.886 262.019 193.41 262.775 194.74C263.047 195.2 263.435 195.58 263.9 195.843C264.365 196.106 264.891 196.243 265.425 196.24C265.878 196.253 266.328 196.161 266.74 195.97C267.151 195.779 267.512 195.495 267.795 195.14C268.425 194.272 268.726 193.209 268.645 192.14H265.125V190.62H270.305V191.96C270.39 193.497 269.902 195.012 268.935 196.21C268.505 196.717 267.968 197.123 267.363 197.397C266.758 197.672 266.099 197.81 265.435 197.8V197.8Z" fill="white"/>
<path d="M304.955 197.5V183.5H313.235V185.02H306.675V189.56H312.675V191.04H306.675V195.96H313.235V197.48L304.955 197.5Z" fill="white"/>
<path d="M326.115 192.68L327.875 192.34C327.942 193.424 328.32 194.466 328.965 195.34C329.313 195.678 329.73 195.936 330.187 196.097C330.645 196.258 331.132 196.317 331.615 196.27C332.392 196.323 333.159 196.072 333.755 195.57C333.988 195.349 334.172 195.082 334.296 194.786C334.42 194.49 334.481 194.171 334.475 193.85C334.494 193.536 334.446 193.222 334.336 192.927C334.226 192.633 334.055 192.364 333.835 192.14C332.966 191.499 331.991 191.015 330.955 190.71C329.793 190.345 328.702 189.787 327.725 189.06C327.399 188.785 327.14 188.44 326.966 188.05C326.793 187.66 326.711 187.236 326.725 186.81C326.716 186.323 326.816 185.84 327.018 185.397C327.221 184.954 327.52 184.562 327.895 184.25C328.759 183.548 329.853 183.192 330.965 183.25C332.084 183.226 333.179 183.578 334.075 184.25C334.518 184.595 334.884 185.028 335.151 185.522C335.418 186.016 335.579 186.56 335.625 187.12L333.965 187.48C333.943 187.109 333.848 186.746 333.685 186.412C333.523 186.078 333.295 185.779 333.016 185.534C332.737 185.288 332.412 185.1 332.06 184.981C331.708 184.862 331.336 184.814 330.965 184.84C330.293 184.793 329.626 184.996 329.095 185.41C328.885 185.583 328.717 185.802 328.605 186.05C328.492 186.298 328.437 186.568 328.445 186.84C328.443 187.085 328.496 187.326 328.6 187.548C328.704 187.769 328.856 187.965 329.045 188.12C329.858 188.667 330.748 189.092 331.685 189.38C332.964 189.774 334.16 190.397 335.215 191.22C335.542 191.561 335.794 191.967 335.954 192.411C336.114 192.856 336.179 193.329 336.145 193.8C336.153 194.342 336.047 194.879 335.833 195.377C335.62 195.875 335.303 196.323 334.905 196.69C333.974 197.506 332.761 197.926 331.525 197.86C328.325 197.82 326.522 196.093 326.115 192.68Z" fill="white"/>
<path d="M349.435 197.5V183.5H354.255C355.496 183.439 356.715 183.842 357.675 184.63C358.498 185.482 358.958 186.62 358.958 187.805C358.958 188.99 358.498 190.128 357.675 190.98C356.716 191.762 355.501 192.162 354.265 192.1H351.105V197.5H349.435ZM351.135 190.58H354.195C354.984 190.606 355.758 190.359 356.385 189.88C356.68 189.628 356.912 189.31 357.063 188.953C357.214 188.595 357.28 188.207 357.255 187.82C357.284 187.424 357.22 187.026 357.067 186.66C356.914 186.293 356.677 185.968 356.375 185.71C355.735 185.234 354.952 184.99 354.155 185.02H351.155L351.135 190.58Z" fill="white"/>
<path d="M376.015 197.8C375.326 197.809 374.643 197.665 374.015 197.38C373.372 197.08 372.799 196.647 372.335 196.11C371.769 195.434 371.36 194.642 371.135 193.79C370.821 192.681 370.673 191.532 370.695 190.38C370.572 188.483 371.129 186.604 372.265 185.08C372.693 184.491 373.253 184.012 373.902 183.682C374.55 183.351 375.267 183.179 375.995 183.179C376.723 183.179 377.44 183.351 378.088 183.682C378.736 184.012 379.297 184.491 379.725 185.08C380.851 186.624 381.406 188.512 381.295 190.42C381.314 191.569 381.162 192.715 380.845 193.82C380.61 194.661 380.198 195.442 379.635 196.11C379.163 196.631 378.592 197.052 377.955 197.35C377.346 197.633 376.686 197.786 376.015 197.8V197.8ZM376.015 196.24C376.525 196.234 377.025 196.097 377.468 195.843C377.911 195.589 378.281 195.227 378.545 194.79C379.285 193.472 379.632 191.969 379.545 190.46C379.628 188.98 379.281 187.507 378.545 186.22C378.275 185.79 377.9 185.436 377.456 185.191C377.012 184.945 376.512 184.816 376.005 184.816C375.497 184.816 374.998 184.945 374.554 185.191C374.11 185.436 373.735 185.79 373.465 186.22C372.724 187.491 372.376 188.952 372.465 190.42C372.383 191.942 372.729 193.456 373.465 194.79C373.723 195.236 374.096 195.605 374.544 195.86C374.992 196.115 375.5 196.246 376.015 196.24Z" fill="white"/>
<path d="M394.235 197.5V183.5H398.675C399.918 183.428 401.146 183.804 402.135 184.56C402.886 185.322 403.332 186.333 403.39 187.401C403.447 188.47 403.111 189.522 402.445 190.36C401.767 191.059 400.878 191.516 399.915 191.66L403.035 197.5H401.175L398.175 191.78H395.975V197.5H394.235ZM395.935 190.3H398.575C399.376 190.336 400.168 190.116 400.835 189.67C401.13 189.432 401.363 189.125 401.513 188.777C401.663 188.428 401.725 188.048 401.695 187.67C401.695 185.91 400.635 185.03 398.535 185.03H395.935V190.3Z" fill="white"/>
<path d="M419.975 197.5V185.02H415.245V183.5H426.355V185.02H421.655V197.5H419.975Z" fill="white"/>
<path d="M438.115 192.68L439.875 192.34C439.937 193.425 440.316 194.468 440.965 195.34C441.312 195.679 441.729 195.937 442.187 196.098C442.645 196.259 443.132 196.317 443.615 196.27C444.389 196.321 445.152 196.07 445.745 195.57C445.981 195.351 446.168 195.085 446.294 194.788C446.42 194.492 446.482 194.172 446.475 193.85C446.494 193.536 446.446 193.222 446.336 192.927C446.226 192.633 446.055 192.364 445.835 192.14C444.966 191.499 443.991 191.015 442.955 190.71C441.793 190.345 440.702 189.787 439.725 189.06C439.399 188.785 439.14 188.44 438.966 188.05C438.793 187.66 438.711 187.236 438.725 186.81C438.718 186.323 438.819 185.841 439.021 185.398C439.224 184.955 439.522 184.563 439.895 184.25C440.764 183.549 441.86 183.193 442.975 183.25C444.094 183.226 445.189 183.578 446.085 184.25C446.528 184.595 446.894 185.028 447.161 185.522C447.428 186.016 447.589 186.56 447.635 187.12L445.975 187.48C445.952 187.109 445.856 186.747 445.693 186.413C445.53 186.08 445.302 185.782 445.023 185.537C444.744 185.292 444.42 185.104 444.068 184.984C443.717 184.865 443.345 184.816 442.975 184.84C442.303 184.793 441.636 184.996 441.105 185.41C440.895 185.583 440.727 185.802 440.615 186.05C440.502 186.298 440.447 186.568 440.455 186.84C440.451 187.085 440.503 187.327 440.607 187.549C440.711 187.771 440.864 187.966 441.055 188.12C441.868 188.667 442.758 189.092 443.695 189.38C444.974 189.774 446.17 190.397 447.225 191.22C447.551 191.561 447.801 191.967 447.96 192.412C448.118 192.857 448.181 193.329 448.145 193.8C448.155 194.341 448.051 194.878 447.839 195.376C447.627 195.875 447.312 196.322 446.915 196.69C445.984 197.506 444.771 197.926 443.535 197.86C440.328 197.82 438.522 196.093 438.115 192.68Z" fill="white"/>
<path d="M115.055 231.5V217.5H123.335V219.02H116.775V223.56H122.775V225.04H116.775V229.96H123.335V231.48L115.055 231.5Z" fill="white"/>
<path d="M136.835 231.5V217.5H138.575L144.155 228.66V217.5H145.755V231.5H144.055L138.495 220.34V231.5H136.835Z" fill="white"/>
<path d="M162.875 231.5V219.02H158.155V217.5H169.255V219.02H164.555V231.5H162.875Z" fill="white"/>
<path d="M181.935 231.5V217.5H186.375C187.618 217.428 188.846 217.804 189.835 218.56C190.586 219.322 191.032 220.333 191.089 221.401C191.147 222.47 190.811 223.522 190.145 224.36C189.467 225.059 188.578 225.516 187.615 225.66L190.735 231.5H188.875L185.875 225.78H183.675V231.5H181.935ZM183.635 224.3H186.275C187.076 224.336 187.868 224.116 188.535 223.67C188.83 223.432 189.063 223.125 189.213 222.777C189.363 222.428 189.425 222.048 189.395 221.67C189.395 219.91 188.335 219.03 186.235 219.03H183.635V224.3Z" fill="white"/>
<path d="M204.655 231.5V217.5H212.935V219.02H206.375V223.56H212.375V225.04H206.375V229.96H212.935V231.48L204.655 231.5Z" fill="white"/>
<path d="M226.735 231.5V217.5H231.555C232.796 217.439 234.015 217.842 234.975 218.63C235.798 219.482 236.258 220.62 236.258 221.805C236.258 222.99 235.798 224.128 234.975 224.98C234.016 225.762 232.801 226.162 231.565 226.1H228.405V231.5H226.735ZM228.435 224.58H231.495C232.284 224.606 233.058 224.359 233.685 223.88C233.98 223.628 234.212 223.31 234.363 222.953C234.514 222.595 234.58 222.207 234.555 221.82C234.584 221.424 234.52 221.026 234.367 220.66C234.214 220.293 233.977 219.968 233.675 219.71C233.035 219.234 232.252 218.99 231.455 219.02H228.455L228.435 224.58Z" fill="white"/>
<path d="M249.135 231.5V217.5H253.575C254.818 217.428 256.046 217.804 257.035 218.56C257.786 219.322 258.232 220.333 258.29 221.401C258.347 222.47 258.011 223.522 257.345 224.36C256.667 225.059 255.778 225.516 254.815 225.66L257.935 231.5H256.075L253.075 225.78H250.875V231.5H249.135ZM250.835 224.3H253.495C254.296 224.336 255.088 224.116 255.755 223.67C256.05 223.432 256.283 223.125 256.433 222.777C256.583 222.428 256.645 222.048 256.615 221.67C256.615 219.91 255.555 219.03 253.455 219.03H250.855L250.835 224.3Z" fill="white"/>
<path d="M271.855 231.5V217.5H280.135V219.02H273.575V223.56H279.575V225.04H273.575V229.96H280.135V231.48L271.855 231.5Z" fill="white"/>
<path d="M293.635 231.5V217.5H295.375L300.955 228.66V217.5H302.555V231.5H300.855L295.235 220.34V231.5H293.635Z" fill="white"/>
<path d="M316.655 231.5V217.5H324.935V219.02H318.375V223.56H324.375V225.04H318.375V229.96H324.935V231.48L316.655 231.5Z" fill="white"/>
<path d="M337.895 226.96V217.52H339.595V226.84C339.595 229.12 340.695 230.26 342.895 230.26C343.347 230.292 343.801 230.231 344.229 230.081C344.657 229.932 345.051 229.696 345.385 229.39C345.988 228.698 346.294 227.796 346.235 226.88V217.52H347.915V226.96C347.961 227.622 347.867 228.287 347.639 228.91C347.412 229.534 347.056 230.103 346.595 230.58C345.567 231.454 344.242 231.898 342.895 231.82C341.554 231.899 340.234 231.455 339.215 230.58C338.754 230.103 338.398 229.534 338.17 228.91C337.943 228.287 337.849 227.622 337.895 226.96Z" fill="white"/>
<path d="M361.135 231.5V217.5H365.575C366.818 217.428 368.046 217.804 369.035 218.56C369.786 219.322 370.232 220.333 370.29 221.401C370.347 222.47 370.011 223.522 369.345 224.36C368.667 225.059 367.778 225.516 366.815 225.66L369.935 231.5H368.075L365.075 225.78H362.875V231.5H361.135ZM362.835 224.3H365.495C366.296 224.336 367.088 224.116 367.755 223.67C368.05 223.432 368.283 223.125 368.433 222.777C368.583 222.428 368.645 222.048 368.615 221.67C368.615 219.91 367.555 219.03 365.455 219.03H362.855L362.835 224.3Z" fill="white"/>
<path d="M382.615 226.68L384.375 226.34C384.442 227.424 384.82 228.466 385.465 229.34C385.813 229.678 386.23 229.936 386.687 230.097C387.145 230.258 387.632 230.317 388.115 230.27C388.892 230.323 389.659 230.072 390.255 229.57C390.488 229.349 390.672 229.082 390.796 228.786C390.92 228.49 390.981 228.171 390.975 227.85C390.994 227.536 390.946 227.222 390.836 226.927C390.726 226.633 390.555 226.364 390.335 226.14C389.466 225.499 388.491 225.015 387.455 224.71C386.293 224.345 385.202 223.787 384.225 223.06C383.899 222.785 383.64 222.44 383.466 222.05C383.293 221.66 383.211 221.236 383.225 220.81C383.216 220.323 383.316 219.84 383.518 219.397C383.721 218.954 384.02 218.562 384.395 218.25C385.259 217.548 386.353 217.192 387.465 217.25C388.584 217.226 389.679 217.578 390.575 218.25C391.018 218.595 391.384 219.028 391.651 219.522C391.918 220.016 392.079 220.56 392.125 221.12L390.465 221.48C390.443 221.109 390.348 220.746 390.185 220.412C390.023 220.078 389.795 219.779 389.516 219.534C389.237 219.288 388.912 219.1 388.56 218.981C388.208 218.862 387.836 218.814 387.465 218.84C386.793 218.793 386.126 218.996 385.595 219.41C385.385 219.583 385.217 219.802 385.105 220.05C384.992 220.298 384.937 220.568 384.945 220.84C384.943 221.085 384.996 221.326 385.1 221.548C385.204 221.769 385.356 221.965 385.545 222.12C386.358 222.667 387.248 223.092 388.185 223.38C389.464 223.774 390.66 224.397 391.715 225.22C392.042 225.561 392.294 225.967 392.454 226.411C392.614 226.856 392.679 227.329 392.645 227.8C392.653 228.342 392.547 228.879 392.333 229.377C392.12 229.875 391.803 230.323 391.405 230.69C390.474 231.506 389.261 231.926 388.025 231.86C384.825 231.82 383.022 230.093 382.615 226.68Z" fill="white"/>
<path d="M258.075 113L248.215 125.966L254.434 127.076L252.295 136L264.215 123.471L257.411 122.482L258.075 113Z" fill="white"/>
<path d="M255.975 107.35C259.166 107.326 262.321 108.035 265.195 109.422C268.069 110.809 270.587 112.837 272.555 115.35L279.845 111.53C277.139 107.72 273.561 104.613 269.409 102.469C265.257 100.325 260.652 99.2068 255.98 99.2068C251.307 99.2068 246.702 100.325 242.55 102.469C238.398 104.613 234.82 107.72 232.115 111.53L239.405 115.35C241.372 112.839 243.889 110.813 246.761 109.426C249.633 108.04 252.785 107.329 255.975 107.35V107.35Z" fill="#43EFC9"/>
<path d="M255.975 140.96C252.793 140.933 249.658 140.202 246.793 138.818C243.928 137.435 241.404 135.434 239.405 132.96L232.115 136.77C234.82 140.58 238.398 143.687 242.55 145.831C246.702 147.974 251.307 149.093 255.98 149.093C260.652 149.093 265.257 147.974 269.409 145.831C273.561 143.687 277.139 140.58 279.845 136.77L272.555 132.96C270.555 135.437 268.03 137.439 265.163 138.822C262.296 140.206 259.158 140.936 255.975 140.96V140.96Z" fill="#43EFC9"/>
<path fill-rule="evenodd" clip-rule="evenodd" d="M64.4948 64.21L65.6448 77.39H79.9047L72.2347 0.72998H46.5547L38.8848 77.39H53.1448L54.3148 64.21H64.4948ZM50.2148 41.207L61.9235 20.8038L61.1356 35.7239L69.2148 37.2807L55.0602 56.996L57.6005 42.954L50.2148 41.207Z" fill="white"/>
<path fill-rule="evenodd" clip-rule="evenodd" d="M296.975 64.21L298.125 77.39H312.385L304.715 0.72998H279.035L271.365 77.39H285.625L286.795 64.21H296.975ZM282.695 41.207L294.404 20.8038L293.616 35.7239L301.695 37.2807L287.54 56.996L290.081 42.954L282.695 41.207Z" fill="white"/>
<path d="M210.095 124.2H4.20483V127.64H210.095V124.2Z" fill="#FFFDFD"/>
<path d="M505.725 124.2H299.835V127.64H505.725V124.2Z" fill="#FFFDFD"/>
</g>
<defs>
<clipPath id="clip0_10969_24187">
<rect width="511.57" height="231.8" fill="white" transform="translate(0.214844)"/>
</clipPath>
</defs>
</svg>
