<svg width="120" height="40" viewBox="0 0 120 40" fill="none" xmlns="http://www.w3.org/2000/svg">
<g clip-path="url(#clip0_11116_2772)">
<path d="M109.775 3.00308e-07H9.5035C9.138 3.00308e-07 8.77688 3.00366e-07 8.41235 0.0020003C8.1072 0.0040003 7.80448 0.0098103 7.4964 0.0147003C6.82711 0.0226021 6.1594 0.0816766 5.49906 0.19141C4.83964 0.303533 4.20089 0.514916 3.60439 0.81841C3.00863 1.12447 2.46426 1.52217 1.99104 1.99707C1.51533 2.47064 1.11879 3.01802 0.81667 3.61816C0.513715 4.21711 0.303644 4.85894 0.193714 5.52148C0.0827395 6.18319 0.0230228 6.85252 0.0151005 7.52348C0.0058508 7.83008 0.00487401 8.1377 0 8.44434V31.5586C0.00487401 31.8691 0.0058508 32.1699 0.0151005 32.4805C0.0230253 33.1514 0.0827419 33.8207 0.193714 34.4824C0.303341 35.1453 0.513424 35.7875 0.81667 36.3867C1.11866 36.9849 1.51525 37.5301 1.99104 38.001C2.46247 38.478 3.00719 38.876 3.60439 39.1797C4.20088 39.484 4.83957 39.6967 5.49906 39.8105C6.15951 39.9194 6.82716 39.9785 7.4964 39.9873C7.80448 39.9941 8.1072 39.998 8.41235 39.998C8.77687 40 9.13802 40 9.5035 40H109.775C110.133 40 110.497 40 110.855 39.998C111.159 39.998 111.47 39.9941 111.774 39.9873C112.442 39.9789 113.108 39.9198 113.767 39.8105C114.429 39.6959 115.07 39.4833 115.669 39.1797C116.266 38.8758 116.81 38.4779 117.281 38.001C117.756 37.5282 118.153 36.9835 118.459 36.3867C118.76 35.7871 118.968 35.1449 119.076 34.4824C119.187 33.8206 119.249 33.1515 119.261 32.4805C119.265 32.1699 119.265 31.8691 119.265 31.5586C119.273 31.1953 119.273 30.834 119.273 30.4648V9.53613C119.273 9.16992 119.273 8.80664 119.265 8.44434C119.265 8.1377 119.265 7.83008 119.261 7.52344C119.249 6.85242 119.187 6.18324 119.076 5.52144C118.968 4.85928 118.76 4.2175 118.459 3.61812C117.844 2.4152 116.868 1.43603 115.669 0.81832C115.07 0.515568 114.429 0.304241 113.767 0.19132C113.108 0.0811031 112.442 0.0220081 111.774 0.0145603C111.47 0.0096803 111.159 0.0038203 110.855 0.0018703C110.497 -0.0001297 110.133 -0.0001297 109.775 -0.0001297V3.00308e-07Z" fill="#A6A6A6"/>
<path d="M8.41718 39.125C8.11349 39.125 7.81714 39.1211 7.51584 39.1143C6.89167 39.1061 6.26896 39.0516 5.65282 38.9512C5.07829 38.8519 4.52173 38.6673 4.00149 38.4033C3.48603 38.1415 3.01588 37.7983 2.60906 37.3867C2.19636 36.98 1.85276 36.5082 1.59189 35.9902C1.32814 35.4688 1.14562 34.9099 1.05066 34.333C0.948126 33.7131 0.892648 33.0863 0.884709 32.458C0.87839 32.2471 0.870117 31.5449 0.870117 31.5449V8.44434C0.870117 8.44434 0.878928 7.75293 0.884759 7.5498C0.89236 6.92248 0.947515 6.29665 1.04975 5.67773C1.14487 5.09925 1.32754 4.53875 1.59143 4.01563C1.85134 3.49794 2.19303 3.02586 2.60325 2.61768C3.01301 2.20562 3.48466 1.8606 4.00101 1.59521C4.52005 1.33209 5.07555 1.14873 5.64892 1.05127C6.26709 0.949836 6.89196 0.894996 7.5183 0.88721L8.41766 0.875H110.85L111.76 0.8877C112.381 0.895099 113 0.94945 113.613 1.05029C114.192 1.14898 114.753 1.33362 115.278 1.59814C116.312 2.13299 117.154 2.97916 117.685 4.01807C117.945 4.53758 118.125 5.09351 118.219 5.66699C118.322 6.29099 118.38 6.92174 118.392 7.5542C118.395 7.8374 118.395 8.1416 118.395 8.44434C118.403 8.81934 118.403 9.17627 118.403 9.53613V30.4648C118.403 30.8281 118.403 31.1826 118.395 31.54C118.395 31.8652 118.395 32.1631 118.391 32.4697C118.379 33.0909 118.322 33.7104 118.22 34.3232C118.127 34.9043 117.946 35.4675 117.682 35.9932C117.42 36.5056 117.078 36.9733 116.67 37.3789C116.263 37.7927 115.792 38.1379 115.275 38.4014C114.752 38.6674 114.191 38.8527 113.613 38.9512C112.996 39.0522 112.374 39.1067 111.749 39.1143C111.458 39.1211 111.152 39.125 110.855 39.125L109.775 39.127L8.41718 39.125Z" fill="#131424"/>
<path d="M24.6879 20.3006C24.6986 19.466 24.9196 18.6476 25.3303 17.9216C25.7409 17.1957 26.328 16.5858 27.0367 16.1486C26.5865 15.5034 25.9925 14.9725 25.3019 14.5979C24.6114 14.2234 23.8433 14.0155 23.0586 13.9909C21.3849 13.8146 19.7623 14.9957 18.9093 14.9957C18.0399 14.9957 16.7267 14.0084 15.3126 14.0376C14.398 14.0672 13.5066 14.3341 12.7252 14.8121C11.9439 15.2902 11.2994 15.9632 10.8544 16.7655C8.92668 20.1139 10.3646 25.0349 12.2111 27.7415C13.135 29.0669 14.2147 30.5473 15.6275 30.4948C17.01 30.4373 17.5264 29.6104 19.1952 29.6104C20.8486 29.6104 21.333 30.4948 22.7745 30.4615C24.258 30.4373 25.1927 29.1302 26.0841 27.7923C26.7479 26.848 27.2587 25.8042 27.5976 24.6998C26.7357 24.3341 26.0002 23.7219 25.4828 22.9396C24.9653 22.1573 24.6889 21.2395 24.6879 20.3006Z" fill="white"/>
<path d="M21.9652 12.2109C22.7741 11.2367 23.1726 9.98448 23.0761 8.72025C21.8403 8.85047 20.6988 9.44303 19.879 10.3799C19.4781 10.8375 19.1712 11.37 18.9756 11.9467C18.7799 12.5235 18.6996 13.1333 18.739 13.7412C19.3571 13.7476 19.9686 13.6132 20.5274 13.3481C21.0863 13.083 21.5779 12.6942 21.9652 12.2109Z" fill="white"/>
<path d="M42.1639 27.1397H37.446L36.313 30.4961H34.3147L38.7834 18.0781H40.8596L45.3284 30.4961H43.296L42.1639 27.1397ZM37.9347 25.5908H41.6744L39.8308 20.1436H39.7792L37.9347 25.5908Z" fill="white"/>
<path d="M54.9793 25.9697C54.9793 28.7832 53.4784 30.5908 51.2134 30.5908C50.6396 30.6209 50.069 30.4883 49.5668 30.2082C49.0647 29.928 48.6513 29.5117 48.3741 29.0068H48.3312V33.4912H46.4789V21.4424H48.2719V22.9482H48.3059C48.5959 22.4458 49.0163 22.0316 49.5222 21.7497C50.0282 21.4679 50.6009 21.3289 51.1793 21.3476C53.4696 21.3476 54.9793 23.164 54.9793 25.9697ZM53.0754 25.9697C53.0754 24.1367 52.1313 22.9316 50.6907 22.9316C49.2754 22.9316 48.3234 24.1621 48.3234 25.9697C48.3234 27.7939 49.2754 29.0156 50.6907 29.0156C52.1313 29.0156 53.0754 27.8193 53.0754 25.9697Z" fill="white"/>
<path d="M64.9116 25.9697C64.9116 28.7832 63.4107 30.5908 61.1456 30.5908C60.5719 30.6209 60.0012 30.4883 59.4991 30.2082C58.9969 29.928 58.5836 29.5117 58.3063 29.0068H58.2635V33.4912H56.4111V21.4424H58.2041V22.9482H58.2381C58.5281 22.4458 58.9485 22.0316 59.4545 21.7497C59.9604 21.4679 60.5331 21.3289 61.1115 21.3476C63.4019 21.3476 64.9116 23.164 64.9116 25.9697ZM63.0077 25.9697C63.0077 24.1367 62.0635 22.9316 60.6229 22.9316C59.2076 22.9316 58.2557 24.1621 58.2557 25.9697C58.2557 27.7939 59.2076 29.0156 60.6229 29.0156C62.0635 29.0156 63.0077 27.8193 63.0077 25.9697H63.0077Z" fill="white"/>
<path d="M71.476 27.0361C71.6132 28.2676 72.8056 29.0761 74.435 29.0761C75.9963 29.0761 77.1196 28.2676 77.1196 27.1572C77.1196 26.1933 76.4421 25.6162 74.838 25.2207L73.2339 24.833C70.9611 24.2822 69.9059 23.2158 69.9059 21.4853C69.9059 19.3427 71.767 17.8711 74.4097 17.8711C77.0251 17.8711 78.8181 19.3427 78.8785 21.4853H77.0086C76.8967 20.2461 75.8756 19.498 74.3834 19.498C72.8912 19.498 71.8702 20.2549 71.8702 21.3564C71.8702 22.2343 72.5223 22.7509 74.1177 23.1464L75.4814 23.4824C78.0209 24.0849 79.076 25.1084 79.076 26.9247C79.076 29.248 77.2315 30.7031 74.2978 30.7031C71.5529 30.7031 69.6996 29.2822 69.5798 27.0361L71.476 27.0361Z" fill="white"/>
<path d="M83.0737 19.2998V21.4424H84.7897V22.9141H83.0737V27.9053C83.0737 28.6807 83.4173 29.042 84.1717 29.042C84.3754 29.0384 84.5788 29.0241 84.781 28.999V30.4619C84.4418 30.5255 84.0971 30.5543 83.7521 30.5478C81.9251 30.5478 81.2126 29.8593 81.2126 28.1035V22.9141H79.9005V21.4424H81.2126V19.2998H83.0737Z" fill="white"/>
<path d="M85.7834 25.9697C85.7834 23.1211 87.4557 21.3311 90.0634 21.3311C92.6798 21.3311 94.3442 23.1211 94.3442 25.9697C94.3442 28.8262 92.6885 30.6084 90.0634 30.6084C87.4391 30.6084 85.7834 28.8262 85.7834 25.9697ZM92.4569 25.9697C92.4569 24.0156 91.5643 22.8623 90.0633 22.8623C88.5624 22.8623 87.6708 24.0244 87.6708 25.9697C87.6708 27.9316 88.5624 29.0762 90.0633 29.0762C91.5643 29.0762 92.4568 27.9316 92.4568 25.9697H92.4569Z" fill="white"/>
<path d="M95.8715 21.4424H97.6381V22.9834H97.681C97.8005 22.5021 98.0815 22.0768 98.4768 21.7789C98.8721 21.481 99.3576 21.3288 99.8516 21.3477C100.065 21.3469 100.278 21.3702 100.486 21.417V23.1553C100.217 23.0727 99.9356 23.0348 99.654 23.043C99.3849 23.0321 99.1166 23.0797 98.8676 23.1825C98.6186 23.2854 98.3947 23.4412 98.2113 23.6391C98.0279 23.8369 97.8894 24.0723 97.8053 24.329C97.7211 24.5856 97.6933 24.8575 97.7238 25.126V30.4961H95.8715L95.8715 21.4424Z" fill="white"/>
<path d="M109.027 27.8369C108.777 29.4805 107.182 30.6084 105.141 30.6084C102.516 30.6084 100.886 28.8437 100.886 26.0127C100.886 23.1728 102.525 21.3311 105.063 21.3311C107.56 21.3311 109.13 23.0517 109.13 25.7969V26.4336H102.756V26.5459C102.727 26.8791 102.768 27.2148 102.878 27.5306C102.988 27.8464 103.164 28.1352 103.393 28.3778C103.623 28.6203 103.901 28.8111 104.21 28.9374C104.519 29.0637 104.851 29.1226 105.184 29.1103C105.622 29.1515 106.061 29.0498 106.436 28.8203C106.812 28.5909 107.103 28.246 107.268 27.8369L109.027 27.8369ZM102.765 25.1348H107.277C107.293 24.8352 107.248 24.5354 107.144 24.2541C107.039 23.9729 106.878 23.7164 106.67 23.5006C106.462 23.2849 106.212 23.1145 105.936 23.0003C105.659 22.8861 105.362 22.8305 105.063 22.8369C104.761 22.8351 104.462 22.8932 104.183 23.008C103.904 23.1227 103.65 23.2918 103.437 23.5054C103.223 23.7191 103.054 23.973 102.938 24.2527C102.823 24.5323 102.764 24.8321 102.765 25.1348V25.1348Z" fill="white"/>
<path d="M37.7024 8.73086C38.0908 8.7029 38.4804 8.76176 38.8434 8.9032C39.2063 9.04463 39.5334 9.26511 39.8011 9.54873C40.0688 9.83236 40.2704 10.1721 40.3914 10.5433C40.5124 10.9146 40.5498 11.3082 40.5008 11.6957C40.5008 13.602 39.474 14.6977 37.7024 14.6977H35.5542V8.73086H37.7024ZM36.4779 13.8539H37.5992C37.8767 13.8705 38.1544 13.8249 38.4121 13.7202C38.6698 13.6156 38.901 13.4547 39.0889 13.2491C39.2768 13.0435 39.4166 12.7985 39.4982 12.5319C39.5798 12.2653 39.6011 11.9838 39.5606 11.7079C39.5982 11.433 39.5747 11.1533 39.4918 10.8886C39.409 10.6239 39.2688 10.3809 39.0814 10.177C38.8939 9.97306 38.6638 9.81326 38.4076 9.70902C38.1514 9.60478 37.8753 9.5587 37.5992 9.57407H36.4779V13.8539Z" fill="white"/>
<path d="M41.5443 12.4442C41.5161 12.1483 41.5498 11.8497 41.6434 11.5677C41.7369 11.2856 41.8882 11.0263 42.0875 10.8063C42.2867 10.5863 42.5297 10.4105 42.8006 10.2902C43.0716 10.17 43.3646 10.1078 43.6609 10.1078C43.9572 10.1078 44.2502 10.17 44.5212 10.2902C44.7922 10.4105 45.0351 10.5863 45.2344 10.8063C45.4336 11.0263 45.5849 11.2856 45.6784 11.5677C45.772 11.8497 45.8057 12.1483 45.7775 12.4442C45.8062 12.7404 45.7729 13.0394 45.6796 13.3219C45.5863 13.6045 45.4352 13.8643 45.2358 14.0847C45.0365 14.3051 44.7934 14.4813 44.5222 14.6018C44.2509 14.7223 43.9576 14.7846 43.6609 14.7846C43.3643 14.7846 43.0709 14.7223 42.7997 14.6018C42.5284 14.4813 42.2853 14.3051 42.086 14.0847C41.8866 13.8643 41.7355 13.6045 41.6422 13.3219C41.5489 13.0394 41.5156 12.7404 41.5443 12.4442ZM44.8664 12.4442C44.8664 11.4681 44.4294 10.8973 43.6624 10.8973C42.8924 10.8973 42.4593 11.4681 42.4593 12.4442C42.4593 13.4281 42.8925 13.9945 43.6624 13.9945C44.4294 13.9945 44.8664 13.4242 44.8664 12.4442H44.8664Z" fill="white"/>
<path d="M51.4045 14.6977H50.4857L49.5581 11.3812H49.488L48.5642 14.6977H47.6541L46.417 10.1947H47.3154L48.1194 13.6307H48.1856L49.1084 10.1947H49.9581L50.8809 13.6307H50.9509L51.7511 10.1947H52.6368L51.4045 14.6977Z" fill="white"/>
<path d="M53.6774 10.1947H54.53V10.9101H54.5962C54.7085 10.6531 54.8979 10.4378 55.138 10.294C55.3781 10.1502 55.6569 10.0851 55.9356 10.1078C56.154 10.0913 56.3732 10.1244 56.5772 10.2045C56.7811 10.2846 56.9645 10.4097 57.1137 10.5705C57.2628 10.7314 57.3741 10.9238 57.439 11.1336C57.504 11.3435 57.5211 11.5653 57.4891 11.7826V14.6976H56.6033V12.0058C56.6033 11.2821 56.2899 10.9223 55.6348 10.9223C55.4865 10.9154 55.3385 10.9407 55.2009 10.9965C55.0633 11.0523 54.9394 11.1374 54.8376 11.2457C54.7358 11.3541 54.6586 11.4833 54.6112 11.6244C54.5638 11.7656 54.5474 11.9153 54.5631 12.0634V14.6977H53.6774L53.6774 10.1947Z" fill="white"/>
<path d="M58.9005 8.4369H59.7863V14.6976H58.9005V8.4369Z" fill="white"/>
<path d="M61.0176 12.4443C60.9894 12.1483 61.0231 11.8497 61.1167 11.5677C61.2102 11.2856 61.3615 11.0262 61.5608 10.8062C61.7601 10.5862 62.0031 10.4105 62.2741 10.2902C62.545 10.1699 62.8381 10.1078 63.1344 10.1078C63.4307 10.1078 63.7238 10.1699 63.9947 10.2902C64.2657 10.4105 64.5086 10.5862 64.708 10.8062C64.9073 11.0262 65.0585 11.2856 65.1521 11.5677C65.2457 11.8497 65.2794 12.1483 65.2512 12.4443C65.2799 12.7405 65.2466 13.0395 65.1533 13.322C65.0599 13.6045 64.9087 13.8643 64.7094 14.0847C64.51 14.3052 64.2669 14.4813 63.9957 14.6018C63.7244 14.7223 63.431 14.7846 63.1344 14.7846C62.8377 14.7846 62.5444 14.7223 62.2731 14.6018C62.0019 14.4813 61.7588 14.3052 61.5594 14.0847C61.36 13.8643 61.2088 13.6045 61.1155 13.322C61.0222 13.0395 60.9888 12.7405 61.0176 12.4443ZM64.3397 12.4443C64.3397 11.4682 63.9026 10.8974 63.1356 10.8974C62.3657 10.8974 61.9326 11.4682 61.9326 12.4443C61.9326 13.4282 62.3657 13.9946 63.1356 13.9946C63.9026 13.9945 64.3397 13.4242 64.3397 12.4443H64.3397Z" fill="white"/>
<path d="M66.1837 13.4242C66.1837 12.6137 66.7853 12.1464 67.853 12.08L69.0688 12.0097V11.621C69.0688 11.1454 68.7553 10.8769 68.1499 10.8769C67.6554 10.8769 67.3128 11.059 67.2145 11.3773H66.357C66.4475 10.6039 67.1727 10.1078 68.1908 10.1078C69.316 10.1078 69.9506 10.6698 69.9506 11.621V14.6977H69.098V14.0648H69.0279C68.8856 14.2918 68.6859 14.4769 68.449 14.6011C68.2122 14.7253 67.9467 14.7842 67.6798 14.7718C67.4914 14.7915 67.3009 14.7713 67.1208 14.7126C66.9406 14.6539 66.7747 14.558 66.6337 14.431C66.4928 14.3041 66.3799 14.1489 66.3024 13.9755C66.2249 13.802 66.1845 13.6143 66.1837 13.4242ZM69.0688 13.0394V12.663L67.9728 12.7333C67.3547 12.7748 67.0743 12.9857 67.0743 13.3827C67.0743 13.788 67.4247 14.0238 67.9066 14.0238C68.0478 14.0381 68.1904 14.0238 68.326 13.9818C68.4615 13.9397 68.5873 13.8706 68.6957 13.7788C68.8041 13.687 68.893 13.5742 68.9571 13.4472C69.0212 13.3201 69.0592 13.1815 69.0688 13.0394Z" fill="white"/>
<path d="M71.1147 12.4442C71.1147 11.0214 71.8438 10.12 72.9778 10.12C73.2583 10.1071 73.5367 10.1745 73.7804 10.3144C74.0241 10.4543 74.2231 10.6609 74.3541 10.91H74.4203V8.4369H75.3061V14.6976H74.4573V13.9862H74.3872C74.2461 14.2337 74.0401 14.4377 73.7917 14.5762C73.5433 14.7147 73.2618 14.7824 72.9778 14.7719C71.836 14.7719 71.1147 13.8705 71.1147 12.4442ZM72.0297 12.4442C72.0297 13.3993 72.4785 13.974 73.2289 13.974C73.9755 13.974 74.4369 13.391 74.4369 12.4482C74.4369 11.5097 73.9707 10.9184 73.2289 10.9184C72.4833 10.9184 72.0297 11.497 72.0297 12.4442H72.0297Z" fill="white"/>
<path d="M78.9708 12.4442C78.9426 12.1483 78.9764 11.8497 79.0699 11.5677C79.1634 11.2856 79.3147 11.0263 79.514 10.8063C79.7133 10.5863 79.9562 10.4105 80.2271 10.2902C80.4981 10.17 80.7911 10.1078 81.0874 10.1078C81.3837 10.1078 81.6767 10.17 81.9477 10.2902C82.2187 10.4105 82.4616 10.5863 82.6609 10.8063C82.8601 11.0263 83.0114 11.2856 83.1049 11.5677C83.1985 11.8497 83.2322 12.1483 83.204 12.4442C83.2328 12.7404 83.1994 13.0394 83.1061 13.3219C83.0128 13.6045 82.8617 13.8643 82.6623 14.0847C82.463 14.3051 82.2199 14.4813 81.9487 14.6018C81.6774 14.7223 81.3841 14.7846 81.0874 14.7846C80.7908 14.7846 80.4974 14.7223 80.2262 14.6018C79.9549 14.4813 79.7118 14.3051 79.5125 14.0847C79.3132 13.8643 79.162 13.6045 79.0687 13.3219C78.9754 13.0394 78.9421 12.7404 78.9708 12.4442ZM82.2929 12.4442C82.2929 11.4681 81.8559 10.8973 81.0889 10.8973C80.3189 10.8973 79.8858 11.4681 79.8858 12.4442C79.8858 13.4281 80.319 13.9945 81.0889 13.9945C81.8559 13.9945 82.2929 13.4242 82.2929 12.4442Z" fill="white"/>
<path d="M84.3925 10.1947H85.2451V10.9101H85.3113C85.4236 10.6531 85.613 10.4378 85.8531 10.294C86.0932 10.1502 86.372 10.0851 86.6507 10.1078C86.8691 10.0913 87.0883 10.1244 87.2923 10.2045C87.4962 10.2846 87.6796 10.4097 87.8287 10.5705C87.9779 10.7314 88.0892 10.9238 88.1541 11.1336C88.2191 11.3435 88.2362 11.5653 88.2042 11.7826V14.6976H87.3184V12.0058C87.3184 11.2821 87.005 10.9223 86.3499 10.9223C86.2016 10.9154 86.0536 10.9407 85.916 10.9965C85.7784 11.0523 85.6545 11.1374 85.5527 11.2457C85.4509 11.3541 85.3737 11.4833 85.3263 11.6244C85.2789 11.7656 85.2625 11.9153 85.2782 12.0634V14.6977H84.3925V10.1947Z" fill="white"/>
<path d="M93.2093 9.07364V10.2152H94.1817V10.9638H93.2093V13.2792C93.2093 13.7509 93.4031 13.9574 93.844 13.9574C93.9569 13.9571 94.0696 13.9502 94.1817 13.9369V14.6771C94.0227 14.7057 93.8615 14.7209 93.6999 14.7226C92.7149 14.7226 92.3226 14.3749 92.3226 13.5067V10.9637H91.6101V10.2152H92.3226V9.07364H93.2093Z" fill="white"/>
<path d="M95.3916 8.4369H96.2696V10.9184H96.3397C96.4574 10.659 96.652 10.4424 96.8969 10.2981C97.1418 10.1537 97.4251 10.0887 97.7082 10.1117C97.9254 10.0999 98.1426 10.1362 98.3442 10.2183C98.5458 10.3003 98.7269 10.426 98.8745 10.5863C99.0222 10.7467 99.1327 10.9377 99.1983 11.1459C99.2639 11.354 99.2828 11.5741 99.2539 11.7904V14.6977H98.3672V12.0097C98.3672 11.2904 98.0333 10.9262 97.4075 10.9262C97.2552 10.9136 97.1021 10.9346 96.9588 10.9877C96.8155 11.0407 96.6855 11.1246 96.5778 11.2333C96.4702 11.342 96.3875 11.4731 96.3356 11.6172C96.2837 11.7613 96.2639 11.9151 96.2774 12.0678V14.6976H95.3916L95.3916 8.4369Z" fill="white"/>
<path d="M104.419 13.4819C104.298 13.8934 104.037 14.2494 103.682 14.4875C103.326 14.7257 102.899 14.8308 102.474 14.7846C102.178 14.7924 101.884 14.7356 101.613 14.6181C101.341 14.5005 101.098 14.3251 100.901 14.104C100.704 13.8829 100.557 13.6213 100.47 13.3375C100.384 13.0536 100.36 12.7544 100.4 12.4604C100.361 12.1655 100.385 11.8656 100.472 11.5809C100.558 11.2962 100.704 11.0335 100.9 10.8104C101.096 10.5873 101.338 10.4091 101.609 10.2879C101.88 10.1667 102.173 10.1053 102.47 10.1078C103.719 10.1078 104.472 10.9638 104.472 12.3778V12.6879H101.303V12.7377C101.289 12.903 101.31 13.0693 101.364 13.2261C101.418 13.3828 101.504 13.5265 101.616 13.648C101.729 13.7694 101.865 13.866 102.017 13.9313C102.169 13.9967 102.333 14.0296 102.498 14.0277C102.71 14.0533 102.925 14.015 103.115 13.9178C103.305 13.8206 103.462 13.6688 103.566 13.4818L104.419 13.4819ZM101.303 12.0307H103.57C103.581 11.8796 103.56 11.7278 103.51 11.585C103.459 11.4423 103.379 11.3118 103.275 11.202C103.171 11.0921 103.045 11.0053 102.906 10.9472C102.766 10.889 102.616 10.8607 102.465 10.8642C102.312 10.8623 102.16 10.8911 102.018 10.9491C101.876 11.007 101.747 11.0929 101.639 11.2016C101.53 11.3103 101.445 11.4397 101.387 11.5821C101.33 11.7245 101.301 11.877 101.303 12.0307H101.303Z" fill="white"/>
</g>
<defs>
<clipPath id="clip0_11116_2772">
<rect width="119.273" height="40" fill="white"/>
</clipPath>
</defs>
</svg>
