<svg width="48" height="51" viewBox="0 0 48 51" fill="none" xmlns="http://www.w3.org/2000/svg">
<path d="M26.0748 14L16.2148 26.9662L22.4343 28.0763L20.2951 37L32.2148 24.471L25.4113 23.4817L26.0748 14Z" fill="white"/>
<path d="M23.9747 8.34998C27.1662 8.32623 30.3206 9.03506 33.195 10.422C36.0694 11.8089 38.5873 13.837 40.5547 16.35L47.8447 12.5299C45.1393 8.72004 41.5611 5.61327 37.4092 3.46936C33.2573 1.32545 28.6525 0.206787 23.9797 0.206787C19.307 0.206787 14.7022 1.32545 10.5503 3.46936C6.39842 5.61327 2.82018 8.72004 0.114746 12.5299L7.40472 16.35C9.37218 13.8395 11.8886 11.813 14.761 10.4263C17.6333 9.0395 20.7852 8.32927 23.9747 8.34998Z" fill="#43EFC9"/>
<path d="M23.9747 41.96C20.7934 41.9329 17.6576 41.2016 14.7925 39.8184C11.9275 38.4351 9.40446 36.4344 7.40472 33.96L0.114746 37.77C2.82018 41.5799 6.39842 44.6867 10.5503 46.8306C14.7022 48.9745 19.307 50.0931 23.9797 50.0931C28.6525 50.0931 33.2573 48.9745 37.4092 46.8306C41.5611 44.6867 45.1393 41.5799 47.8447 37.77L40.5547 33.96C38.5549 36.4367 36.0305 38.439 33.1634 39.8224C30.2963 41.2058 27.158 41.9358 23.9747 41.96Z" fill="#43EFC9"/>
</svg>
